{"glyphs":{"0":{"ha":1194,"x_min":28,"x_max":1167,"o":"m 1049 831 q 1135 701 1104 774 q 1167 543 1167 625 l 1167 404 q 1135 246 1167 322 q 1049 117 1104 174 q 919 31 992 60 q 761 -1 847 -1 l 433 -1 q 275 31 347 -1 q 146 117 203 60 q 60 246 89 174 q 28 404 28 322 l 28 543 q 60 701 28 625 q 146 831 89 774 q 275 917 203 888 q 433 949 347 949 l 761 949 q 919 917 847 949 q 1049 831 992 888 m 1114 543 q 1086 680 1114 615 q 1010 792 1058 744 q 898 868 963 840 q 761 896 833 896 l 433 896 q 296 868 360 896 q 184 792 232 840 q 108 680 136 744 q 81 543 81 615 l 81 404 q 108 267 81 331 q 184 155 136 203 q 296 79 232 107 q 433 51 360 51 l 761 51 q 898 79 833 51 q 1010 155 963 107 q 1086 267 1058 203 q 1114 404 1114 331 l 1114 543 z "},"1":{"ha":647,"x_min":28,"x_max":619,"o":"m 350 967 l 350 53 l 619 53 l 619 0 l 28 0 l 28 53 l 297 53 l 297 894 l 83 750 l 53 793 l 308 967 l 350 967 l 350 967 z "},"2":{"ha":933,"x_min":28,"x_max":906,"o":"m 208 314 q 113 215 143 274 q 82 72 82 156 l 82 53 l 851 53 l 851 200 l 906 200 l 906 0 l 28 0 l 28 26 l 28 72 q 181 358 28 265 q 327 420 247 399 q 489 460 407 442 q 623 492 560 475 q 735 535 686 508 q 812 601 783 561 q 840 706 840 642 q 825 780 840 744 q 784 841 810 815 q 723 882 758 867 q 649 897 688 897 l 251 897 q 194 885 221 897 q 148 854 168 874 q 116 808 128 835 q 104 750 104 781 l 51 750 q 67 828 51 792 q 110 891 83 864 q 174 934 138 918 q 251 950 210 950 l 649 950 q 821 879 750 950 q 874 799 856 843 q 893 706 893 754 q 765 490 893 563 q 642 442 710 460 q 500 408 575 424 q 344 371 421 392 q 208 314 268 350 z "},"3":{"ha":939,"x_min":28,"x_max":911,"o":"m 911 244 q 840 71 911 144 q 667 0 767 0 l 28 0 l 28 53 l 667 53 q 741 68 706 53 q 802 109 776 83 q 843 169 828 135 q 858 244 858 204 l 858 269 q 843 344 858 308 q 802 405 828 379 q 741 446 776 431 q 667 461 706 461 l 597 461 l 92 461 l 92 514 l 597 514 q 672 529 636 514 q 733 570 707 544 q 774 631 758 596 q 789 706 789 665 q 774 780 789 744 q 733 841 758 815 q 672 882 707 867 q 597 897 636 897 l 28 897 l 28 950 l 597 950 q 769 879 699 950 q 842 706 842 807 q 769 532 842 604 q 753 518 763 525 q 736 504 744 511 q 840 442 797 486 q 911 269 911 371 l 911 244 z "},"4":{"ha":1149,"x_min":28,"x_max":1121,"o":"m 1121 0 l 531 0 l 531 53 l 800 53 l 800 304 l 28 304 l 28 351 l 810 965 l 853 965 l 853 357 l 992 357 l 992 304 l 853 304 l 853 53 l 1121 53 l 1121 0 m 122 357 l 800 357 l 800 890 l 122 357 z "},"5":{"ha":978,"x_min":28,"x_max":950,"o":"m 878 71 q 798 18 843 36 q 704 0 753 0 l 228 0 q 150 15 186 0 q 87 58 114 31 q 44 122 60 85 q 28 200 28 158 l 82 200 q 93 142 82 169 q 124 96 104 115 q 171 65 144 76 q 228 53 197 53 l 704 53 q 778 68 743 53 q 840 109 814 83 q 881 169 865 135 q 896 244 896 204 l 896 349 q 881 423 896 388 q 840 484 867 458 q 779 525 814 510 q 706 540 744 540 l 63 542 l 97 950 l 872 950 l 872 897 l 146 897 l 121 594 l 706 593 q 799 575 754 593 q 878 521 843 557 q 931 442 913 486 q 950 349 950 397 l 950 244 q 931 151 950 196 q 878 71 913 106 z "},"6":{"ha":1056,"x_min":28,"x_max":1028,"o":"m 361 1 q 232 28 296 1 q 125 100 172 53 q 54 206 79 146 q 29 306 33 253 l 28 306 l 28 326 l 28 335 l 31 617 q 37 683 31 650 q 57 746 43 715 q 128 853 82 807 q 233 924 172 897 q 364 950 299 950 l 694 950 q 828 922 761 950 q 935 847 889 894 l 896 811 q 804 875 856 853 q 694 897 753 897 l 364 897 q 254 875 306 897 q 165 815 203 853 q 106 726 128 776 q 83 617 83 675 l 82 485 q 128 542 104 518 q 233 613 172 586 q 364 639 294 639 l 694 639 q 760 633 728 639 q 824 613 793 626 q 929 542 883 588 q 971 492 953 518 q 1001 436 989 465 q 1021 372 1014 404 q 1028 306 1028 340 l 1028 279 l 1024 279 q 999 181 1019 226 q 926 83 975 128 q 820 22 881 43 q 692 1 760 1 l 361 1 m 82 306 q 112 207 88 253 q 174 128 136 161 q 259 75 211 94 q 361 56 307 56 l 692 56 q 806 74 754 56 q 894 125 857 92 q 951 204 931 158 q 972 306 972 250 l 972 332 l 974 332 q 944 432 968 386 q 883 513 921 478 q 797 567 846 547 q 694 586 749 586 l 364 586 q 254 564 306 586 q 165 504 203 542 q 106 415 128 467 q 83 306 83 364 l 82 306 z "},"7":{"ha":889,"x_min":28,"x_max":861,"o":"m 147 -17 l 106 15 l 756 897 l 81 897 l 81 750 l 28 750 l 28 950 l 861 950 l 147 -17 l 147 -17 z "},"8":{"ha":1056,"x_min":28,"x_max":1028,"o":"m 853 504 q 957 442 914 486 q 1028 269 1028 371 l 1028 244 q 957 71 1028 144 q 783 0 883 0 l 679 0 l 339 0 l 272 0 q 178 18 224 0 q 99 71 133 36 q 28 244 28 144 l 28 269 q 99 442 28 371 q 203 504 142 486 q 169 532 186 515 q 97 706 97 604 q 169 879 97 807 q 342 950 240 950 l 508 950 l 679 950 l 714 950 q 886 879 815 950 q 958 706 958 807 q 886 532 958 604 q 870 518 879 525 q 853 504 861 511 m 150 706 q 165 631 150 665 q 206 570 181 596 q 267 529 232 544 q 342 514 301 514 l 451 514 l 679 514 l 692 514 l 714 514 q 788 529 753 514 q 849 570 824 544 q 890 631 875 596 q 906 706 906 665 q 890 780 906 744 q 849 841 875 815 q 788 882 824 867 q 714 897 753 897 l 679 897 l 508 897 l 342 897 q 267 882 301 897 q 206 841 232 867 q 165 780 181 815 q 150 706 150 744 m 975 269 q 960 344 975 308 q 919 405 944 379 q 858 446 893 431 q 783 461 822 461 l 714 461 l 692 461 l 679 461 l 451 461 l 342 461 l 272 461 q 197 446 232 461 q 137 405 163 431 q 96 344 111 379 q 81 269 81 308 l 81 244 q 96 169 81 204 q 137 109 111 135 q 197 68 163 83 q 272 53 232 53 l 339 53 l 679 53 l 783 53 q 858 68 822 53 q 919 109 893 83 q 960 169 944 135 q 975 244 975 204 l 975 269 z "},"9":{"ha":1056,"x_min":28,"x_max":1028,"o":"m 1028 615 l 1025 335 q 999 204 1025 265 q 928 99 972 143 q 822 28 883 54 q 692 1 761 1 l 361 1 q 228 29 294 1 q 121 104 167 57 l 158 140 q 251 76 199 99 q 361 54 303 54 l 692 54 q 801 76 750 54 q 890 137 851 99 q 950 226 928 175 q 972 335 972 276 l 974 465 q 951 436 963 450 q 928 410 940 422 q 822 338 881 363 q 758 318 790 325 q 692 311 726 311 l 361 311 q 232 338 296 311 q 125 410 172 363 q 54 515 79 456 q 28 644 28 576 l 28 672 l 31 672 q 57 771 38 728 q 88 823 69 799 q 129 868 106 847 q 235 928 175 907 q 364 949 296 949 l 694 949 q 760 942 728 949 q 824 922 793 936 q 929 851 883 897 q 971 801 953 828 q 1001 746 989 775 q 1026 644 1022 699 l 1028 644 l 1028 625 l 1028 615 m 972 644 q 943 743 967 697 q 882 823 919 789 q 797 876 844 857 q 694 896 749 896 l 364 896 q 250 878 301 896 q 162 826 199 860 q 104 747 125 793 q 83 644 83 700 l 83 618 l 82 618 q 111 519 88 565 q 172 438 135 472 q 258 385 210 404 q 361 365 307 365 l 692 365 q 801 388 750 365 q 890 447 851 410 q 950 535 928 485 q 972 644 972 586 z "},"\u0000":{"ha":0,"x_min":0,"x_max":0,"o":""},"\r":{"ha":304,"x_min":0,"x_max":0,"o":""}," ":{"ha":304,"x_min":0,"x_max":0,"o":""},"A":{"ha":1639,"x_min":28,"x_max":1611,"o":"m 618 0 l 28 0 l 28 53 l 321 53 l 794 950 l 844 950 l 1318 53 l 1611 53 l 1611 0 l 1021 0 l 1021 53 l 1258 53 l 1129 296 l 508 296 l 381 53 l 618 53 l 618 0 m 819 885 l 538 349 l 1101 349 l 819 885 z "},"B":{"ha":1281,"x_min":28,"x_max":1253,"o":"m 297 897 l 28 897 l 28 950 l 938 950 q 1031 932 986 950 q 1111 879 1076 914 q 1182 706 1182 806 q 1111 532 1182 606 q 1094 518 1103 525 q 1076 504 1086 511 q 1181 442 1138 486 q 1235 363 1217 407 q 1253 269 1253 318 l 1253 244 q 1181 71 1253 143 q 1008 0 1110 0 l 28 0 l 28 53 l 297 53 l 297 897 m 938 461 l 350 461 l 350 53 l 1008 53 q 1083 68 1047 53 q 1144 109 1118 83 q 1185 169 1169 135 q 1200 244 1200 204 l 1200 269 q 1185 344 1200 308 q 1144 405 1169 379 q 1083 446 1118 431 q 1008 461 1047 461 l 938 461 m 1129 706 q 1114 780 1129 744 q 1073 841 1099 815 q 1012 882 1047 867 q 938 897 976 897 l 350 897 l 350 514 l 938 514 q 1012 529 976 514 q 1073 570 1047 544 q 1114 631 1099 596 q 1129 706 1129 665 z "},"C":{"ha":1169,"x_min":28,"x_max":1142,"o":"m 1089 950 l 1142 950 l 1142 750 l 1089 750 q 1047 855 1089 813 q 942 897 1004 897 l 432 897 q 296 869 360 897 q 184 794 232 842 q 108 681 136 746 q 81 544 81 617 l 81 406 q 108 268 81 332 q 184 156 136 204 q 296 81 232 108 q 432 53 360 53 l 1115 53 l 1115 0 l 432 0 q 275 32 347 0 q 146 118 203 61 q 58 247 89 174 q 28 406 28 321 l 28 544 q 58 703 28 629 q 146 832 89 775 q 206 881 174 860 q 275 918 239 903 q 432 950 351 950 l 942 950 q 1024 933 986 950 q 1089 886 1061 915 l 1089 950 z "},"D":{"ha":1339,"x_min":28,"x_max":1311,"o":"m 297 53 l 297 897 l 28 897 l 28 950 l 906 950 q 1064 918 988 950 q 1192 832 1135 889 q 1279 703 1247 775 q 1311 544 1311 626 l 1311 406 q 1279 247 1311 324 q 1192 118 1247 174 q 1132 69 1164 90 q 1064 32 1100 47 q 986 8 1026 15 q 906 0 946 0 l 350 0 l 297 0 l 28 0 l 28 53 l 297 53 m 350 53 l 906 53 q 1042 81 978 53 q 1155 156 1107 108 q 1231 268 1203 204 q 1258 406 1258 332 l 1258 544 q 1231 681 1258 617 q 1155 794 1203 746 q 1042 869 1107 842 q 906 897 978 897 l 350 897 l 350 53 z "},"E":{"ha":1242,"x_min":28,"x_max":1214,"o":"m 28 53 l 297 53 l 297 897 l 28 897 l 28 950 l 1183 950 l 1183 750 l 1131 750 l 1131 897 l 350 897 l 350 515 l 975 515 l 975 463 l 350 463 l 350 53 l 1160 53 l 1160 200 l 1214 200 l 1214 0 l 28 0 l 28 53 l 28 53 z "},"F":{"ha":1211,"x_min":28,"x_max":1183,"o":"m 28 896 l 28 950 l 1183 950 l 1183 750 l 1129 750 l 1129 896 l 350 896 l 350 515 l 975 515 l 975 461 l 350 461 l 350 53 l 619 53 l 619 0 l 28 0 l 28 53 l 297 53 l 297 896 l 28 896 l 28 896 z "},"G":{"ha":1169,"x_min":28,"x_max":1142,"o":"m 1115 0 l 432 0 q 275 32 347 0 q 146 118 203 61 q 58 247 89 174 q 28 406 28 321 l 28 544 q 58 703 28 629 q 146 832 89 775 q 206 881 174 860 q 275 918 239 903 q 432 950 351 950 l 942 950 q 1024 933 986 950 q 1089 886 1061 915 l 1089 950 l 1142 950 l 1142 750 l 1089 750 q 1047 855 1089 813 q 942 897 1004 897 l 432 897 q 296 869 360 897 q 184 794 232 842 q 108 681 136 746 q 81 544 81 617 l 81 406 q 108 268 81 332 q 184 156 136 204 q 296 81 232 108 q 432 53 360 53 l 1089 53 l 1089 463 l 463 463 l 463 515 l 1142 515 l 1142 26 l 1115 26 l 1115 0 z "},"H":{"ha":1479,"x_min":28,"x_max":1451,"o":"m 1451 897 l 1183 897 l 1183 53 l 1451 53 l 1451 0 l 861 0 l 861 53 l 1131 53 l 1131 463 l 350 463 l 350 53 l 619 53 l 619 0 l 28 0 l 28 53 l 297 53 l 297 897 l 28 897 l 28 950 l 619 950 l 619 897 l 350 897 l 350 515 l 1131 515 l 1131 897 l 861 897 l 861 950 l 1451 950 l 1451 897 l 1451 897 z "},"I":{"ha":647,"x_min":28,"x_max":619,"o":"m 350 0 l 297 0 l 297 0 l 28 0 l 28 53 l 297 53 l 297 897 l 28 897 l 28 950 l 619 950 l 619 897 l 350 897 l 350 53 l 619 53 l 619 0 l 350 0 l 350 0 l 350 0 z "},"J":{"ha":1339,"x_min":28,"x_max":1311,"o":"m 638 53 q 774 81 710 53 q 885 156 838 108 q 961 268 933 204 q 989 406 989 332 l 989 897 l 721 897 l 721 950 l 1311 950 l 1311 897 l 1043 897 l 1043 406 q 1011 247 1043 324 q 924 118 979 174 q 794 32 867 61 q 638 0 722 0 l 433 0 q 275 32 347 0 q 146 118 203 61 q 97 178 118 146 q 60 247 75 211 q 28 406 28 324 l 81 406 q 108 268 81 332 q 184 156 136 204 q 296 81 232 108 q 433 53 360 53 l 638 53 l 638 53 z "},"K":{"ha":1479,"x_min":28,"x_max":1451,"o":"m 1164 897 l 696 638 l 1149 53 l 1451 53 l 1451 0 l 861 0 l 861 53 l 1082 53 l 649 613 l 350 447 l 350 53 l 619 53 l 619 0 l 28 0 l 28 53 l 297 53 l 297 897 l 28 897 l 28 950 l 619 950 l 619 897 l 350 897 l 350 507 l 1054 897 l 861 897 l 861 950 l 1451 950 l 1451 897 l 1164 897 l 1164 897 z "},"L":{"ha":1242,"x_min":28,"x_max":1214,"o":"m 1160 200 l 1214 200 l 1214 0 l 28 0 l 28 53 l 297 53 l 297 897 l 28 897 l 28 950 l 619 950 l 619 897 l 350 897 l 350 53 l 1160 53 l 1160 200 l 1160 200 z "},"M":{"ha":1836,"x_min":28,"x_max":1808,"o":"m 28 53 l 297 53 l 297 897 l 28 897 l 28 951 l 338 950 l 918 63 l 1499 950 l 1808 951 l 1808 897 l 1539 897 l 1539 53 l 1808 53 l 1808 0 l 1217 0 l 1217 53 l 1486 53 l 1486 835 l 940 0 l 896 0 l 350 835 l 350 53 l 619 53 l 619 0 l 28 0 l 28 53 l 28 53 z "},"N":{"ha":1479,"x_min":28,"x_max":1451,"o":"m 28 951 l 336 951 l 1131 94 l 1131 897 l 861 897 l 861 951 l 1451 951 l 1451 897 l 1183 897 l 1183 53 l 1451 53 l 1451 0 l 861 0 l 861 53 l 1096 53 l 350 857 l 350 53 l 619 53 l 619 0 l 28 0 l 28 53 l 297 53 l 297 897 l 28 897 l 28 951 l 28 951 z "},"O":{"ha":1275,"x_min":28,"x_max":1247,"o":"m 275 919 q 433 951 351 951 l 842 951 q 1000 919 924 951 q 1068 882 1036 904 q 1128 832 1100 860 q 1215 703 1183 775 q 1247 546 1247 626 l 1247 406 q 1215 247 1247 324 q 1178 178 1200 211 q 1128 118 1156 146 q 1068 69 1100 90 q 1000 32 1036 47 q 842 0 924 0 l 433 0 q 275 32 351 0 q 146 118 203 63 q 60 247 92 174 q 28 406 28 324 l 28 546 q 60 703 28 626 q 146 832 90 775 q 275 919 201 888 m 1194 546 q 1167 683 1194 618 q 1091 794 1139 747 q 978 869 1043 842 q 842 897 914 897 l 433 897 q 296 869 360 897 q 184 794 232 842 q 108 683 136 747 q 81 546 81 618 l 81 406 q 108 268 81 332 q 184 156 136 204 q 296 81 232 108 q 433 53 360 53 l 842 53 q 978 81 914 53 q 1091 156 1043 108 q 1167 268 1139 204 q 1194 406 1194 332 l 1194 546 z "},"P":{"ha":1211,"x_min":28,"x_max":1183,"o":"m 28 951 l 938 951 q 1032 933 988 951 q 1111 879 1076 914 q 1165 799 1146 844 q 1183 706 1183 754 l 1183 681 q 1165 588 1183 632 q 1111 508 1146 543 q 1032 455 1076 474 q 938 436 988 436 l 350 436 l 350 53 l 619 53 l 619 0 l 28 0 l 28 53 l 297 53 l 297 897 l 28 897 l 28 951 m 1129 706 q 1115 780 1129 744 q 1074 841 1100 815 q 1013 882 1047 867 q 938 897 978 897 l 350 897 l 350 489 l 938 489 q 1013 504 978 489 q 1074 545 1047 519 q 1115 606 1100 571 q 1129 681 1129 640 l 1129 706 z "},"Q":{"ha":1350,"x_min":28,"x_max":1322,"o":"m 275 32 q 146 118 203 63 q 60 247 90 174 q 35 325 43 285 q 28 406 28 365 l 28 546 q 60 703 28 631 q 146 832 89 775 q 275 919 201 888 q 433 951 351 951 l 842 951 q 999 919 922 951 q 1128 832 1071 888 q 1215 703 1183 775 q 1247 546 1247 626 l 1247 406 q 1215 247 1247 324 q 1178 178 1200 211 q 1128 118 1156 146 q 999 32 1071 63 q 844 0 924 0 l 567 -101 q 697 -106 631 -97 q 831 -133 769 -115 q 946 -171 892 -151 q 1047 -203 1001 -190 q 1133 -213 1093 -217 q 1208 -185 1172 -210 q 1279 -107 1243 -161 l 1322 -135 q 1238 -228 1282 -197 q 1138 -264 1193 -260 q 1128 -265 1133 -265 q 1119 -265 1124 -265 q 1028 -252 1075 -265 q 928 -219 981 -239 q 818 -184 876 -201 q 692 -158 760 -167 q 546 -155 624 -150 q 379 -189 468 -160 l 358 -196 l 326 -133 l 692 0 l 433 0 q 275 32 351 0 m 81 406 q 108 268 81 332 q 184 156 136 204 q 296 81 232 108 q 433 53 360 53 l 842 53 q 978 81 914 53 q 1090 156 1043 108 q 1165 268 1138 204 q 1193 406 1193 332 l 1193 546 q 1165 683 1193 618 q 1090 794 1138 747 q 978 869 1043 842 q 842 897 914 897 l 433 897 q 296 869 360 897 q 184 794 232 842 q 108 683 136 747 q 81 546 81 618 l 81 406 z "},"R":{"ha":1397,"x_min":28,"x_max":1369,"o":"m 28 0 l 28 53 l 297 53 l 297 897 l 28 897 l 28 951 l 938 951 q 1031 933 986 951 q 1111 879 1075 914 q 1182 706 1182 808 l 1182 682 q 1111 508 1182 579 q 1031 455 1075 474 q 938 436 986 436 l 833 436 l 1100 53 l 1369 53 l 1369 0 l 779 0 l 779 53 l 1035 53 l 769 436 l 350 436 l 350 53 l 618 53 l 618 0 l 28 0 m 350 897 l 350 490 l 938 490 q 1012 505 976 490 q 1073 546 1047 519 q 1114 607 1099 572 q 1129 682 1129 642 l 1129 706 q 1114 781 1129 746 q 1073 842 1099 815 q 1012 883 1047 868 q 938 897 976 897 l 350 897 z "},"S":{"ha":1144,"x_min":28,"x_max":1117,"o":"m 872 53 q 947 68 911 53 q 1008 109 982 83 q 1049 169 1033 135 q 1064 244 1064 204 l 1064 269 q 1049 344 1064 308 q 1008 405 1033 379 q 947 446 982 431 q 872 461 911 461 l 794 461 l 400 461 l 272 461 q 179 480 224 461 q 100 533 135 499 q 46 613 64 568 q 28 706 28 657 q 46 800 28 756 q 100 879 64 844 q 179 933 135 914 q 272 951 224 951 l 850 951 q 931 934 893 951 q 996 886 968 917 l 996 951 l 1050 951 l 1050 751 l 996 751 q 984 808 996 782 q 953 854 972 835 q 907 885 933 874 q 850 897 881 897 l 272 897 q 197 883 232 897 q 137 842 163 868 q 96 781 111 815 q 81 706 81 746 q 96 631 81 665 q 137 570 111 596 q 197 529 163 544 q 272 514 232 514 l 400 514 l 794 514 l 872 514 q 1044 443 974 514 q 1099 363 1081 408 q 1117 269 1117 318 l 1117 244 q 1099 151 1117 196 q 1044 72 1081 107 q 965 18 1010 36 q 872 0 921 0 l 240 0 q 166 15 200 0 q 106 57 132 31 l 106 0 l 53 0 l 53 188 l 106 188 q 116 135 106 160 q 145 92 126 111 q 188 63 164 74 q 240 53 213 53 l 872 53 l 872 53 z "},"T":{"ha":1239,"x_min":28,"x_max":1211,"o":"m 28 751 l 28 951 l 1211 951 l 1211 751 l 1158 751 l 1158 897 l 646 897 l 646 53 l 915 53 l 915 0 l 324 0 l 324 53 l 593 53 l 593 897 l 81 897 l 81 751 l 28 751 l 28 751 z "},"U":{"ha":1608,"x_min":28,"x_max":1581,"o":"m 329 247 q 297 404 297 319 l 297 897 l 28 897 l 28 950 l 618 950 l 618 897 l 350 897 l 350 404 q 378 267 350 331 q 453 156 406 203 q 565 81 501 108 q 703 53 629 53 l 906 53 q 1042 81 978 53 q 1155 156 1107 108 q 1231 267 1203 203 q 1258 404 1258 331 l 1258 897 l 990 897 l 990 950 l 1581 950 l 1581 897 l 1311 897 l 1311 404 q 1279 247 1311 319 q 1193 118 1250 175 q 1064 31 1136 61 q 906 -1 988 -1 l 703 -1 q 544 31 621 -1 q 415 118 471 61 q 329 247 358 175 z "},"V":{"ha":1639,"x_min":28,"x_max":1611,"o":"m 1021 950 l 1611 950 l 1611 897 l 1318 897 l 844 -1 l 794 -1 l 321 897 l 28 897 l 28 950 l 618 950 l 618 897 l 381 897 l 819 65 l 1258 897 l 1021 897 l 1021 950 l 1021 950 z "},"W":{"ha":2392,"x_min":28,"x_max":2364,"o":"m 2364 897 l 2074 897 l 1660 0 l 1607 0 l 1196 888 l 785 0 l 732 0 l 318 897 l 28 897 l 28 950 l 618 950 l 618 897 l 376 897 l 758 69 l 1142 897 l 900 897 l 900 950 l 1490 950 l 1490 897 l 1250 897 l 1633 69 l 2015 897 l 1774 897 l 1774 950 l 2364 950 l 2364 897 l 2364 897 z "},"X":{"ha":1394,"x_min":28,"x_max":1367,"o":"m 1367 54 l 1367 0 l 776 0 l 776 54 l 1069 54 l 697 438 l 325 53 l 618 53 l 618 0 l 28 0 l 28 53 l 251 53 l 661 475 l 251 897 l 28 897 l 28 951 l 618 951 l 618 897 l 325 897 l 697 514 l 1069 897 l 776 897 l 776 950 l 1367 950 l 1367 897 l 1143 897 l 735 475 l 1143 54 l 1367 54 l 1367 54 z "},"Y":{"ha":1639,"x_min":28,"x_max":1611,"o":"m 1611 950 l 1611 896 l 1301 896 l 846 425 l 846 53 l 1115 53 l 1115 0 l 524 0 l 524 53 l 793 53 l 793 425 l 338 896 l 28 896 l 28 950 l 618 950 l 618 896 l 411 896 l 819 474 l 1228 896 l 1021 896 l 1021 950 l 1611 950 l 1611 950 z "},"Z":{"ha":1175,"x_min":28,"x_max":1147,"o":"m 119 950 l 1147 950 l 164 54 l 1053 54 l 1053 200 l 1106 200 l 1106 0 l 28 0 l 1011 897 l 172 897 l 172 750 l 119 750 l 119 950 l 119 950 z "},"a":{"ha":1186,"x_min":28,"x_max":1158,"o":"m 971 0 l 971 150 q 928 96 951 119 q 822 25 879 50 q 693 0 761 0 l 285 0 q 103 75 178 0 q 28 257 28 150 q 103 438 28 363 q 285 513 178 513 l 963 513 q 926 597 951 558 q 865 663 900 635 q 785 708 829 692 q 692 724 740 724 l 311 724 q 209 705 258 724 q 121 650 160 686 l 85 689 q 311 776 181 776 l 692 776 q 821 750 760 776 q 926 679 881 725 q 999 574 974 632 q 1018 510 1011 542 q 1025 443 1025 478 l 1025 438 l 1025 331 l 1025 54 l 1158 54 l 1158 0 l 971 0 m 693 53 q 802 75 751 53 q 890 135 853 97 q 949 223 928 172 q 971 331 971 274 l 971 438 l 971 443 l 971 460 l 285 460 q 206 444 243 460 q 140 400 168 428 q 97 335 113 372 q 81 257 81 299 q 97 178 81 215 q 140 113 113 140 q 206 69 168 85 q 285 53 243 53 l 693 53 z "},"b":{"ha":1189,"x_min":28,"x_max":1161,"o":"m 163 924 l 28 924 l 28 976 l 215 976 l 215 621 q 237 651 225 636 q 261 679 249 665 q 368 750 307 725 q 431 770 399 764 q 497 776 464 776 l 828 776 q 894 770 861 776 q 957 750 926 764 q 1064 679 1018 725 q 1135 574 1108 635 q 1161 443 1161 513 l 1158 332 q 1132 203 1158 264 q 1061 97 1106 142 q 956 26 1017 53 q 825 0 894 0 l 494 0 q 365 26 426 0 q 260 97 304 53 q 236 124 247 110 q 215 153 225 138 l 215 0 l 163 0 l 163 924 m 215 332 q 238 223 215 274 q 297 135 260 172 q 385 75 335 97 q 494 53 436 53 l 825 53 q 935 75 883 53 q 1024 135 986 97 q 1083 224 1061 172 q 1106 333 1106 275 l 1108 444 q 1086 553 1108 503 q 1026 642 1064 604 q 937 701 988 679 q 828 724 886 724 l 497 724 q 388 701 439 724 q 299 642 338 679 q 239 553 261 604 q 217 443 217 501 l 215 332 z "},"c":{"ha":911,"x_min":28,"x_max":883,"o":"m 361 724 q 252 701 303 724 q 163 641 201 679 q 103 552 125 603 q 81 443 81 501 l 81 332 q 103 223 81 274 q 163 135 125 172 q 252 75 201 97 q 361 53 303 53 l 857 53 l 857 -1 l 361 -1 q 232 25 296 -1 q 125 97 172 50 q 54 203 79 143 q 28 332 28 264 l 28 443 q 34 509 28 476 q 54 572 40 542 q 125 679 79 633 q 232 750 171 725 q 295 770 263 764 q 361 776 328 776 l 732 776 q 785 767 760 776 q 831 740 811 757 l 831 776 l 883 776 l 883 625 l 831 625 q 801 694 831 665 q 732 724 772 724 l 361 724 l 361 724 z "},"d":{"ha":1189,"x_min":28,"x_max":1161,"o":"m 974 0 l 974 156 q 952 126 964 140 q 926 97 940 111 q 821 26 881 51 q 758 6 790 13 q 692 0 725 0 l 361 0 q 231 26 292 0 q 125 97 169 53 q 54 203 81 142 q 28 333 28 264 l 31 444 q 56 574 31 511 q 128 679 81 632 q 233 750 174 725 q 363 776 294 776 l 693 776 q 824 750 763 776 q 929 679 885 724 q 953 653 942 667 q 974 624 964 639 l 974 976 l 1161 976 l 1161 924 l 1026 924 l 1026 53 l 1161 53 l 1161 0 l 974 0 m 974 444 q 951 553 974 503 q 892 642 929 604 q 803 701 854 679 q 693 724 751 724 l 363 724 q 253 701 304 724 q 165 642 203 679 q 106 553 128 604 q 83 443 83 501 l 81 332 q 103 223 81 274 q 163 135 125 172 q 252 75 201 97 q 361 53 303 53 l 692 53 q 801 75 750 53 q 890 135 851 97 q 950 224 928 172 q 972 333 972 275 l 974 444 z "},"e":{"ha":942,"x_min":28,"x_max":914,"o":"m 857 0 l 361 0 q 295 6 328 0 q 232 26 263 13 q 125 97 174 50 q 54 203 81 142 q 28 333 28 268 l 28 443 q 35 510 28 478 q 54 574 42 542 q 125 679 81 635 q 232 750 174 726 q 295 770 263 764 q 361 776 328 776 l 569 776 q 863 650 778 776 q 906 541 897 597 q 914 444 914 485 l 914 361 l 81 361 l 81 333 q 103 224 81 275 q 163 135 125 172 q 252 75 201 97 q 361 53 303 53 l 857 53 l 857 0 m 81 415 l 860 415 l 860 444 q 853 528 860 481 q 818 621 846 576 q 569 724 749 724 l 361 724 q 252 701 303 724 q 163 642 201 679 q 103 553 125 604 q 81 443 81 501 l 81 415 z "},"f":{"ha":556,"x_min":28,"x_max":528,"o":"m 210 724 l 210 53 l 339 53 l 339 0 l 28 0 l 28 53 l 156 53 l 156 724 l 28 724 l 28 776 l 156 776 l 156 829 q 167 887 156 860 q 199 933 179 914 q 247 965 219 953 q 304 976 274 976 l 528 976 l 528 924 l 304 924 q 237 896 264 924 q 210 829 210 868 l 210 776 l 528 776 l 528 724 l 210 724 z "},"g":{"ha":985,"x_min":28,"x_max":957,"o":"m 679 -408 q 767 -390 726 -408 q 839 -342 808 -372 q 887 -270 869 -311 q 904 -183 904 -229 l 904 156 q 883 126 894 140 q 858 97 871 111 q 751 26 813 51 q 688 6 721 13 q 622 0 656 0 l 361 0 q 232 26 293 0 q 126 97 172 51 q 54 203 79 144 q 28 333 28 268 l 31 444 q 57 574 31 513 q 128 679 83 635 q 235 750 174 725 q 298 770 265 764 q 364 776 331 776 l 625 776 q 754 750 693 776 q 860 679 815 724 q 883 653 872 667 q 904 624 894 639 l 904 776 l 957 776 l 957 -183 q 937 -290 957 -239 q 876 -381 917 -340 q 786 -440 836 -419 q 679 -461 736 -461 l 307 -461 q 200 -440 250 -461 q 110 -381 150 -419 q 49 -290 69 -340 q 28 -183 28 -239 l 82 -183 q 99 -270 82 -229 q 147 -342 117 -311 q 219 -390 178 -372 q 307 -408 260 -408 l 679 -408 m 904 444 q 882 553 904 503 q 822 642 860 604 q 734 701 785 679 q 625 724 683 724 l 364 724 q 255 701 306 724 q 166 642 204 679 q 106 553 128 604 q 83 443 83 501 l 82 332 q 104 223 82 274 q 164 135 126 172 q 252 75 201 97 q 361 53 303 53 l 622 53 q 731 75 681 53 q 820 135 782 97 q 881 224 858 172 q 903 333 903 275 l 904 444 z "},"h":{"ha":1313,"x_min":28,"x_max":1285,"o":"m 1103 53 l 1103 444 q 1081 553 1103 503 q 1021 642 1058 604 q 933 701 983 679 q 824 724 882 724 l 493 724 q 384 701 435 724 q 295 642 333 679 q 235 553 257 604 q 213 444 213 503 l 210 444 l 210 53 l 339 53 l 339 0 l 28 0 l 28 53 l 157 53 l 157 924 l 28 924 l 28 976 l 210 976 l 210 621 q 257 679 232 654 q 307 720 281 703 q 363 751 333 738 q 493 776 425 776 l 824 776 q 953 751 892 776 q 1058 679 1013 724 q 1131 574 1106 632 q 1150 510 1143 542 q 1157 444 1157 478 l 1157 53 l 1285 53 l 1285 0 l 975 0 l 975 53 l 1103 53 z "},"i":{"ha":367,"x_min":28,"x_max":339,"o":"m 339 53 l 339 0 l 28 0 l 28 53 l 157 53 l 157 724 l 28 724 l 28 776 l 210 776 l 210 53 l 339 53 m 160 893 q 121 908 136 893 q 106 947 106 924 q 121 985 106 969 q 160 1000 136 1000 q 197 985 182 1000 q 213 947 213 969 q 197 908 213 924 q 160 893 182 893 z "},"j":{"ha":235,"x_min":-722,"x_max":207,"o":"m 207 776 l 207 -210 q 187 -317 207 -267 q 126 -407 167 -367 q 36 -467 86 -447 q -71 -487 -14 -487 l -443 -487 q -550 -467 -500 -487 q -640 -407 -600 -447 q -722 -210 -722 -325 l -668 -210 q -651 -297 -668 -256 q -603 -368 -633 -337 q -531 -417 -572 -399 q -443 -435 -490 -435 l -71 -435 q 17 -417 -24 -435 q 89 -368 58 -399 q 137 -297 119 -337 q 154 -210 154 -256 l 154 724 l 25 724 l 25 776 l 207 776 m 147 893 q 108 908 124 893 q 93 947 93 924 q 108 985 93 969 q 147 1000 124 1000 q 185 985 169 1000 q 200 947 200 969 q 185 908 200 924 q 147 893 169 893 z "},"k":{"ha":1064,"x_min":28,"x_max":1036,"o":"m 725 0 l 725 53 l 828 53 l 276 485 l 210 457 l 210 53 l 339 53 l 339 0 l 28 0 l 28 53 l 157 53 l 157 924 l 28 924 l 28 976 l 210 976 l 210 515 l 714 724 l 656 724 l 656 776 l 965 776 l 965 724 l 853 724 l 333 508 l 913 53 l 1036 53 l 1036 0 l 725 0 l 725 0 z "},"l":{"ha":367,"x_min":28,"x_max":339,"o":"m 339 0 l 28 0 l 28 53 l 157 53 l 157 924 l 28 924 l 28 976 l 210 976 l 210 53 l 339 53 l 339 0 l 339 0 z "},"m":{"ha":1856,"x_min":28,"x_max":1828,"o":"m 1646 53 l 1646 444 q 1624 553 1646 503 q 1564 642 1601 604 q 1475 701 1526 679 q 1365 724 1424 724 l 1236 724 q 1126 701 1178 724 q 1038 642 1075 679 q 978 553 1000 604 q 956 444 956 503 l 956 53 l 1085 53 l 1085 0 l 774 0 l 774 53 l 903 53 l 903 444 q 881 553 903 503 q 820 642 858 604 q 731 701 782 679 q 622 724 681 724 l 492 724 q 383 701 433 724 q 294 642 332 679 q 233 553 256 604 q 211 444 211 503 l 210 444 l 210 53 l 339 53 l 339 0 l 28 0 l 28 53 l 157 53 l 157 724 l 28 724 l 28 776 l 210 776 l 210 621 q 231 651 219 636 q 256 679 243 665 q 363 751 303 725 q 492 776 422 776 l 622 776 q 751 751 690 776 q 858 679 814 724 q 899 630 881 656 q 929 574 917 604 q 1000 679 954 633 q 1050 720 1024 703 q 1106 751 1076 738 q 1236 776 1168 776 l 1365 776 q 1496 751 1433 776 q 1551 720 1525 738 q 1601 679 1578 703 q 1672 574 1646 635 q 1699 444 1699 513 l 1699 53 l 1828 53 l 1828 0 l 1517 0 l 1517 53 l 1646 53 z "},"n":{"ha":1313,"x_min":28,"x_max":1285,"o":"m 1103 53 l 1103 444 q 1081 553 1103 503 q 1021 642 1058 604 q 933 701 983 679 q 824 724 882 724 l 493 724 q 384 701 435 724 q 295 642 333 679 q 235 553 257 604 q 213 444 213 503 l 210 444 l 210 53 l 339 53 l 339 0 l 28 0 l 28 53 l 157 53 l 157 724 l 28 724 l 28 776 l 210 776 l 210 621 q 257 679 232 654 q 307 720 281 703 q 363 751 333 738 q 493 776 425 776 l 824 776 q 953 751 892 776 q 1058 679 1013 724 q 1131 574 1106 632 q 1150 510 1143 542 q 1157 444 1157 478 l 1157 53 l 1285 53 l 1285 0 l 975 0 l 975 53 l 1103 53 z "},"o":{"ha":1056,"x_min":28,"x_max":1028,"o":"m 361 0 q 295 6 328 0 q 232 26 263 13 q 126 97 172 51 q 85 147 103 121 q 54 203 67 174 q 28 333 28 268 l 31 444 q 57 574 31 513 q 128 679 83 635 q 233 750 172 724 q 364 776 294 776 l 694 776 q 760 770 728 776 q 824 750 793 764 q 929 679 883 725 q 1001 574 976 632 q 1021 510 1014 542 q 1028 443 1028 478 l 1025 332 q 999 203 1025 264 q 928 97 972 142 q 822 26 883 53 q 692 0 761 0 l 361 0 m 81 332 q 103 223 81 274 q 163 135 125 172 q 252 75 201 97 q 361 53 303 53 l 692 53 q 801 75 750 53 q 890 135 851 97 q 950 224 928 172 q 972 333 972 275 l 974 444 q 951 553 974 503 q 892 642 929 604 q 803 701 854 679 q 694 724 753 724 l 364 724 q 255 701 306 724 q 166 642 204 679 q 106 553 128 604 q 83 443 83 501 l 81 332 z "},"p":{"ha":1189,"x_min":28,"x_max":1161,"o":"m 260 97 q 236 124 247 110 q 215 153 225 138 l 215 -435 l 344 -435 l 344 -487 l 33 -487 l 33 -435 l 163 -435 l 163 722 l 28 722 l 28 775 l 215 775 l 215 621 q 237 651 225 636 q 261 679 249 665 q 368 751 306 724 q 497 776 428 776 l 828 776 q 957 751 896 776 q 1064 679 1019 724 q 1135 574 1108 635 q 1161 444 1161 513 l 1161 443 l 1158 333 q 1132 203 1158 264 q 1061 97 1106 142 q 956 26 1017 53 q 825 0 894 0 l 494 0 q 365 26 426 0 q 260 97 304 53 m 215 332 q 238 223 215 274 q 297 135 260 172 q 385 75 335 97 q 494 53 436 53 l 825 53 q 935 75 883 53 q 1024 135 986 97 q 1083 224 1061 172 q 1106 333 1106 275 l 1108 444 q 1086 553 1108 503 q 1026 642 1064 604 q 937 701 988 679 q 828 724 886 724 l 497 724 q 388 701 439 724 q 299 642 338 679 q 239 553 261 604 q 217 444 217 503 l 217 443 l 215 332 z "},"q":{"ha":1186,"x_min":28,"x_max":1158,"o":"m 976 -435 l 976 160 q 926 97 956 126 q 821 26 881 51 q 758 6 790 13 q 692 0 725 0 l 361 0 q 231 26 292 0 q 125 97 169 53 q 54 203 81 142 q 28 333 28 264 l 31 444 q 56 574 31 511 q 128 679 81 632 q 233 751 172 724 q 363 776 296 776 l 693 776 q 824 751 761 776 q 879 720 853 738 q 929 679 906 703 q 976 619 956 653 l 976 749 l 1029 749 l 1029 -435 l 1158 -435 l 1158 -487 l 847 -487 l 847 -435 l 976 -435 m 974 444 q 951 553 974 503 q 892 642 929 604 q 803 701 854 679 q 693 724 751 724 l 363 724 q 253 701 304 724 q 165 642 203 679 q 106 553 128 604 q 83 444 83 503 l 83 443 l 81 332 q 103 223 81 274 q 163 135 125 172 q 252 75 201 97 q 361 53 303 53 l 692 53 q 801 75 750 53 q 889 135 851 97 q 949 224 926 172 q 971 333 971 275 l 974 444 z "},"r":{"ha":744,"x_min":28,"x_max":717,"o":"m 210 444 l 210 53 l 339 53 l 339 0 l 28 0 l 28 53 l 157 53 l 157 724 l 28 724 l 28 776 l 210 776 l 210 621 q 257 679 232 654 q 363 751 301 724 q 492 776 425 776 l 717 776 l 717 724 l 492 724 q 383 701 433 724 q 294 642 332 679 q 235 553 257 604 q 213 444 213 503 l 210 444 z "},"s":{"ha":947,"x_min":28,"x_max":919,"o":"m 717 47 q 775 59 747 47 q 823 92 803 71 q 855 140 843 113 q 867 199 867 167 l 867 218 q 855 276 867 249 q 823 324 843 304 q 775 356 803 344 q 717 368 747 368 l 231 368 q 151 384 189 368 q 87 428 114 400 q 44 493 60 456 q 28 572 28 531 q 44 651 28 614 q 87 716 60 689 q 151 759 114 743 q 231 775 189 775 l 681 775 q 743 763 714 775 q 794 731 772 751 l 794 771 l 847 771 l 847 608 l 794 608 q 761 689 794 656 q 681 722 728 722 l 231 722 q 172 710 199 722 q 124 678 144 699 q 92 631 104 658 q 81 572 81 603 q 92 513 81 540 q 124 466 104 486 q 172 434 144 446 q 231 422 199 422 l 717 422 q 796 406 758 422 q 860 363 833 390 q 903 297 888 335 q 919 218 919 260 l 919 199 q 903 119 919 157 q 860 54 888 82 q 796 10 833 26 q 717 -6 758 -6 l 204 -6 q 100 35 144 -6 l 100 0 l 47 0 l 47 151 l 100 151 q 131 78 100 108 q 204 47 161 47 l 717 47 l 717 47 z "},"t":{"ha":669,"x_min":28,"x_max":642,"o":"m 210 724 l 210 147 q 237 81 210 108 q 304 53 264 53 l 642 53 l 642 0 l 304 0 q 247 12 274 0 q 199 44 219 24 q 167 90 179 64 q 156 147 156 117 l 156 724 l 28 724 l 28 776 l 156 776 l 156 978 l 210 978 l 210 776 l 642 776 l 642 724 l 210 724 z "},"u":{"ha":1313,"x_min":28,"x_max":1285,"o":"m 1157 776 l 1157 53 l 1285 53 l 1285 0 l 1103 0 l 1103 156 q 1057 97 1083 124 q 951 26 1013 53 q 821 0 890 0 l 490 0 q 424 6 457 0 q 361 26 392 13 q 256 97 301 51 q 183 203 208 144 q 157 333 157 268 l 157 724 l 28 724 l 28 776 l 210 776 l 210 333 q 232 224 210 275 q 292 135 254 172 q 381 75 331 97 q 490 53 432 53 l 821 53 q 930 75 879 53 q 1019 135 981 97 q 1079 224 1057 172 q 1101 333 1101 275 l 1103 333 l 1103 724 l 975 724 l 975 776 l 1157 776 z "},"v":{"ha":1253,"x_min":28,"x_max":1225,"o":"m 601 0 l 168 724 l 28 724 l 28 776 l 339 776 l 339 724 l 229 724 l 625 65 l 1019 724 l 914 724 l 914 776 l 1225 776 l 1225 724 l 1081 724 l 647 0 l 601 0 l 601 0 z "},"w":{"ha":1839,"x_min":28,"x_max":1811,"o":"m 1500 724 l 1500 776 l 1811 776 l 1811 724 l 1668 724 l 1314 0 l 1267 0 l 918 682 l 568 0 l 521 0 l 167 724 l 28 724 l 28 776 l 339 776 l 339 724 l 225 724 l 544 72 l 892 750 l 943 750 l 1290 72 l 1610 724 l 1500 724 l 1500 724 z "},"x":{"ha":1142,"x_min":28,"x_max":1114,"o":"m 1114 0 l 803 0 l 803 53 l 901 53 l 561 367 l 236 53 l 339 53 l 339 0 l 28 0 l 28 53 l 160 53 l 521 403 l 172 724 l 28 724 l 28 776 l 339 776 l 339 724 l 251 724 l 560 440 l 853 724 l 763 724 l 763 776 l 1074 776 l 1074 724 l 929 724 l 599 404 l 981 53 l 1114 53 l 1114 0 l 1114 0 z "},"y":{"ha":1253,"x_min":28,"x_max":1225,"o":"m 179 -435 q 318 -398 254 -435 q 419 -297 382 -361 l 593 -1 l 168 724 l 28 724 l 28 776 l 339 776 l 339 724 l 229 724 l 625 51 l 1019 724 l 914 724 l 914 776 l 1225 776 l 1225 724 l 1081 724 l 465 -325 q 412 -392 443 -362 q 343 -444 381 -422 q 179 -489 267 -489 l 101 -489 l 101 -435 l 179 -435 l 179 -435 z "},"z":{"ha":989,"x_min":28,"x_max":961,"o":"m 111 778 l 961 778 l 165 53 l 865 53 l 865 167 l 918 167 l 918 0 l 28 0 l 824 725 l 164 725 l 164 611 l 111 611 l 111 778 l 111 778 z "},"!":{"ha":135,"x_min":28,"x_max":107,"o":"m 93 139 l 40 139 l 40 951 l 93 951 l 93 139 m 67 -4 q 39 8 50 -4 q 28 35 28 19 q 39 63 28 51 q 67 75 50 75 q 95 63 83 75 q 107 35 107 51 q 95 8 107 19 q 67 -4 83 -4 z "},"\"":{"ha":219,"x_min":28,"x_max":192,"o":"m 39 749 l 28 944 l 100 944 l 86 749 l 39 749 m 119 944 l 192 944 l 178 749 l 132 749 l 119 944 z "},"#":{"ha":1028,"x_min":28,"x_max":1000,"o":"m 868 947 l 836 703 l 1000 703 l 1000 649 l 831 649 l 788 314 l 960 314 l 960 261 l 781 261 l 747 -1 l 694 4 l 728 261 l 243 261 l 210 -1 l 158 4 l 190 261 l 28 261 l 28 314 l 197 314 l 239 649 l 68 649 l 68 703 l 246 703 l 278 954 l 331 947 l 300 703 l 783 703 l 815 954 l 868 947 m 735 314 l 776 649 l 293 649 l 250 314 l 735 314 z "},"$":{"ha":1144,"x_min":28,"x_max":1117,"o":"m 272 461 q 100 532 171 461 q 28 706 28 604 q 100 879 28 807 q 272 950 171 950 l 408 950 l 408 1040 l 463 1040 l 463 950 l 690 950 l 690 1040 l 743 1040 l 743 950 l 850 950 q 931 933 893 950 q 996 886 968 915 l 996 951 l 1050 951 l 1050 750 l 996 750 q 984 808 996 781 q 953 854 972 835 q 907 885 933 874 q 850 897 881 897 l 743 897 l 743 514 l 794 514 l 872 514 q 965 496 921 514 q 1044 442 1010 478 q 1099 363 1081 407 q 1117 269 1117 318 l 1117 244 q 1044 71 1117 143 q 872 0 974 0 l 743 0 l 743 -101 l 690 -101 l 690 0 l 463 0 l 463 -101 l 408 -101 l 408 0 l 240 0 q 106 57 160 0 l 106 0 l 53 0 l 53 188 l 106 188 q 116 135 106 160 q 145 92 126 110 q 188 63 164 74 q 240 53 213 53 l 408 53 l 408 461 l 400 461 l 272 461 m 690 53 l 690 461 l 463 461 l 463 53 l 690 53 m 1064 269 q 1049 344 1064 308 q 1008 405 1033 379 q 947 446 982 431 q 872 461 911 461 l 743 461 l 743 53 l 872 53 q 947 68 911 53 q 1008 109 982 83 q 1049 169 1033 135 q 1064 244 1064 204 l 1064 269 m 463 897 l 463 514 l 690 514 l 690 897 l 463 897 m 272 897 q 197 882 232 897 q 137 841 163 867 q 96 780 111 815 q 81 706 81 744 q 96 631 81 665 q 137 570 111 596 q 197 529 163 544 q 272 514 232 514 l 408 514 l 408 897 l 272 897 z "},"%":{"ha":1178,"x_min":28,"x_max":1150,"o":"m 224 596 q 164 608 192 596 q 115 640 136 619 q 83 689 94 661 q 71 749 71 717 l 71 796 q 83 856 71 828 q 115 904 94 883 q 164 937 136 925 q 224 949 192 949 l 335 949 q 393 937 365 949 q 442 904 421 925 q 475 856 463 883 q 488 796 488 828 l 488 749 q 475 689 488 717 q 442 640 463 661 q 393 608 421 619 q 335 596 365 596 l 224 596 m 124 749 q 153 678 124 707 q 224 649 183 649 l 335 649 q 405 678 375 649 q 435 749 435 707 l 435 796 q 405 867 435 838 q 335 896 375 896 l 224 896 q 153 867 183 896 q 124 796 124 838 l 124 749 m 997 356 q 1056 343 1028 356 q 1104 310 1083 331 q 1138 261 1125 289 q 1150 201 1150 233 l 1150 156 q 1138 96 1150 124 q 1104 47 1125 68 q 1056 14 1083 26 q 997 1 1028 1 l 886 1 q 826 14 854 1 q 778 47 799 26 q 745 96 757 68 q 733 156 733 124 l 733 201 q 745 261 733 233 q 778 310 757 289 q 826 343 799 331 q 886 356 854 356 l 997 356 m 1097 201 q 1067 273 1097 243 q 997 303 1038 303 l 886 303 q 816 273 846 303 q 786 201 786 243 l 786 156 q 816 84 786 114 q 886 54 846 54 l 997 54 q 1067 84 1038 54 q 1097 156 1097 114 l 1097 201 m 1104 932 l 64 -18 l 28 21 l 1068 971 l 1104 932 z "},"&":{"ha":1028,"x_min":28,"x_max":1000,"o":"m 860 515 l 1000 515 l 1000 463 l 860 463 l 860 1 l 274 1 q 179 19 224 1 q 100 74 135 38 q 47 153 65 108 q 28 246 28 197 l 28 271 q 47 365 28 319 q 100 444 65 410 q 204 506 144 489 q 169 535 188 517 q 99 707 99 606 q 169 881 99 810 q 250 934 206 915 q 343 953 294 953 l 832 953 l 832 899 l 343 899 q 268 884 303 899 q 208 843 233 869 q 167 782 182 817 q 151 707 151 747 q 167 632 151 667 q 208 572 182 597 q 268 531 233 546 q 343 515 303 515 l 768 515 l 806 515 l 806 622 l 860 622 l 860 515 m 806 463 l 768 463 l 343 463 l 274 463 q 199 447 233 463 q 138 406 164 432 q 97 345 111 381 q 82 271 82 310 l 82 246 q 97 171 82 206 q 138 110 111 136 q 199 69 164 85 q 274 54 233 54 l 806 54 l 806 463 z "},"(":{"ha":431,"x_min":28,"x_max":403,"o":"m 131 1032 q 249 1119 183 1090 q 324 1144 285 1136 q 403 1151 363 1151 l 403 1099 q 274 1072 333 1099 q 172 999 215 1046 q 105 887 129 951 q 81 746 81 822 l 81 153 q 105 12 81 76 q 172 -100 129 -53 q 274 -174 215 -147 q 403 -200 333 -200 l 403 -253 q 249 -221 321 -253 q 131 -132 179 -187 q 54 -3 81 -76 q 28 153 28 69 l 28 746 q 54 903 28 829 q 131 1032 81 976 z "},"'":{"ha":128,"x_min":28,"x_max":100,"o":"m 86 751 l 39 751 l 28 947 l 100 947 l 86 751 l 86 751 z "},")":{"ha":431,"x_min":28,"x_max":403,"o":"m 181 1118 q 245 1081 215 1103 q 300 1031 275 1058 q 376 901 350 975 q 403 744 403 828 l 403 151 q 376 -5 403 68 q 300 -133 350 -78 q 181 -222 251 -190 q 28 -254 108 -254 l 28 -201 q 156 -175 97 -201 q 258 -101 215 -149 q 326 10 301 -54 q 350 151 350 75 l 350 744 q 326 885 350 821 q 258 997 301 950 q 156 1071 215 1044 q 28 1097 97 1097 l 28 1150 q 181 1118 113 1150 z "},"*":{"ha":328,"x_min":28,"x_max":300,"o":"m 283 881 l 300 835 l 204 800 l 278 711 l 239 679 l 164 772 l 90 681 l 53 710 l 122 800 l 28 835 l 44 881 l 139 846 l 139 949 l 188 949 l 188 846 l 283 881 l 283 881 z "},",":{"ha":164,"x_min":28,"x_max":136,"o":"m 82 -6 q 43 10 58 -6 q 28 49 28 25 q 44 86 28 71 q 82 101 60 101 q 120 86 104 101 q 136 49 136 71 q 124 -4 136 15 q 97 -33 113 -24 q 58 -49 81 -46 q 74 -28 69 -39 q 82 -6 79 -17 z "},"+":{"ha":728,"x_min":28,"x_max":700,"o":"m 390 825 l 390 515 l 700 515 l 700 463 l 390 463 l 390 154 l 338 154 l 338 463 l 28 463 l 28 515 l 338 515 l 338 825 l 390 825 l 390 825 z "},"-":{"ha":728,"x_min":28,"x_max":700,"o":"m 700 517 l 700 463 l 28 463 l 28 517 l 700 517 l 700 517 z "},".":{"ha":164,"x_min":28,"x_max":136,"o":"m 82 -6 q 44 10 60 -6 q 28 49 28 25 q 44 86 28 71 q 82 101 60 101 q 120 86 104 101 q 136 49 136 71 q 120 10 136 25 q 82 -6 104 -6 z "},"/":{"ha":600,"x_min":28,"x_max":572,"o":"m 28 21 l 525 971 l 572 947 l 74 -3 l 28 21 l 28 21 z "},":":{"ha":135,"x_min":28,"x_max":107,"o":"m 68 711 q 40 723 51 711 q 28 750 28 735 q 40 778 28 767 q 68 790 51 790 q 96 778 85 790 q 107 750 107 767 q 96 723 107 735 q 68 711 85 711 m 68 336 q 96 324 85 336 q 107 296 107 313 q 96 269 107 281 q 68 257 85 257 q 40 269 51 257 q 28 296 28 281 q 40 324 28 313 q 68 336 51 336 z "},";":{"ha":135,"x_min":28,"x_max":107,"o":"m 68 711 q 40 723 51 711 q 28 750 28 735 q 40 778 28 767 q 68 790 51 790 q 96 778 85 790 q 107 750 107 767 q 96 723 107 735 q 68 711 85 711 m 68 336 q 96 324 85 336 q 107 296 107 313 q 99 258 107 272 q 79 236 90 243 q 51 225 67 228 q 62 240 58 232 q 68 257 65 249 q 40 269 51 257 q 28 296 28 281 q 40 324 28 313 q 68 336 51 336 z "},"<":{"ha":856,"x_min":28,"x_max":828,"o":"m 28 464 l 28 515 l 811 775 l 828 725 l 122 490 l 826 267 l 811 217 l 28 464 l 28 464 z "},"=":{"ha":694,"x_min":28,"x_max":667,"o":"m 28 603 l 667 603 l 667 550 l 28 550 l 28 603 m 28 376 l 28 429 l 667 429 l 667 376 l 28 376 z "},">":{"ha":856,"x_min":28,"x_max":828,"o":"m 28 267 l 733 490 l 28 725 l 44 775 l 828 515 l 826 464 l 44 217 l 28 267 l 28 267 z "},"?":{"ha":897,"x_min":28,"x_max":869,"o":"m 797 881 q 851 800 832 844 q 869 707 869 756 q 786 508 869 567 q 705 476 750 485 q 614 461 660 467 q 521 447 567 456 q 440 411 475 438 q 364 188 364 351 l 364 139 l 310 139 l 310 188 q 336 354 310 289 q 408 453 361 415 q 503 497 451 486 q 607 514 554 507 q 690 526 651 519 q 757 553 728 533 q 777 569 767 558 q 796 598 788 581 q 810 642 804 615 q 815 707 815 669 q 801 781 815 746 q 760 842 786 817 q 699 883 733 868 q 624 899 664 899 l 228 899 q 171 887 197 899 q 124 856 144 875 q 92 809 104 836 q 81 751 81 782 l 28 751 q 44 829 28 793 q 87 892 60 865 q 150 935 114 919 q 228 951 186 951 l 624 951 q 797 881 726 951 m 338 75 q 365 63 353 75 q 376 36 376 51 q 365 8 376 19 q 338 -4 353 -4 q 309 8 321 -4 q 297 36 297 19 q 309 63 297 51 q 338 75 321 75 z "},"_":{"ha":664,"x_min":28,"x_max":636,"o":"m 28 3 l 28 56 l 636 56 l 636 3 l 28 3 l 28 3 z "},"^":{"ha":283,"x_min":28,"x_max":256,"o":"m 165 947 l 256 742 l 207 721 l 142 871 l 76 721 l 28 742 l 117 947 l 165 947 z "},"]":{"ha":361,"x_min":28,"x_max":333,"o":"m 28 1151 l 333 1151 l 333 -253 l 28 -253 l 28 -200 l 281 -200 l 281 1099 l 28 1099 l 28 1151 z "},"\\":{"ha":600,"x_min":28,"x_max":572,"o":"m 572 15 l 525 -10 l 28 940 l 74 965 l 572 15 l 572 15 z "},"[":{"ha":361,"x_min":28,"x_max":333,"o":"m 28 1147 l 333 1147 l 333 1094 l 81 1094 l 81 -204 l 333 -204 l 333 -257 l 28 -257 l 28 1147 z "},"{":{"ha":381,"x_min":28,"x_max":353,"o":"m 190 -185 q 221 -196 203 -194 q 258 -197 239 -197 l 353 -197 l 353 -250 l 258 -250 q 209 -247 235 -250 q 160 -228 183 -244 q 107 -89 107 -190 q 115 -8 107 -51 q 132 85 122 36 q 148 172 140 128 q 158 258 156 217 q 154 333 160 299 q 131 389 149 367 q 28 426 99 426 l 28 479 q 131 517 99 479 q 154 573 149 539 q 158 647 160 607 q 148 733 156 688 q 132 821 140 778 q 115 913 122 869 q 107 993 107 957 q 160 1133 107 1096 q 209 1151 183 1149 q 258 1154 235 1154 l 353 1154 l 353 1101 l 258 1101 q 221 1100 239 1101 q 190 1090 203 1099 q 161 993 161 1069 q 168 919 161 961 q 183 831 175 876 q 201 735 193 783 q 211 643 208 688 q 172 482 215 535 q 156 467 165 474 q 138 453 147 460 q 156 439 147 446 q 172 422 165 432 q 211 263 215 369 q 201 170 208 218 q 183 75 193 122 q 168 -13 175 29 q 161 -89 161 -56 q 190 -185 161 -164 z "},"|":{"ha":108,"x_min":28,"x_max":81,"o":"m 28 1210 l 81 1210 l 81 -329 l 28 -329 l 28 1210 z "},"}":{"ha":381,"x_min":28,"x_max":353,"o":"m 250 514 q 353 476 281 476 l 353 424 q 250 386 281 424 q 226 330 232 364 q 223 255 221 296 q 233 169 225 214 q 249 82 240 125 q 265 -10 258 33 q 272 -92 272 -54 q 221 -231 272 -193 q 172 -250 197 -247 q 122 -253 146 -253 l 28 -253 l 28 -200 l 122 -200 q 160 -199 142 -200 q 190 -187 178 -197 q 219 -92 219 -167 q 213 -16 219 -58 q 197 72 206 26 q 180 167 188 119 q 169 260 172 215 q 208 419 165 367 q 224 436 215 429 q 243 450 233 443 q 224 464 233 457 q 208 479 215 471 q 169 640 165 532 q 180 733 172 685 q 197 828 188 781 q 213 916 206 874 q 219 990 219 958 q 190 1088 219 1067 q 160 1097 178 1096 q 122 1099 142 1099 l 28 1099 l 28 1151 l 122 1151 q 172 1149 146 1151 q 221 1131 197 1146 q 272 990 272 1093 q 265 910 272 954 q 249 818 258 867 q 233 730 240 775 q 223 644 225 685 q 226 570 221 604 q 250 514 232 536 z "},"~":{"ha":525,"x_min":28,"x_max":497,"o":"m 238 467 q 146 490 194 490 q 54 467 97 490 l 28 513 q 146 544 83 544 q 264 513 208 544 q 356 489 307 489 q 447 513 404 489 l 471 526 l 497 479 l 474 467 q 356 436 421 436 q 238 467 290 436 z "},"`":{"ha":219,"x_min":28,"x_max":192,"o":"m 71 946 l 192 771 l 147 740 l 28 915 l 71 946 l 71 946 z "},"@":{"ha":1231,"x_min":28,"x_max":1203,"o":"m 1081 697 q 1132 635 1110 668 q 1171 564 1154 601 q 1203 401 1203 485 l 1203 146 q 1192 94 1203 118 q 1164 51 1182 69 q 1122 23 1146 33 q 1071 13 1097 13 q 1022 22 1044 13 q 981 49 999 32 q 951 88 963 65 q 939 136 940 111 l 914 107 q 832 52 878 71 q 735 33 786 33 l 492 33 q 394 52 440 33 q 313 107 349 71 q 258 189 276 143 q 239 286 239 235 l 240 368 q 260 464 240 418 q 315 546 279 510 q 397 601 351 582 q 493 621 443 621 l 738 621 q 833 601 788 621 q 915 546 879 582 q 928 533 922 539 q 939 519 933 526 l 939 592 l 992 592 l 992 146 q 1015 90 992 113 q 1071 67 1038 67 q 1126 90 1103 67 q 1150 146 1150 113 l 1150 401 q 1122 543 1150 476 q 1043 660 1093 610 q 926 738 993 710 q 785 767 860 767 l 446 767 q 304 738 371 767 q 188 660 238 710 q 109 543 138 610 q 81 401 81 476 l 81 257 q 109 115 81 182 q 188 -1 138 49 q 304 -80 238 -51 q 446 -108 371 -108 l 1039 -108 l 1039 -161 l 446 -161 q 283 -129 363 -161 q 213 -90 246 -112 q 150 -39 179 -68 q 60 94 94 17 q 28 257 28 174 l 28 401 q 60 564 28 485 q 150 697 94 642 q 283 786 211 756 q 446 819 360 819 l 785 819 q 947 786 869 819 q 1081 697 1019 756 m 936 368 q 921 446 936 410 q 878 509 906 482 q 815 551 851 536 q 738 567 779 567 l 493 567 q 415 551 451 567 q 352 509 379 536 q 310 446 325 482 q 294 368 294 410 l 294 367 l 292 286 q 308 208 292 244 q 351 145 324 172 q 414 102 378 118 q 492 86 450 86 l 735 86 q 813 102 776 86 q 876 145 849 118 q 919 208 903 172 q 935 286 935 244 l 936 368 z "},"€":{"ha":1225,"x_min":28,"x_max":1197,"o":"m 171 246 q 158 281 164 264 q 147 318 151 299 l 28 318 l 28 371 l 140 371 q 139 388 139 379 q 139 403 139 396 l 139 543 q 139 558 139 550 q 140 572 139 565 l 28 572 l 28 625 l 147 625 q 157 663 151 644 q 171 701 163 682 q 257 831 201 774 q 386 917 314 886 q 544 949 463 949 l 1197 949 l 1197 896 l 544 896 q 426 876 482 896 q 324 819 369 856 q 247 733 279 782 q 201 625 215 683 l 1197 625 l 1197 572 l 193 572 q 192 558 192 565 q 192 543 192 550 l 192 403 q 192 387 192 394 q 193 371 192 379 l 1197 371 l 1197 318 l 203 318 q 249 212 217 261 q 326 127 281 163 q 426 72 371 92 q 544 51 482 51 l 1197 51 l 1197 -3 l 544 -3 q 386 29 463 -3 q 257 117 313 60 q 171 246 201 174 z "},"£":{"ha":1047,"x_min":28,"x_max":1019,"o":"m 1019 196 l 1019 -4 l 28 -4 l 28 50 l 82 50 q 163 67 126 50 q 226 118 200 85 q 253 164 240 136 q 273 231 267 192 q 277 324 279 271 q 260 446 275 376 l 28 446 l 28 499 l 244 499 q 225 601 233 540 q 221 738 214 676 q 265 867 229 815 q 444 947 325 947 l 713 947 q 790 932 754 947 q 853 890 826 917 q 896 826 881 863 q 911 749 911 790 l 858 749 q 847 806 858 779 q 815 851 835 832 q 769 883 796 871 q 713 894 743 894 l 444 894 q 308 836 351 894 q 276 755 283 801 q 272 660 269 708 q 284 569 275 613 q 300 499 293 525 l 833 499 l 833 446 l 314 446 q 331 315 331 372 q 324 213 332 257 q 300 138 315 169 q 268 85 285 106 q 252 65 261 74 q 233 50 243 57 l 965 50 l 965 196 l 1019 196 z "},"©":{"ha":1194,"x_min":28,"x_max":1167,"o":"m 849 758 l 901 758 l 901 646 l 849 646 q 829 693 849 674 q 782 713 810 713 l 507 713 q 428 697 465 713 q 365 653 392 681 q 322 590 338 626 q 306 511 306 553 l 306 428 q 322 350 306 386 q 365 287 338 314 q 428 244 392 260 q 507 228 465 228 l 875 228 l 875 174 l 507 174 q 326 249 401 174 q 272 331 290 285 q 253 428 253 378 l 253 511 q 272 608 253 563 q 326 690 290 654 q 507 765 401 765 l 782 765 q 849 744 817 765 l 849 758 m 1135 703 q 1167 546 1167 626 l 1167 406 q 1135 247 1167 324 q 1098 179 1119 211 q 1049 119 1076 147 q 919 32 992 63 q 761 0 843 0 l 433 0 q 275 32 351 0 q 146 119 201 63 q 97 179 118 147 q 60 247 75 211 q 28 406 28 324 l 28 546 q 60 703 28 626 q 146 832 89 775 q 275 919 201 888 q 433 951 351 951 l 761 951 q 919 919 843 951 q 1049 832 992 888 q 1135 703 1104 775 m 1114 546 q 1086 683 1114 618 q 1010 794 1058 747 q 898 869 963 842 q 761 897 833 897 l 433 897 q 296 869 360 897 q 184 794 232 842 q 108 683 136 747 q 81 546 81 618 l 81 406 q 108 268 81 332 q 184 156 136 204 q 296 81 232 108 q 433 53 360 53 l 761 53 q 898 81 833 53 q 1010 156 963 108 q 1086 268 1058 204 q 1114 406 1114 332 l 1114 546 z "},"¿":{"ha":897,"x_min":28,"x_max":869,"o":"m 869 196 q 853 118 869 154 q 810 55 838 82 q 747 12 783 28 q 669 -4 711 -4 l 272 -4 q 179 15 224 -4 q 100 68 135 33 q 47 147 65 103 q 28 240 28 192 q 111 439 28 382 q 192 472 147 464 q 283 486 238 481 q 376 501 331 493 q 457 538 422 510 q 533 760 533 596 l 533 808 l 588 808 l 588 760 q 581 669 588 710 q 561 593 574 628 q 489 494 536 532 q 394 451 446 463 q 290 433 343 440 q 208 421 246 428 q 140 394 169 414 q 101 349 121 382 q 81 240 81 317 q 96 165 81 200 q 137 105 111 131 q 197 64 163 79 q 272 49 232 49 l 669 49 q 726 60 700 49 q 772 92 753 72 q 803 139 792 113 q 815 196 815 165 l 869 196 m 560 872 q 532 884 543 872 q 521 913 521 896 q 532 940 521 928 q 560 951 543 951 q 588 940 576 951 q 600 913 600 928 q 588 884 600 896 q 560 872 576 872 z "},"ß":{"ha":1011,"x_min":28,"x_max":983,"o":"m 93 885 q 165 933 125 917 q 250 950 206 950 l 668 950 q 762 932 717 950 q 842 879 807 914 q 895 799 876 843 q 914 706 914 754 q 895 613 914 657 q 842 532 876 568 q 825 518 833 525 q 808 504 817 511 q 911 442 868 488 q 965 363 947 407 q 983 269 983 318 l 983 244 q 911 71 983 143 q 739 0 840 0 l 224 0 l 224 53 l 739 53 q 813 68 778 53 q 874 109 849 83 q 915 169 900 135 q 931 244 931 204 l 931 269 q 915 344 931 308 q 874 405 900 379 q 813 446 849 431 q 739 461 778 461 l 668 461 l 278 461 l 260 461 l 260 514 l 278 514 l 668 514 q 743 529 708 514 q 804 570 778 544 q 845 631 831 596 q 860 706 860 665 q 845 780 860 744 q 804 841 831 815 q 743 882 778 867 q 668 897 708 897 l 250 897 q 184 884 215 897 q 130 848 153 871 q 94 794 107 825 q 81 728 81 763 l 81 0 l 28 0 l 28 728 q 44 813 28 772 q 93 885 61 853 z "},"×":{"ha":567,"x_min":28,"x_max":539,"o":"m 65 233 l 28 271 l 246 490 l 28 708 l 65 746 l 283 528 l 501 746 l 539 708 l 321 490 l 539 271 l 501 233 l 283 451 l 65 233 l 65 233 z "},"÷":{"ha":628,"x_min":28,"x_max":600,"o":"m 314 678 q 285 689 297 678 q 274 717 274 700 q 285 745 274 733 q 314 757 297 757 q 342 745 331 757 q 353 717 353 733 q 342 689 353 700 q 314 678 331 678 m 314 303 q 342 291 331 303 q 353 263 353 279 q 342 235 353 246 q 314 224 331 224 q 285 235 297 224 q 274 263 274 246 q 285 291 274 279 q 314 303 297 303 m 600 517 l 600 463 l 28 463 l 28 517 l 600 517 z "},"±":{"ha":728,"x_min":28,"x_max":700,"o":"m 60 43 l 60 97 l 668 97 l 668 43 l 60 43 m 390 517 l 700 517 l 700 463 l 390 463 l 390 154 l 338 154 l 338 463 l 28 463 l 28 517 l 338 517 l 338 825 l 390 825 l 390 517 z "},"≤":{"ha":856,"x_min":28,"x_max":828,"o":"m 36 43 l 36 97 l 819 97 l 819 43 l 36 43 m 828 725 l 122 490 l 826 267 l 811 217 l 28 464 l 28 515 l 811 775 l 828 725 z "},"≠":{"ha":614,"x_min":28,"x_max":586,"o":"m 64 153 l 206 378 l 28 378 l 28 431 l 239 431 l 315 553 l 28 553 l 28 606 l 349 606 l 506 856 l 550 826 l 411 606 l 586 606 l 586 553 l 378 553 l 301 431 l 586 431 l 586 378 l 268 378 l 108 124 l 64 153 l 64 153 z "},"≥":{"ha":856,"x_min":28,"x_max":828,"o":"m 36 43 l 36 97 l 819 97 l 819 43 l 36 43 m 44 775 l 828 515 l 826 464 l 44 217 l 28 267 l 733 490 l 28 725 l 44 775 z "},"¨":{"ha":500,"x_min":28,"x_max":472,"o":"m 147 946 q 206 922 182 946 q 232 861 231 897 q 208 802 232 826 q 147 776 183 778 l 113 776 q 53 801 78 776 q 28 860 28 825 q 52 920 28 896 q 111 944 76 944 l 147 946 m 388 946 q 447 922 422 946 q 472 861 472 897 q 448 802 472 826 q 389 776 424 778 l 353 776 q 294 801 318 776 q 268 860 269 825 q 292 920 268 896 q 351 944 317 944 l 388 946 z "},"¡":{"ha":135,"x_min":28,"x_max":107,"o":"m 42 808 l 94 808 l 94 -4 l 42 -4 l 42 808 m 68 951 q 96 940 85 951 q 107 913 107 928 q 96 884 107 896 q 68 872 85 872 q 40 884 51 872 q 28 913 28 896 q 40 940 28 928 q 68 951 51 951 z "},"˚":{"ha":314,"x_min":28,"x_max":286,"o":"m 126 725 q 58 753 86 725 q 29 822 29 782 l 28 849 q 57 917 28 889 q 125 946 83 946 l 188 947 q 256 919 228 947 q 285 850 285 890 l 285 824 q 257 754 286 786 q 189 725 228 725 l 126 725 m 94 881 q 82 849 82 868 l 82 822 q 94 790 82 803 q 126 778 107 778 l 188 778 q 219 792 208 781 q 232 824 232 804 l 232 850 q 219 881 232 868 q 188 894 206 894 l 125 893 q 94 881 107 893 z "},"ˇ":{"ha":339,"x_min":28,"x_max":311,"o":"m 147 740 l 28 914 l 71 944 l 169 801 l 268 944 l 311 914 l 192 740 l 147 740 z "},"´":{"ha":219,"x_min":28,"x_max":192,"o":"m 147 946 l 192 915 l 71 740 l 28 771 l 147 946 l 147 946 z "},"˜":{"ha":347,"x_min":28,"x_max":319,"o":"m 67 851 l 28 888 l 46 907 q 119 943 79 943 q 193 907 161 943 q 208 894 200 900 q 228 888 217 888 q 247 894 239 888 q 263 907 256 900 l 279 926 l 319 890 l 301 871 q 228 835 268 835 q 154 871 186 835 q 139 884 147 878 q 119 890 131 890 q 100 884 108 890 q 85 871 92 878 l 67 851 z "},"ˆ":{"ha":339,"x_min":28,"x_max":311,"o":"m 192 950 l 311 775 l 268 746 l 169 888 l 71 746 l 28 775 l 147 950 l 192 950 z "},"˙":{"ha":260,"x_min":28,"x_max":232,"o":"m 147 946 q 206 922 182 946 q 232 861 231 897 q 208 802 232 826 q 147 776 183 778 l 113 776 q 53 801 78 776 q 28 860 28 825 q 52 920 28 896 q 111 944 76 944 l 147 946 l 147 946 z "},"˝":{"ha":283,"x_min":28,"x_max":256,"o":"m 117 944 l 165 924 l 76 719 l 28 740 l 117 944 m 207 944 l 256 924 l 165 719 l 117 740 l 207 944 z "},"¯":{"ha":413,"x_min":28,"x_max":385,"o":"m 385 894 l 28 894 l 28 949 l 385 949 l 385 894 z "},"œ":{"ha":1889,"x_min":28,"x_max":1861,"o":"m 1028 361 l 1028 332 q 1050 223 1028 274 q 1110 135 1072 172 q 1199 75 1149 97 q 1308 53 1250 53 l 1804 53 l 1804 0 l 1308 0 q 1178 25 1240 0 q 1072 97 1119 50 q 1001 203 1026 143 l 1000 204 l 1000 203 q 928 97 972 142 q 822 25 881 50 q 758 6 790 13 q 692 -1 726 -1 l 361 -1 q 232 25 297 -1 q 126 97 175 49 q 85 147 103 121 q 54 203 67 172 q 28 332 28 268 l 28 333 l 31 444 q 57 574 31 513 q 128 679 83 635 q 235 750 174 725 q 298 770 265 764 q 364 776 331 776 l 694 776 q 760 770 728 776 q 824 750 793 764 q 931 679 885 725 q 1001 574 976 633 q 1072 679 1026 633 q 1178 750 1117 724 q 1308 776 1239 776 l 1515 776 q 1808 650 1724 776 q 1852 541 1843 597 q 1861 444 1861 485 l 1861 361 l 1028 361 m 1028 415 l 1807 414 l 1807 444 q 1800 528 1807 481 q 1765 621 1793 576 q 1515 724 1696 724 l 1308 724 q 1199 701 1250 724 q 1110 642 1149 679 q 1050 553 1072 604 q 1028 443 1028 501 l 1028 415 m 975 443 q 953 553 975 501 q 892 642 931 604 q 803 701 854 679 q 694 724 753 724 l 364 724 q 255 701 306 724 q 166 642 204 679 q 106 553 128 604 q 83 443 83 501 l 82 332 q 104 223 82 274 q 164 135 126 172 q 252 75 201 97 q 361 53 303 53 l 692 53 q 801 75 750 53 q 890 135 853 97 q 950 223 928 172 q 972 332 972 274 l 972 333 l 975 443 z "},"æ":{"ha":1883,"x_min":28,"x_max":1856,"o":"m 1025 331 q 1025 322 1025 326 q 1024 313 1025 317 q 1051 210 1028 258 q 1113 127 1075 163 q 1199 72 1150 92 q 1304 51 1249 51 l 1800 51 l 1800 -1 l 1304 -1 q 1174 25 1239 -1 q 1118 56 1144 38 q 1068 97 1092 74 q 997 200 1022 140 q 928 96 972 143 q 878 56 904 74 q 822 25 853 38 q 693 0 761 0 l 285 0 q 103 75 178 0 q 28 257 28 150 q 103 438 28 363 q 185 494 139 474 q 285 514 232 514 l 963 514 q 926 598 951 560 q 865 664 900 636 q 785 708 829 692 q 692 724 740 724 l 311 724 q 209 705 258 724 q 121 650 160 686 l 85 689 q 189 754 131 732 q 311 776 247 776 l 692 776 q 821 751 758 776 q 926 679 881 724 q 997 575 972 633 q 1068 679 1022 633 q 1174 750 1113 724 q 1304 776 1235 776 l 1511 776 q 1804 649 1721 776 q 1847 540 1839 596 q 1856 444 1856 485 l 1856 361 l 1025 361 l 1025 331 m 693 53 q 797 73 749 53 q 883 128 846 93 q 944 211 921 164 q 971 313 967 258 l 971 332 l 971 443 l 971 460 l 285 460 q 206 444 243 460 q 140 401 168 428 q 97 336 113 374 q 81 257 81 299 q 97 178 81 215 q 140 113 113 140 q 206 69 168 85 q 285 53 243 53 l 693 53 m 1024 463 q 1025 443 1025 456 l 1025 414 l 1803 414 l 1803 444 q 1796 528 1803 481 q 1760 619 1789 576 q 1511 724 1693 724 l 1304 724 q 1199 703 1249 724 q 1112 648 1150 683 q 1051 565 1074 613 q 1024 463 1028 517 z "},"Œ":{"ha":1894,"x_min":28,"x_max":1867,"o":"m 951 0 l 842 0 l 682 0 l 433 0 q 275 32 347 0 q 146 118 203 61 q 60 247 89 175 q 28 406 28 319 l 28 544 q 60 703 28 631 q 146 832 89 775 q 206 881 174 860 q 275 918 239 903 q 433 950 351 950 l 682 950 l 842 950 l 1838 950 l 1838 750 l 1783 750 l 1783 897 l 1004 897 l 1004 515 l 1629 515 l 1629 463 l 1004 463 l 1004 53 l 1814 53 l 1814 200 l 1867 200 l 1867 0 l 1004 0 l 951 0 m 951 53 l 951 897 l 842 897 l 682 897 l 433 897 q 296 869 360 897 q 184 794 232 842 q 108 681 136 746 q 81 544 81 617 l 81 406 q 108 268 81 332 q 184 156 136 204 q 296 81 232 108 q 433 53 360 53 l 682 53 l 842 53 l 951 53 z "},"Æ":{"ha":2233,"x_min":28,"x_max":2206,"o":"m 2153 200 l 2206 200 l 2206 0 l 1021 0 l 1021 53 l 1290 53 l 1290 296 l 674 296 l 418 53 l 618 53 l 618 0 l 28 0 l 28 53 l 340 53 l 1231 897 l 1021 897 l 1021 950 l 1286 950 l 1286 950 l 1343 950 l 1343 950 l 2175 950 l 2175 750 l 2122 750 l 2122 897 l 1343 897 l 1343 515 l 1968 515 l 1968 463 l 1343 463 l 1343 53 l 2153 53 l 2153 200 m 1290 349 l 1290 881 l 731 349 l 1290 349 z "},"™":{"ha":1408,"x_min":28,"x_max":1381,"o":"m 1381 899 l 1271 899 l 1271 539 l 1381 539 l 1381 486 l 1110 486 l 1110 539 l 1218 539 l 1218 835 l 994 486 l 994 486 l 950 486 l 950 486 l 725 835 l 725 539 l 835 539 l 835 486 l 564 486 l 564 539 l 672 539 l 672 899 l 340 899 l 340 539 l 449 539 l 449 486 l 178 486 l 178 539 l 288 539 l 288 899 l 81 899 l 81 844 l 28 844 l 28 951 l 314 951 l 714 951 l 972 550 l 1231 951 l 1381 951 l 1381 899 l 1381 899 z "},"¶":{"ha":903,"x_min":28,"x_max":875,"o":"m 875 897 l 875 0 l 821 0 l 821 897 l 647 897 l 647 0 l 593 0 l 593 436 l 272 436 q 179 454 224 436 q 100 508 135 472 q 46 588 64 543 q 28 681 28 632 l 28 706 q 100 879 28 807 q 272 950 171 950 l 372 950 l 426 950 l 875 950 l 875 897 z "},"®":{"ha":1022,"x_min":28,"x_max":994,"o":"m 713 318 l 825 318 l 825 272 l 693 272 l 690 271 l 689 272 l 567 272 l 567 318 l 657 318 l 557 464 l 389 464 l 389 318 l 496 318 l 496 272 l 238 272 l 238 318 l 344 318 l 344 665 l 238 665 l 238 711 l 636 711 q 719 676 685 711 q 754 593 754 642 l 754 582 q 719 499 754 533 q 636 464 685 464 l 611 464 l 713 318 m 636 508 q 688 530 667 508 q 708 582 708 551 l 708 593 q 688 644 708 624 q 636 665 667 665 l 389 665 l 389 508 l 636 508 m 900 769 q 970 665 946 724 q 994 542 994 607 l 994 431 q 970 307 994 365 q 900 203 946 249 q 796 133 854 157 q 672 108 738 108 l 350 108 q 226 133 285 108 q 122 203 168 157 q 52 307 76 249 q 28 431 28 365 l 28 542 q 52 665 28 607 q 122 769 76 724 q 226 839 168 814 q 350 864 285 864 l 672 864 q 796 839 738 864 q 900 769 854 814 m 950 542 q 928 649 950 599 q 868 738 906 700 q 780 797 831 775 q 672 818 729 818 l 350 818 q 242 797 293 818 q 154 738 192 775 q 94 649 117 700 q 72 542 72 599 l 72 431 q 94 323 72 374 q 154 235 117 272 q 242 176 192 197 q 350 154 293 154 l 672 154 q 780 176 729 154 q 868 235 831 197 q 928 323 906 272 q 950 431 950 374 l 950 542 z "},"µ":{"ha":1056,"x_min":28,"x_max":1028,"o":"m 1028 778 l 1028 0 l 975 0 l 975 156 q 928 97 953 122 q 822 26 883 53 q 692 0 761 0 l 361 0 q 295 6 328 0 q 232 26 263 13 q 125 97 174 50 q 81 153 100 122 l 81 -403 l 28 -403 l 28 761 l 28 778 l 81 778 l 81 333 q 103 224 81 275 q 163 135 125 174 q 252 75 201 97 q 361 53 303 53 l 692 53 q 801 75 750 53 q 890 135 853 97 q 950 224 928 174 q 972 333 972 275 l 975 333 l 975 778 l 1028 778 z "},"ç":{"ha":911,"x_min":28,"x_max":883,"o":"m 361 724 q 252 701 303 724 q 163 641 201 679 q 103 552 125 603 q 81 443 81 501 l 81 332 q 103 223 81 274 q 163 134 125 172 q 252 74 201 96 q 361 51 303 51 l 857 51 l 857 -1 l 515 -1 l 485 -37 l 490 -37 l 492 -37 q 560 -66 532 -37 q 589 -135 589 -94 l 589 -161 q 560 -230 589 -201 q 492 -260 532 -258 l 431 -260 l 429 -260 q 361 -232 389 -260 q 332 -162 332 -203 l 385 -162 q 399 -194 385 -181 q 431 -207 411 -207 l 492 -207 q 524 -193 511 -206 q 536 -161 536 -181 l 536 -135 q 523 -103 536 -117 q 492 -90 510 -90 l 490 -90 l 374 -92 l 446 -1 l 361 -1 q 231 25 292 -1 q 125 96 169 51 q 54 203 79 142 q 34 266 40 233 q 28 332 28 299 l 28 443 q 34 509 28 476 q 54 572 40 542 q 125 678 79 632 q 175 719 149 701 q 231 750 201 738 q 361 776 296 776 l 732 776 q 831 739 789 776 l 831 776 l 883 776 l 883 625 l 831 625 q 801 694 831 665 q 732 724 772 724 l 361 724 l 361 724 z "},"Ø":{"ha":1275,"x_min":28,"x_max":1247,"o":"m 1215 247 q 1128 118 1183 174 q 1068 69 1100 90 q 1000 32 1036 47 q 922 8 963 15 q 842 0 882 0 l 433 0 q 275 32 347 0 q 254 41 264 36 q 233 51 244 46 l 158 -19 l 122 19 l 188 82 q 167 99 176 90 q 146 118 157 108 q 60 247 90 175 q 28 406 28 324 l 28 544 q 60 703 28 626 q 146 832 90 775 q 206 881 174 860 q 275 918 239 903 q 433 950 351 950 l 842 950 q 1000 918 924 950 q 1024 907 1011 913 q 1047 894 1036 901 l 1126 969 l 1163 932 l 1092 864 q 1128 832 1110 849 q 1215 703 1183 775 q 1247 544 1247 626 l 1247 406 q 1215 247 1247 324 m 81 406 q 121 242 81 317 q 228 119 161 168 l 1006 857 q 928 887 969 876 q 842 897 886 897 l 433 897 q 296 869 360 897 q 184 794 232 842 q 108 681 136 746 q 81 544 81 617 l 81 406 m 842 53 q 978 81 914 53 q 1091 156 1043 108 q 1167 268 1139 204 q 1194 406 1194 332 l 1194 544 q 1156 705 1194 632 q 1053 826 1118 778 l 274 90 q 350 63 310 72 q 433 53 390 53 l 842 53 z "},"§":{"ha":949,"x_min":28,"x_max":921,"o":"m 921 488 q 893 385 921 431 q 819 311 865 339 q 893 238 865 285 q 921 135 921 192 l 921 115 q 905 36 921 74 q 862 -29 889 -1 q 797 -73 835 -57 q 718 -89 760 -89 l 206 -89 q 101 -49 146 -89 l 101 -83 l 49 -83 l 49 69 l 101 69 q 132 -5 101 25 q 206 -35 163 -35 l 718 -35 q 776 -23 749 -35 q 824 9 804 -11 q 856 56 844 29 q 868 115 868 83 l 868 135 q 858 190 868 164 q 829 235 847 215 q 787 269 811 256 q 735 285 763 282 q 710 285 733 285 q 650 284 688 285 q 565 283 613 283 q 468 283 518 283 l 206 283 q 181 293 193 283 q 119 322 147 301 q 72 369 92 342 q 40 428 51 396 q 28 497 28 461 q 57 606 28 556 q 133 683 86 656 q 57 756 86 710 q 28 861 28 803 q 44 940 28 903 q 88 1006 60 978 q 153 1049 115 1033 q 232 1065 190 1065 l 682 1065 q 744 1053 715 1065 q 796 1019 774 1040 l 796 1060 l 850 1060 l 850 899 l 796 899 q 763 979 796 946 q 682 1013 731 1013 l 232 1013 q 173 1001 200 1013 q 126 968 146 989 q 94 919 106 947 q 82 861 82 892 q 93 806 82 832 q 123 759 104 779 q 167 726 142 739 q 222 711 193 713 l 718 711 q 797 695 760 711 q 862 651 835 679 q 905 586 889 624 q 921 507 921 549 l 921 488 m 735 338 q 787 353 763 340 q 829 387 811 367 q 858 433 847 407 q 868 488 868 458 l 868 507 q 856 565 868 538 q 824 614 844 593 q 776 647 804 635 q 718 658 749 658 l 224 658 q 168 642 194 656 q 123 606 142 628 q 93 555 104 583 q 82 497 82 526 q 94 437 82 465 q 126 387 106 408 q 173 352 146 365 q 232 339 200 339 l 481 339 q 573 339 528 339 q 653 338 618 339 q 711 338 689 338 q 735 338 733 338 z "},"ø":{"ha":1056,"x_min":28,"x_max":1028,"o":"m 1001 574 q 1021 510 1014 542 q 1028 443 1028 478 l 1025 332 q 999 203 1025 264 q 928 97 974 143 q 822 25 881 50 q 758 6 790 13 q 692 -1 726 -1 l 361 -1 q 354 0 357 -1 l 301 -99 l 256 -75 l 297 6 q 232 25 265 11 q 125 97 172 50 q 54 203 79 143 q 28 332 28 264 l 28 333 l 31 444 q 57 574 31 513 q 128 679 83 635 q 233 750 172 724 q 364 776 294 776 l 694 776 l 701 776 l 753 875 l 800 851 l 758 771 q 824 750 793 764 q 929 679 883 725 q 971 629 953 656 q 1001 574 989 603 m 674 724 l 364 724 q 254 701 306 724 q 165 642 203 679 q 106 553 128 604 q 83 443 83 501 l 81 332 q 99 232 81 279 q 151 148 118 185 q 228 87 183 111 q 324 56 272 63 l 674 724 m 975 444 q 956 544 975 497 q 905 628 938 592 q 828 690 872 665 q 732 721 783 714 l 382 53 l 692 53 q 801 75 750 53 q 890 135 851 97 q 950 223 928 172 q 972 332 972 274 l 972 333 l 975 444 z "},"¤":{"ha":1203,"x_min":28,"x_max":1175,"o":"m 1175 -3 l 1142 -44 l 997 69 q 960 44 979 56 q 918 24 940 32 q 855 3 888 10 q 789 -3 822 -3 l 458 -3 q 328 24 389 -3 q 228 89 272 46 l 61 -43 l 28 -1 l 192 129 q 151 200 167 165 q 125 331 125 261 l 126 442 q 134 508 128 475 q 153 571 140 540 q 183 627 165 601 q 225 676 201 653 q 226 678 226 678 q 228 681 226 679 l 58 814 l 92 856 l 269 715 q 299 733 285 725 q 331 749 314 742 q 460 775 396 775 l 792 775 q 857 768 825 775 q 921 749 889 761 q 938 741 929 744 q 953 732 946 738 l 1111 858 l 1144 817 l 1000 701 q 1013 690 1007 696 q 1026 676 1019 683 q 1099 571 1075 628 q 1125 442 1125 507 l 1125 440 l 1122 331 q 1096 200 1122 261 q 1036 107 1075 150 l 1175 -3 m 789 50 q 898 72 847 50 q 987 133 949 94 q 1047 222 1025 171 q 1069 331 1069 272 l 1071 442 q 1049 551 1071 500 q 989 639 1026 601 q 901 699 951 676 q 792 721 850 721 l 460 721 q 351 699 401 721 q 263 639 300 676 q 203 551 225 601 q 181 442 181 500 l 181 440 l 178 331 q 200 221 178 272 q 260 132 222 169 q 349 72 299 94 q 458 50 400 50 l 789 50 z "},"Ç":{"ha":1169,"x_min":28,"x_max":1142,"o":"m 432 897 q 296 869 360 897 q 184 794 232 842 q 108 681 136 746 q 81 544 81 617 l 81 406 q 108 268 81 332 q 184 156 136 204 q 296 81 232 108 q 432 53 360 53 l 1115 53 l 1115 0 l 639 0 l 610 -36 l 614 -36 l 615 -36 q 683 -64 656 -36 q 713 -133 713 -93 l 713 -160 q 685 -229 714 -197 q 617 -258 656 -258 l 554 -258 q 485 -231 515 -258 q 456 -161 458 -204 l 510 -161 q 522 -193 510 -181 q 554 -206 535 -206 l 615 -204 q 647 -192 635 -204 q 660 -160 660 -179 l 660 -133 q 646 -103 660 -115 q 615 -89 632 -89 l 497 -90 l 569 0 l 432 0 q 275 32 347 0 q 146 118 203 61 q 58 247 89 174 q 28 406 28 321 l 28 544 q 58 703 28 629 q 146 832 89 775 q 275 918 203 889 q 432 950 347 950 l 942 950 q 1024 933 986 950 q 1089 886 1061 915 l 1089 951 l 1142 951 l 1142 750 l 1089 750 q 1047 855 1089 813 q 942 897 1004 897 l 432 897 l 432 897 z "},"¥":{"ha":1639,"x_min":28,"x_max":1611,"o":"m 1021 949 l 1611 949 l 1611 896 l 1294 896 l 846 514 l 846 431 l 1199 431 l 1199 378 l 846 378 l 846 257 l 1199 257 l 1199 203 l 846 203 l 846 53 l 1115 53 l 1115 0 l 846 0 l 846 -1 l 793 -1 l 793 0 l 524 0 l 524 53 l 793 53 l 793 203 l 440 203 l 440 257 l 793 257 l 793 378 l 440 378 l 440 431 l 793 431 l 793 515 l 344 896 l 28 896 l 28 949 l 618 949 l 618 896 l 426 896 l 819 561 l 1213 896 l 1021 896 l 1021 949 l 1021 949 z "},"‰":{"ha":1672,"x_min":28,"x_max":1644,"o":"m 224 596 q 164 608 192 596 q 115 640 136 619 q 83 689 94 661 q 71 749 71 717 l 71 796 q 83 856 71 828 q 115 904 94 883 q 164 937 136 925 q 224 949 192 949 l 335 949 q 393 937 365 949 q 442 904 421 925 q 475 856 463 883 q 488 796 488 828 l 488 749 q 475 689 488 717 q 442 640 463 661 q 393 608 421 619 q 335 596 365 596 l 224 596 m 124 749 q 153 678 124 707 q 224 649 183 649 l 335 649 q 405 678 375 649 q 435 749 435 707 l 435 796 q 405 867 435 838 q 335 896 375 896 l 224 896 q 153 867 183 896 q 124 796 124 838 l 124 749 m 997 356 q 1057 343 1029 356 q 1106 310 1085 331 q 1138 261 1126 289 q 1150 201 1150 233 l 1150 156 q 1138 96 1150 124 q 1106 47 1126 68 q 1057 14 1085 26 q 997 1 1029 1 l 886 1 q 826 14 854 1 q 778 47 799 26 q 745 96 757 68 q 733 156 733 124 l 733 201 q 745 261 733 233 q 778 310 757 289 q 826 343 799 331 q 886 356 854 356 l 997 356 m 1097 201 q 1067 273 1097 243 q 997 303 1038 303 l 886 303 q 816 273 846 303 q 786 201 786 243 l 786 156 q 816 84 786 114 q 886 54 846 54 l 997 54 q 1067 84 1038 54 q 1097 156 1097 114 l 1097 201 m 1492 356 q 1550 343 1522 356 q 1599 310 1578 331 q 1632 261 1619 289 q 1644 201 1644 233 l 1644 156 q 1632 96 1644 124 q 1599 47 1619 68 q 1550 14 1578 26 q 1492 1 1522 1 l 1381 1 q 1321 14 1349 1 q 1272 47 1293 26 q 1240 96 1251 68 q 1228 156 1228 124 l 1228 201 q 1240 261 1228 233 q 1272 310 1251 289 q 1321 343 1293 331 q 1381 356 1349 356 l 1492 356 m 1592 201 q 1562 273 1592 243 q 1492 303 1532 303 l 1381 303 q 1310 273 1340 303 q 1281 201 1281 243 l 1281 156 q 1310 84 1281 114 q 1381 54 1340 54 l 1492 54 q 1562 84 1532 54 q 1592 156 1592 114 l 1592 201 m 1104 932 l 64 -18 l 28 21 l 1068 971 l 1104 932 z "},"—":{"ha":768,"x_min":28,"x_max":740,"o":"m 28 463 l 28 515 l 740 515 l 740 463 l 28 463 l 28 463 z "},"¢":{"ha":911,"x_min":28,"x_max":883,"o":"m 361 722 q 252 700 303 722 q 163 640 201 678 q 103 552 125 603 q 81 443 81 501 l 81 332 q 103 223 81 274 q 163 134 125 172 q 252 74 201 96 q 361 51 303 51 l 857 51 l 857 -1 l 535 -1 l 535 -144 l 482 -144 l 482 -1 l 361 -1 q 231 25 292 -1 q 125 96 169 51 q 54 201 81 140 q 28 332 28 263 l 28 443 q 54 572 28 511 q 125 678 79 632 q 231 750 172 725 q 361 776 296 776 l 482 776 l 482 907 l 535 907 l 535 776 l 732 776 q 831 739 789 776 l 831 776 l 883 776 l 883 624 l 831 624 q 801 694 831 665 q 732 722 772 722 l 361 722 l 361 722 z "},"˛":{"ha":314,"x_min":28,"x_max":286,"o":"m 58 -231 q 29 -161 29 -201 l 28 -135 q 57 -65 28 -94 q 125 -36 83 -39 l 144 -36 l 210 44 l 251 11 l 169 -90 l 125 -90 q 94 -103 107 -90 q 82 -135 82 -115 l 82 -161 q 94 -192 82 -179 q 126 -206 108 -206 l 188 -204 q 219 -192 207 -204 q 232 -160 232 -179 l 285 -160 q 257 -229 286 -197 q 189 -257 229 -257 l 126 -258 q 58 -231 86 -258 z "},"¸":{"ha":314,"x_min":28,"x_max":286,"o":"m 186 -31 q 256 -59 226 -31 q 285 -128 285 -87 l 285 -154 q 257 -224 286 -192 q 189 -251 229 -251 l 126 -253 q 57 -225 88 -253 q 28 -156 31 -196 l 82 -156 q 94 -186 82 -174 q 126 -200 108 -200 l 188 -199 q 219 -186 207 -199 q 232 -154 232 -174 l 232 -128 q 219 -96 232 -108 q 188 -83 207 -83 l 69 -85 l 178 50 l 219 17 l 182 -31 l 186 -31 z "},"−":{"ha":728,"x_min":28,"x_max":700,"o":"m 28 515 l 700 515 l 700 463 l 28 463 l 28 515 z "},"–":{"ha":669,"x_min":28,"x_max":642,"o":"m 28 515 l 642 515 l 642 463 l 28 463 l 28 515 z "},"‚":{"ha":164,"x_min":28,"x_max":136,"o":"m 82 -6 q 43 10 58 -6 q 28 49 28 25 q 44 86 28 71 q 82 101 60 101 q 120 86 104 101 q 136 49 136 71 q 124 -4 136 15 q 97 -33 113 -24 q 58 -49 81 -46 q 74 -28 69 -39 q 82 -6 79 -17 z "},"…":{"ha":492,"x_min":28,"x_max":464,"o":"m 82 -6 q 44 10 60 -6 q 28 49 28 25 q 44 86 28 71 q 82 101 60 101 q 120 86 104 101 q 136 49 136 71 q 120 10 136 25 q 82 -6 104 -6 m 246 -6 q 208 10 224 -6 q 192 49 192 25 q 208 86 192 71 q 246 101 224 101 q 284 86 268 101 q 300 49 300 71 q 284 10 300 25 q 246 -6 268 -6 m 410 -6 q 372 10 388 -6 q 356 49 356 25 q 372 86 356 71 q 410 101 388 101 q 448 86 432 101 q 464 49 464 71 q 448 10 464 25 q 410 -6 432 -6 z "},"„":{"ha":306,"x_min":28,"x_max":278,"o":"m 82 -6 q 43 10 58 -6 q 28 49 28 25 q 44 86 28 71 q 82 101 60 101 q 120 86 104 101 q 136 49 136 71 q 124 -4 136 15 q 97 -33 113 -24 q 58 -49 81 -46 q 74 -28 69 -39 q 82 -6 79 -17 m 224 -6 q 185 10 200 -6 q 169 49 169 25 q 185 86 169 71 q 224 101 201 101 q 262 86 246 101 q 278 49 278 71 q 266 -4 278 15 q 239 -33 254 -24 q 200 -49 222 -46 q 216 -28 211 -39 q 224 -6 221 -17 z "},"«":{"ha":1229,"x_min":28,"x_max":1201,"o":"m 401 515 l 1185 775 l 1201 725 l 496 490 l 1200 267 l 1185 217 l 401 464 l 401 515 m 28 515 l 811 775 l 828 725 l 122 490 l 826 267 l 811 217 l 28 464 l 28 515 z "},"»":{"ha":1324,"x_min":28,"x_max":1296,"o":"m 1201 490 l 496 725 l 513 775 l 1296 515 l 1294 464 l 513 217 l 496 267 l 1201 490 m 733 490 l 28 725 l 44 775 l 828 515 l 826 464 l 44 217 l 28 267 l 733 490 z "},"ı":{"ha":367,"x_min":28,"x_max":339,"o":"m 210 53 l 339 53 l 339 0 l 28 0 l 28 53 l 157 53 l 157 724 l 28 724 l 28 776 l 210 776 l 210 53 l 210 53 z "},"Á":{"ha":1639,"x_min":28,"x_max":1611,"o":"m 618 0 l 28 0 l 28 53 l 321 53 l 794 950 l 844 950 l 1318 53 l 1611 53 l 1611 0 l 1021 0 l 1021 53 l 1258 53 l 1129 296 l 508 296 l 381 53 l 618 53 l 618 0 m 819 885 l 538 349 l 1101 349 l 819 885 m 864 1242 l 908 1211 l 788 1036 l 744 1067 l 864 1242 z "},"Â":{"ha":1639,"x_min":28,"x_max":1611,"o":"m 618 0 l 28 0 l 28 53 l 321 53 l 794 950 l 844 950 l 1318 53 l 1611 53 l 1611 0 l 1021 0 l 1021 53 l 1258 53 l 1129 296 l 508 296 l 381 53 l 618 53 l 618 0 m 819 885 l 538 349 l 1101 349 l 819 885 m 860 1228 l 979 1053 l 936 1024 l 838 1165 l 739 1024 l 696 1053 l 815 1228 l 860 1228 z "},"À":{"ha":1639,"x_min":28,"x_max":1611,"o":"m 618 0 l 28 0 l 28 53 l 321 53 l 794 950 l 844 950 l 1318 53 l 1611 53 l 1611 0 l 1021 0 l 1021 53 l 1258 53 l 1129 296 l 508 296 l 381 53 l 618 53 l 618 0 m 819 885 l 538 349 l 1101 349 l 819 885 m 796 1243 l 917 1068 l 872 1038 l 753 1213 l 796 1243 z "},"Ä":{"ha":1639,"x_min":28,"x_max":1611,"o":"m 28 0 l 28 53 l 321 53 l 794 950 l 844 950 l 1318 53 l 1611 53 l 1611 0 l 1021 0 l 1021 53 l 1258 53 l 1129 296 l 508 296 l 381 53 l 618 53 l 618 0 l 28 0 m 538 349 l 1101 349 l 819 885 l 538 349 m 725 1213 q 784 1188 760 1213 q 810 1128 808 1164 q 785 1069 810 1093 q 725 1043 761 1044 l 690 1043 q 631 1067 656 1043 q 606 1126 606 1092 q 630 1187 606 1163 q 689 1211 654 1211 l 725 1213 m 965 1213 q 1025 1188 1000 1213 q 1050 1128 1050 1164 q 1026 1069 1050 1093 q 967 1043 1001 1044 l 931 1043 q 872 1067 896 1043 q 846 1126 847 1092 q 870 1187 846 1163 q 929 1211 894 1211 l 965 1213 z "},"Ā":{"ha":1639,"x_min":28,"x_max":1611,"o":"m 618 0 l 28 0 l 28 53 l 321 53 l 794 950 l 844 950 l 1318 53 l 1611 53 l 1611 0 l 1021 0 l 1021 53 l 1258 53 l 1129 296 l 508 296 l 381 53 l 618 53 l 618 0 m 819 885 l 538 349 l 1101 349 l 819 885 m 1010 1033 l 653 1033 l 653 1088 l 1010 1088 l 1010 1033 z "},"Ą":{"ha":1639,"x_min":28,"x_max":1611,"o":"m 1383 -231 q 1354 -161 1354 -201 l 1353 -135 q 1382 -65 1353 -94 q 1450 -36 1408 -39 l 1469 -36 l 1499 0 l 1021 0 l 1021 53 l 1258 53 l 1129 296 l 508 296 l 381 53 l 618 53 l 618 0 l 28 0 l 28 53 l 321 53 l 794 950 l 844 950 l 1318 53 l 1611 53 l 1611 0 l 1567 0 l 1494 -90 l 1450 -90 q 1419 -103 1432 -90 q 1407 -135 1407 -115 l 1407 -161 q 1419 -192 1407 -179 q 1451 -206 1433 -206 l 1513 -204 q 1544 -192 1532 -204 q 1557 -160 1557 -179 l 1610 -160 q 1582 -229 1611 -197 q 1514 -257 1554 -257 l 1451 -258 q 1383 -231 1411 -258 m 538 349 l 1101 349 l 819 885 l 538 349 z "},"Å":{"ha":1639,"x_min":28,"x_max":1611,"o":"m 28 0 l 28 53 l 321 53 l 794 950 l 844 950 l 1318 53 l 1611 53 l 1611 0 l 1021 0 l 1021 53 l 1258 53 l 1129 296 l 508 296 l 381 53 l 618 53 l 618 0 l 28 0 m 538 349 l 1101 349 l 819 885 l 538 349 m 807 1040 q 738 1069 767 1040 q 710 1138 710 1097 l 708 1164 q 738 1232 708 1204 q 806 1261 764 1261 l 868 1263 q 937 1234 908 1263 q 965 1165 965 1206 l 965 1139 q 938 1069 967 1101 q 869 1040 908 1040 l 807 1040 m 775 1196 q 763 1164 763 1183 l 763 1138 q 775 1106 763 1118 q 807 1093 788 1093 l 868 1093 q 900 1107 889 1096 q 913 1139 913 1119 l 913 1165 q 899 1197 913 1183 q 868 1210 886 1210 l 806 1208 q 775 1196 788 1208 z "},"Ã":{"ha":1639,"x_min":28,"x_max":1611,"o":"m 28 0 l 28 53 l 321 53 l 794 950 l 844 950 l 1318 53 l 1611 53 l 1611 0 l 1021 0 l 1021 53 l 1258 53 l 1129 296 l 508 296 l 381 53 l 618 53 l 618 0 l 28 0 m 538 349 l 1101 349 l 819 885 l 538 349 m 732 1061 l 693 1097 l 711 1117 q 785 1153 744 1153 q 858 1117 826 1153 q 874 1103 865 1110 q 893 1097 882 1097 q 913 1103 904 1097 q 928 1117 921 1110 l 944 1136 l 985 1100 l 967 1081 q 893 1044 933 1044 q 819 1081 851 1044 q 804 1094 813 1088 q 785 1100 796 1100 q 765 1094 774 1100 q 750 1081 757 1088 l 732 1061 z "},"Ǽ":{"ha":2233,"x_min":28,"x_max":2206,"o":"m 2153 200 l 2206 200 l 2206 0 l 1021 0 l 1021 53 l 1290 53 l 1290 296 l 674 296 l 418 53 l 618 53 l 618 0 l 28 0 l 28 53 l 340 53 l 1231 897 l 1021 897 l 1021 950 l 1286 950 l 1286 950 l 1343 950 l 1343 950 l 2175 950 l 2175 750 l 2122 750 l 2122 897 l 1343 897 l 1343 515 l 1968 515 l 1968 463 l 1343 463 l 1343 53 l 2153 53 l 2153 200 m 1290 349 l 1290 881 l 731 349 l 1290 349 m 1481 1225 l 1525 1194 l 1404 1019 l 1361 1050 l 1481 1225 z "},"Ć":{"ha":1169,"x_min":28,"x_max":1142,"o":"m 1089 950 l 1142 950 l 1142 750 l 1089 750 q 1047 855 1089 813 q 942 897 1004 897 l 432 897 q 296 869 360 897 q 184 794 232 842 q 108 681 136 746 q 81 544 81 617 l 81 406 q 108 268 81 332 q 184 156 136 204 q 296 81 232 108 q 432 53 360 53 l 1115 53 l 1115 0 l 432 0 q 275 32 347 0 q 146 118 203 61 q 58 247 89 174 q 28 406 28 321 l 28 544 q 58 703 28 629 q 146 832 89 775 q 206 881 174 860 q 275 918 239 903 q 432 950 351 950 l 942 950 q 1024 933 986 950 q 1089 886 1061 915 l 1089 950 m 725 1211 l 604 1036 l 561 1067 l 681 1242 l 725 1211 z "},"Č":{"ha":1169,"x_min":28,"x_max":1142,"o":"m 1089 950 l 1142 950 l 1142 750 l 1089 750 q 1047 855 1089 813 q 942 897 1004 897 l 432 897 q 296 869 360 897 q 184 794 232 842 q 108 681 136 746 q 81 544 81 617 l 81 406 q 108 268 81 332 q 184 156 136 204 q 296 81 232 108 q 432 53 360 53 l 1115 53 l 1115 0 l 432 0 q 275 32 347 0 q 146 118 203 61 q 58 247 89 174 q 28 406 28 321 l 28 544 q 58 703 28 629 q 146 832 89 775 q 206 881 174 860 q 275 918 239 903 q 432 950 351 950 l 942 950 q 1024 933 986 950 q 1089 886 1061 915 l 1089 950 m 629 1021 l 510 1194 l 553 1225 l 651 1082 l 750 1225 l 793 1194 l 674 1021 l 629 1021 z "},"Ĉ":{"ha":1169,"x_min":28,"x_max":1142,"o":"m 1089 950 l 1142 950 l 1142 750 l 1089 750 q 1047 855 1089 813 q 942 897 1004 897 l 432 897 q 296 869 360 897 q 184 794 232 842 q 108 681 136 746 q 81 544 81 617 l 81 406 q 108 268 81 332 q 184 156 136 204 q 296 81 232 108 q 432 53 360 53 l 1115 53 l 1115 0 l 432 0 q 275 32 347 0 q 146 118 203 61 q 58 247 89 174 q 28 406 28 321 l 28 544 q 58 703 28 629 q 146 832 89 775 q 206 881 174 860 q 275 918 239 903 q 432 950 351 950 l 942 950 q 1024 933 986 950 q 1089 886 1061 915 l 1089 950 m 676 1228 l 796 1053 l 753 1024 l 654 1165 l 556 1024 l 513 1053 l 632 1228 l 676 1228 z "},"Ċ":{"ha":1169,"x_min":28,"x_max":1142,"o":"m 1089 950 l 1142 950 l 1142 750 l 1089 750 q 1047 855 1089 813 q 942 897 1004 897 l 432 897 q 296 869 360 897 q 184 794 232 842 q 108 681 136 746 q 81 544 81 617 l 81 406 q 108 268 81 332 q 184 156 136 204 q 296 81 232 108 q 432 53 360 53 l 1115 53 l 1115 0 l 432 0 q 275 32 347 0 q 146 118 203 61 q 58 247 89 174 q 28 406 28 321 l 28 544 q 58 703 28 629 q 146 832 89 775 q 206 881 174 860 q 275 918 239 903 q 432 950 351 950 l 942 950 q 1024 933 986 950 q 1089 886 1061 915 l 1089 950 m 664 1214 q 723 1190 699 1214 q 749 1129 747 1165 q 724 1070 749 1094 q 664 1044 700 1046 l 629 1044 q 569 1069 594 1044 q 544 1128 544 1093 q 569 1188 544 1164 q 628 1213 593 1213 l 664 1214 z "},"Ď":{"ha":1339,"x_min":28,"x_max":1311,"o":"m 297 53 l 297 897 l 28 897 l 28 950 l 906 950 q 1064 918 988 950 q 1192 832 1135 889 q 1279 703 1247 775 q 1311 544 1311 626 l 1311 406 q 1279 247 1311 324 q 1192 118 1247 174 q 1132 69 1164 90 q 1064 32 1100 47 q 986 8 1026 15 q 906 0 946 0 l 350 0 l 297 0 l 28 0 l 28 53 l 297 53 m 350 53 l 906 53 q 1042 81 978 53 q 1155 156 1107 108 q 1231 268 1203 204 q 1258 406 1258 332 l 1258 544 q 1231 681 1258 617 q 1155 794 1203 746 q 1042 869 1107 842 q 906 897 978 897 l 350 897 l 350 53 m 674 1017 l 554 1190 l 597 1221 l 696 1078 l 794 1221 l 838 1190 l 718 1017 l 674 1017 z "},"É":{"ha":1242,"x_min":28,"x_max":1214,"o":"m 28 53 l 297 53 l 297 897 l 28 897 l 28 950 l 1183 950 l 1183 750 l 1131 750 l 1131 897 l 350 897 l 350 515 l 975 515 l 975 463 l 350 463 l 350 53 l 1160 53 l 1160 200 l 1214 200 l 1214 0 l 28 0 l 28 53 m 753 1238 l 797 1207 l 676 1032 l 633 1063 l 753 1238 z "},"Ě":{"ha":1242,"x_min":28,"x_max":1214,"o":"m 28 53 l 297 53 l 297 897 l 28 897 l 28 950 l 1183 950 l 1183 750 l 1131 750 l 1131 897 l 350 897 l 350 515 l 975 515 l 975 463 l 350 463 l 350 53 l 1160 53 l 1160 200 l 1214 200 l 1214 0 l 28 0 l 28 53 m 701 1017 l 582 1190 l 625 1221 l 724 1078 l 822 1221 l 865 1190 l 746 1017 l 701 1017 z "},"Ê":{"ha":1242,"x_min":28,"x_max":1214,"o":"m 28 53 l 297 53 l 297 897 l 28 897 l 28 950 l 1183 950 l 1183 750 l 1131 750 l 1131 897 l 350 897 l 350 515 l 975 515 l 975 463 l 350 463 l 350 53 l 1160 53 l 1160 200 l 1214 200 l 1214 0 l 28 0 l 28 53 m 749 1224 l 868 1049 l 825 1019 l 726 1161 l 628 1019 l 585 1049 l 704 1224 l 749 1224 z "},"Ë":{"ha":1242,"x_min":28,"x_max":1214,"o":"m 297 53 l 297 897 l 28 897 l 28 950 l 1183 950 l 1183 750 l 1131 750 l 1131 897 l 350 897 l 350 515 l 975 515 l 975 463 l 350 463 l 350 53 l 1160 53 l 1160 200 l 1214 200 l 1214 0 l 28 0 l 28 53 l 297 53 m 614 1208 q 673 1184 649 1208 q 699 1124 697 1160 q 674 1065 699 1089 q 614 1039 650 1040 l 579 1039 q 519 1063 544 1039 q 494 1122 494 1088 q 519 1183 494 1158 q 578 1207 543 1207 l 614 1208 m 854 1208 q 914 1184 889 1208 q 939 1124 939 1160 q 915 1065 939 1089 q 856 1039 890 1040 l 819 1039 q 760 1063 785 1039 q 735 1122 736 1088 q 759 1183 735 1158 q 818 1207 783 1207 l 854 1208 z "},"Ė":{"ha":1242,"x_min":28,"x_max":1214,"o":"m 297 53 l 297 897 l 28 897 l 28 950 l 1183 950 l 1183 750 l 1131 750 l 1131 897 l 350 897 l 350 515 l 975 515 l 975 463 l 350 463 l 350 53 l 1160 53 l 1160 200 l 1214 200 l 1214 0 l 28 0 l 28 53 l 297 53 m 736 1210 q 795 1185 771 1210 q 821 1125 819 1161 q 797 1066 821 1090 q 736 1040 772 1042 l 701 1040 q 642 1065 667 1040 q 617 1124 617 1089 q 641 1184 617 1160 q 700 1208 665 1208 l 736 1210 z "},"È":{"ha":1242,"x_min":28,"x_max":1214,"o":"m 28 53 l 297 53 l 297 897 l 28 897 l 28 950 l 1183 950 l 1183 750 l 1131 750 l 1131 897 l 350 897 l 350 515 l 975 515 l 975 463 l 350 463 l 350 53 l 1160 53 l 1160 200 l 1214 200 l 1214 0 l 28 0 l 28 53 m 685 1239 l 806 1064 l 761 1033 l 642 1208 l 685 1239 z "},"Ē":{"ha":1242,"x_min":28,"x_max":1214,"o":"m 28 53 l 297 53 l 297 897 l 28 897 l 28 950 l 1183 950 l 1183 750 l 1131 750 l 1131 897 l 350 897 l 350 515 l 975 515 l 975 463 l 350 463 l 350 53 l 1160 53 l 1160 200 l 1214 200 l 1214 0 l 28 0 l 28 53 m 899 1029 l 542 1029 l 542 1083 l 899 1083 l 899 1029 z "},"Ę":{"ha":1242,"x_min":28,"x_max":1214,"o":"m 608 -231 q 579 -161 579 -201 l 578 -135 q 607 -65 578 -94 q 675 -36 633 -39 l 694 -36 l 724 0 l 28 0 l 28 53 l 297 53 l 297 897 l 28 897 l 28 950 l 1183 950 l 1183 750 l 1131 750 l 1131 897 l 350 897 l 350 515 l 975 515 l 975 463 l 350 463 l 350 53 l 1160 53 l 1160 200 l 1214 200 l 1214 0 l 792 0 l 719 -90 l 675 -90 q 644 -103 657 -90 q 632 -135 632 -115 l 632 -161 q 644 -192 632 -179 q 676 -206 658 -206 l 738 -204 q 769 -192 757 -204 q 782 -160 782 -179 l 835 -160 q 807 -229 836 -197 q 739 -257 779 -257 l 676 -258 q 608 -231 636 -258 z "},"Ĝ":{"ha":1169,"x_min":28,"x_max":1142,"o":"m 1115 0 l 432 0 q 275 32 347 0 q 146 118 203 61 q 58 247 89 174 q 28 406 28 321 l 28 544 q 58 703 28 629 q 146 832 89 775 q 206 881 174 860 q 275 918 239 903 q 432 950 351 950 l 942 950 q 1024 933 986 950 q 1089 886 1061 915 l 1089 950 l 1142 950 l 1142 750 l 1089 750 q 1047 855 1089 813 q 942 897 1004 897 l 432 897 q 296 869 360 897 q 184 794 232 842 q 108 681 136 746 q 81 544 81 617 l 81 406 q 108 268 81 332 q 184 156 136 204 q 296 81 232 108 q 432 53 360 53 l 1089 53 l 1089 463 l 463 463 l 463 515 l 1142 515 l 1142 26 l 1115 26 l 1115 0 m 721 1224 l 840 1049 l 797 1019 l 699 1161 l 600 1019 l 557 1049 l 676 1224 l 721 1224 z "},"Ģ":{"ha":1169,"x_min":28,"x_max":1142,"o":"m 1115 0 l 432 0 q 275 32 347 0 q 146 118 203 61 q 58 247 89 174 q 28 406 28 321 l 28 544 q 58 703 28 629 q 146 832 89 775 q 206 881 174 860 q 275 918 239 903 q 432 950 351 950 l 942 950 q 1024 933 986 950 q 1089 886 1061 915 l 1089 950 l 1142 950 l 1142 750 l 1089 750 q 1047 855 1089 813 q 942 897 1004 897 l 432 897 q 296 869 360 897 q 184 794 232 842 q 108 681 136 746 q 81 544 81 617 l 81 406 q 108 268 81 332 q 184 156 136 204 q 296 81 232 108 q 432 53 360 53 l 1089 53 l 1089 463 l 463 463 l 463 515 l 1142 515 l 1142 26 l 1115 26 l 1115 0 m 585 -194 q 546 -179 561 -194 q 531 -140 531 -164 q 547 -103 531 -118 q 585 -87 563 -87 q 623 -103 607 -87 q 639 -140 639 -118 q 627 -193 639 -174 q 600 -222 615 -212 q 561 -237 583 -235 q 577 -217 572 -228 q 585 -194 582 -206 z "},"Ġ":{"ha":1169,"x_min":28,"x_max":1142,"o":"m 1115 0 l 432 0 q 275 32 347 0 q 146 118 203 61 q 58 247 89 174 q 28 406 28 321 l 28 544 q 58 703 28 629 q 146 832 89 775 q 206 881 174 860 q 275 918 239 903 q 432 950 351 950 l 942 950 q 1024 933 986 950 q 1089 886 1061 915 l 1089 950 l 1142 950 l 1142 750 l 1089 750 q 1047 855 1089 813 q 942 897 1004 897 l 432 897 q 296 869 360 897 q 184 794 232 842 q 108 681 136 746 q 81 544 81 617 l 81 406 q 108 268 81 332 q 184 156 136 204 q 296 81 232 108 q 432 53 360 53 l 1089 53 l 1089 463 l 463 463 l 463 515 l 1142 515 l 1142 26 l 1115 26 l 1115 0 m 708 1210 q 767 1185 743 1210 q 793 1125 792 1161 q 769 1066 793 1090 q 708 1040 744 1042 l 674 1040 q 614 1065 639 1040 q 589 1124 589 1089 q 613 1184 589 1160 q 672 1208 638 1208 l 708 1210 z "},"Ĥ":{"ha":1479,"x_min":28,"x_max":1451,"o":"m 1451 897 l 1183 897 l 1183 53 l 1451 53 l 1451 0 l 861 0 l 861 53 l 1131 53 l 1131 463 l 350 463 l 350 53 l 619 53 l 619 0 l 28 0 l 28 53 l 297 53 l 297 897 l 28 897 l 28 950 l 619 950 l 619 897 l 350 897 l 350 515 l 1131 515 l 1131 897 l 861 897 l 861 950 l 1451 950 l 1451 897 m 778 1221 l 897 1046 l 854 1017 l 756 1158 l 657 1017 l 614 1046 l 733 1221 l 778 1221 z "},"Í":{"ha":647,"x_min":28,"x_max":619,"o":"m 350 0 l 297 0 l 297 0 l 28 0 l 28 53 l 297 53 l 297 897 l 28 897 l 28 950 l 619 950 l 619 897 l 350 897 l 350 53 l 619 53 l 619 0 l 350 0 l 350 0 m 363 1238 l 407 1207 l 286 1032 l 243 1063 l 363 1238 z "},"Î":{"ha":647,"x_min":28,"x_max":619,"o":"m 350 0 l 297 0 l 297 0 l 28 0 l 28 53 l 297 53 l 297 897 l 28 897 l 28 950 l 619 950 l 619 897 l 350 897 l 350 53 l 619 53 l 619 0 l 350 0 l 350 0 m 358 1224 l 478 1049 l 435 1019 l 336 1161 l 238 1019 l 194 1049 l 314 1224 l 358 1224 z "},"Ï":{"ha":647,"x_min":28,"x_max":619,"o":"m 297 0 l 28 0 l 28 53 l 297 53 l 297 897 l 28 897 l 28 950 l 619 950 l 619 897 l 350 897 l 350 53 l 619 53 l 619 0 l 350 0 l 297 0 m 224 1208 q 283 1184 258 1208 q 308 1124 307 1160 q 284 1065 308 1089 q 224 1039 260 1040 l 189 1039 q 129 1063 154 1039 q 104 1122 104 1088 q 128 1183 104 1158 q 188 1207 153 1207 l 224 1208 m 464 1208 q 524 1184 499 1208 q 549 1124 549 1160 q 524 1065 549 1089 q 465 1039 500 1040 l 429 1039 q 370 1063 394 1039 q 344 1122 346 1088 q 369 1183 344 1158 q 428 1207 393 1207 l 464 1208 z "},"İ":{"ha":647,"x_min":28,"x_max":619,"o":"m 297 0 l 28 0 l 28 53 l 297 53 l 297 897 l 28 897 l 28 950 l 619 950 l 619 897 l 350 897 l 350 53 l 619 53 l 619 0 l 350 0 l 297 0 m 346 1210 q 405 1185 381 1210 q 431 1125 429 1161 q 406 1066 431 1090 q 346 1040 382 1042 l 311 1040 q 251 1065 276 1040 q 226 1124 226 1089 q 251 1184 226 1160 q 310 1208 275 1208 l 346 1210 z "},"Ì":{"ha":647,"x_min":28,"x_max":619,"o":"m 350 0 l 297 0 l 297 0 l 28 0 l 28 53 l 297 53 l 297 897 l 28 897 l 28 950 l 619 950 l 619 897 l 350 897 l 350 53 l 619 53 l 619 0 l 350 0 l 350 0 m 294 1239 l 415 1064 l 371 1033 l 251 1208 l 294 1239 z "},"Ī":{"ha":647,"x_min":28,"x_max":619,"o":"m 350 0 l 297 0 l 297 0 l 28 0 l 28 53 l 297 53 l 297 897 l 28 897 l 28 950 l 619 950 l 619 897 l 350 897 l 350 53 l 619 53 l 619 0 l 350 0 l 350 0 m 508 1029 l 151 1029 l 151 1083 l 508 1083 l 508 1029 z "},"Į":{"ha":647,"x_min":28,"x_max":619,"o":"m 185 -231 q 156 -161 156 -201 l 154 -135 q 183 -65 154 -94 q 251 -36 210 -39 l 271 -36 l 300 0 l 28 0 l 28 53 l 297 53 l 297 897 l 28 897 l 28 950 l 619 950 l 619 897 l 350 897 l 350 53 l 619 53 l 619 0 l 368 0 l 296 -90 l 251 -90 q 221 -103 233 -90 q 208 -135 208 -115 l 208 -161 q 221 -192 208 -179 q 253 -206 235 -206 l 314 -204 q 346 -192 333 -204 q 358 -160 358 -179 l 411 -160 q 383 -229 413 -197 q 315 -257 356 -257 l 253 -258 q 185 -231 213 -258 z "},"Ĩ":{"ha":647,"x_min":28,"x_max":619,"o":"m 297 0 l 28 0 l 28 53 l 297 53 l 297 897 l 28 897 l 28 950 l 619 950 l 619 897 l 350 897 l 350 53 l 619 53 l 619 0 l 350 0 l 297 0 m 231 1057 l 192 1093 l 210 1113 q 283 1149 243 1149 q 357 1113 325 1149 q 372 1099 364 1106 q 392 1093 381 1093 q 411 1099 403 1093 q 426 1113 419 1106 l 443 1132 l 483 1096 l 465 1076 q 392 1040 432 1040 q 318 1076 350 1040 q 303 1090 311 1083 q 283 1096 294 1096 q 264 1090 272 1096 q 249 1076 256 1083 l 231 1057 z "},"Ĵ":{"ha":1339,"x_min":28,"x_max":1311,"o":"m 638 53 q 774 81 710 53 q 885 156 838 108 q 961 268 933 204 q 989 406 989 332 l 989 897 l 721 897 l 721 950 l 1311 950 l 1311 897 l 1043 897 l 1043 406 q 1011 247 1043 324 q 924 118 979 174 q 794 32 867 61 q 638 0 722 0 l 433 0 q 275 32 347 0 q 146 118 203 61 q 97 178 118 146 q 60 247 75 211 q 28 406 28 324 l 81 406 q 108 268 81 332 q 184 156 136 204 q 296 81 232 108 q 433 53 360 53 l 638 53 m 1046 1228 l 1165 1053 l 1122 1024 l 1024 1165 l 925 1024 l 882 1053 l 1001 1228 l 1046 1228 z "},"Ķ":{"ha":1479,"x_min":28,"x_max":1451,"o":"m 696 638 l 1149 53 l 1451 53 l 1451 0 l 861 0 l 861 53 l 1082 53 l 649 613 l 350 447 l 350 53 l 619 53 l 619 0 l 28 0 l 28 53 l 297 53 l 297 897 l 28 897 l 28 950 l 619 950 l 619 897 l 350 897 l 350 507 l 1054 897 l 861 897 l 861 950 l 1451 950 l 1451 897 l 1164 897 l 696 638 m 739 -194 q 700 -179 715 -194 q 685 -140 685 -164 q 701 -103 685 -118 q 739 -87 717 -87 q 777 -103 761 -87 q 793 -140 793 -118 q 781 -193 793 -174 q 754 -222 769 -212 q 715 -237 738 -235 q 731 -217 726 -228 q 739 -194 736 -206 z "},"Ĺ":{"ha":1242,"x_min":28,"x_max":1214,"o":"m 1160 200 l 1214 200 l 1214 0 l 28 0 l 28 53 l 297 53 l 297 897 l 28 897 l 28 950 l 619 950 l 619 897 l 350 897 l 350 53 l 1160 53 l 1160 200 m 360 1238 l 404 1207 l 283 1032 l 240 1063 l 360 1238 z "},"Ľ":{"ha":1242,"x_min":28,"x_max":1214,"o":"m 1160 200 l 1214 200 l 1214 0 l 28 0 l 28 53 l 297 53 l 297 897 l 28 897 l 28 950 l 619 950 l 619 897 l 350 897 l 350 53 l 1160 53 l 1160 200 m 304 1022 l 185 1196 l 228 1226 l 326 1083 l 425 1226 l 468 1196 l 349 1022 l 304 1022 z "},"Ļ":{"ha":1242,"x_min":28,"x_max":1214,"o":"m 1214 200 l 1214 0 l 28 0 l 28 53 l 297 53 l 297 897 l 28 897 l 28 950 l 619 950 l 619 897 l 350 897 l 350 53 l 1160 53 l 1160 200 l 1214 200 m 621 -194 q 582 -179 597 -194 q 567 -140 567 -164 q 583 -103 567 -118 q 621 -87 599 -87 q 659 -103 643 -87 q 675 -140 675 -118 q 663 -193 675 -174 q 636 -222 651 -212 q 597 -237 619 -235 q 613 -217 608 -228 q 621 -194 618 -206 z "},"Ń":{"ha":1479,"x_min":28,"x_max":1451,"o":"m 28 951 l 336 951 l 1131 94 l 1131 897 l 861 897 l 861 951 l 1451 951 l 1451 897 l 1183 897 l 1183 53 l 1451 53 l 1451 0 l 861 0 l 861 53 l 1096 53 l 350 857 l 350 53 l 619 53 l 619 0 l 28 0 l 28 53 l 297 53 l 297 897 l 28 897 l 28 951 m 753 1249 l 797 1218 l 676 1043 l 633 1074 l 753 1249 z "},"Ň":{"ha":1479,"x_min":28,"x_max":1451,"o":"m 28 951 l 336 951 l 1131 94 l 1131 897 l 861 897 l 861 951 l 1451 951 l 1451 897 l 1183 897 l 1183 53 l 1451 53 l 1451 0 l 861 0 l 861 53 l 1096 53 l 350 857 l 350 53 l 619 53 l 619 0 l 28 0 l 28 53 l 297 53 l 297 897 l 28 897 l 28 951 m 701 1028 l 582 1201 l 625 1232 l 724 1089 l 822 1232 l 865 1201 l 746 1028 l 701 1028 z "},"Ņ":{"ha":1479,"x_min":28,"x_max":1451,"o":"m 336 951 l 1131 94 l 1131 897 l 861 897 l 861 951 l 1451 951 l 1451 897 l 1183 897 l 1183 53 l 1451 53 l 1451 0 l 861 0 l 861 53 l 1096 53 l 350 857 l 350 53 l 619 53 l 619 0 l 28 0 l 28 53 l 297 53 l 297 897 l 28 897 l 28 951 l 336 951 m 739 -194 q 700 -179 715 -194 q 685 -140 685 -164 q 701 -103 685 -118 q 739 -87 717 -87 q 777 -103 761 -87 q 793 -140 793 -118 q 781 -193 793 -174 q 754 -222 769 -212 q 715 -237 738 -235 q 731 -217 726 -228 q 739 -194 736 -206 z "},"Ñ":{"ha":1479,"x_min":28,"x_max":1451,"o":"m 336 951 l 1131 94 l 1131 897 l 861 897 l 861 951 l 1451 951 l 1451 897 l 1183 897 l 1183 53 l 1451 53 l 1451 0 l 861 0 l 861 53 l 1096 53 l 350 857 l 350 53 l 619 53 l 619 0 l 28 0 l 28 53 l 297 53 l 297 897 l 28 897 l 28 951 l 336 951 m 621 1068 l 582 1104 l 600 1124 q 674 1160 633 1160 q 747 1124 715 1160 q 763 1110 754 1117 q 782 1104 771 1104 q 801 1110 793 1104 q 817 1124 810 1117 l 833 1143 l 874 1107 l 856 1088 q 782 1051 822 1051 q 708 1088 740 1051 q 693 1101 701 1094 q 674 1107 685 1107 q 654 1101 663 1107 q 639 1088 646 1094 l 621 1068 z "},"Ó":{"ha":1275,"x_min":28,"x_max":1247,"o":"m 275 919 q 433 951 351 951 l 842 951 q 1000 919 924 951 q 1068 882 1036 904 q 1128 832 1100 860 q 1215 703 1183 775 q 1247 546 1247 626 l 1247 406 q 1215 247 1247 324 q 1178 178 1200 211 q 1128 118 1156 146 q 1068 69 1100 90 q 1000 32 1036 47 q 842 0 924 0 l 433 0 q 275 32 351 0 q 146 118 203 63 q 60 247 92 174 q 28 406 28 324 l 28 546 q 60 703 28 626 q 146 832 90 775 q 275 919 201 888 m 1194 546 q 1167 683 1194 618 q 1091 794 1139 747 q 978 869 1043 842 q 842 897 914 897 l 433 897 q 296 869 360 897 q 184 794 232 842 q 108 683 136 747 q 81 546 81 618 l 81 406 q 108 268 81 332 q 184 156 136 204 q 296 81 232 108 q 433 53 360 53 l 842 53 q 978 81 914 53 q 1091 156 1043 108 q 1167 268 1139 204 q 1194 406 1194 332 l 1194 546 m 729 1207 l 608 1032 l 565 1063 l 685 1238 l 729 1207 z "},"Ö":{"ha":1275,"x_min":28,"x_max":1247,"o":"m 275 919 q 433 951 351 951 l 842 951 q 1000 919 924 951 q 1068 882 1036 904 q 1128 832 1100 860 q 1215 703 1183 775 q 1247 546 1247 626 l 1247 406 q 1215 247 1247 324 q 1178 178 1200 211 q 1128 118 1156 146 q 1068 69 1100 90 q 1000 32 1036 47 q 842 0 924 0 l 433 0 q 275 32 351 0 q 146 118 203 63 q 60 247 92 174 q 28 406 28 324 l 28 546 q 60 703 28 626 q 146 832 90 775 q 275 919 201 888 m 1194 546 q 1167 683 1194 618 q 1091 794 1139 747 q 978 869 1043 842 q 842 897 914 897 l 433 897 q 296 869 360 897 q 184 794 232 842 q 108 683 136 747 q 81 546 81 618 l 81 406 q 108 268 81 332 q 184 156 136 204 q 296 81 232 108 q 433 53 360 53 l 842 53 q 978 81 914 53 q 1091 156 1043 108 q 1167 268 1139 204 q 1194 406 1194 332 l 1194 546 m 546 1208 q 605 1184 581 1208 q 631 1124 629 1160 q 606 1065 631 1089 q 546 1039 582 1040 l 511 1039 q 451 1063 476 1039 q 426 1122 426 1088 q 451 1183 426 1158 q 510 1207 475 1207 l 546 1208 m 786 1208 q 846 1184 821 1208 q 871 1124 871 1160 q 847 1065 871 1089 q 788 1039 822 1040 l 751 1039 q 692 1063 717 1039 q 667 1122 668 1088 q 691 1183 667 1158 q 750 1207 715 1207 l 786 1208 z "},"Ò":{"ha":1275,"x_min":28,"x_max":1247,"o":"m 275 919 q 433 951 351 951 l 842 951 q 1000 919 924 951 q 1068 882 1036 904 q 1128 832 1100 860 q 1215 703 1183 775 q 1247 546 1247 626 l 1247 406 q 1215 247 1247 324 q 1178 178 1200 211 q 1128 118 1156 146 q 1068 69 1100 90 q 1000 32 1036 47 q 842 0 924 0 l 433 0 q 275 32 351 0 q 146 118 203 63 q 60 247 92 174 q 28 406 28 324 l 28 546 q 60 703 28 626 q 146 832 90 775 q 275 919 201 888 m 1194 546 q 1167 683 1194 618 q 1091 794 1139 747 q 978 869 1043 842 q 842 897 914 897 l 433 897 q 296 869 360 897 q 184 794 232 842 q 108 683 136 747 q 81 546 81 618 l 81 406 q 108 268 81 332 q 184 156 136 204 q 296 81 232 108 q 433 53 360 53 l 842 53 q 978 81 914 53 q 1091 156 1043 108 q 1167 268 1139 204 q 1194 406 1194 332 l 1194 546 m 738 1064 l 693 1033 l 574 1208 l 617 1239 l 738 1064 z "},"Ő":{"ha":1275,"x_min":28,"x_max":1247,"o":"m 275 919 q 433 951 351 951 l 842 951 q 1000 919 924 951 q 1068 882 1036 904 q 1128 832 1100 860 q 1215 703 1183 775 q 1247 546 1247 626 l 1247 406 q 1215 247 1247 324 q 1178 178 1200 211 q 1128 118 1156 146 q 1068 69 1100 90 q 1000 32 1036 47 q 842 0 924 0 l 433 0 q 275 32 351 0 q 146 118 203 63 q 60 247 92 174 q 28 406 28 324 l 28 546 q 60 703 28 626 q 146 832 90 775 q 275 919 201 888 m 1194 546 q 1167 683 1194 618 q 1091 794 1139 747 q 978 869 1043 842 q 842 897 914 897 l 433 897 q 296 869 360 897 q 184 794 232 842 q 108 683 136 747 q 81 546 81 618 l 81 406 q 108 268 81 332 q 184 156 136 204 q 296 81 232 108 q 433 53 360 53 l 842 53 q 978 81 914 53 q 1091 156 1043 108 q 1167 268 1139 204 q 1194 406 1194 332 l 1194 546 m 689 1232 l 600 1028 l 551 1049 l 640 1253 l 689 1232 m 779 1232 l 689 1028 l 640 1049 l 731 1253 l 779 1232 z "},"Ō":{"ha":1275,"x_min":28,"x_max":1247,"o":"m 275 919 q 433 951 351 951 l 842 951 q 1000 919 924 951 q 1068 882 1036 904 q 1128 832 1100 860 q 1215 703 1183 775 q 1247 546 1247 626 l 1247 406 q 1215 247 1247 324 q 1178 178 1200 211 q 1128 118 1156 146 q 1068 69 1100 90 q 1000 32 1036 47 q 842 0 924 0 l 433 0 q 275 32 351 0 q 146 118 203 63 q 60 247 92 174 q 28 406 28 324 l 28 546 q 60 703 28 626 q 146 832 90 775 q 275 919 201 888 m 1194 546 q 1167 683 1194 618 q 1091 794 1139 747 q 978 869 1043 842 q 842 897 914 897 l 433 897 q 296 869 360 897 q 184 794 232 842 q 108 683 136 747 q 81 546 81 618 l 81 406 q 108 268 81 332 q 184 156 136 204 q 296 81 232 108 q 433 53 360 53 l 842 53 q 978 81 914 53 q 1091 156 1043 108 q 1167 268 1139 204 q 1194 406 1194 332 l 1194 546 m 831 1029 l 474 1029 l 474 1083 l 831 1083 l 831 1029 z "},"Õ":{"ha":1275,"x_min":28,"x_max":1247,"o":"m 275 919 q 433 951 351 951 l 842 951 q 1000 919 924 951 q 1068 882 1036 904 q 1128 832 1100 860 q 1215 703 1183 775 q 1247 546 1247 626 l 1247 406 q 1215 247 1247 324 q 1178 178 1200 211 q 1128 118 1156 146 q 1068 69 1100 90 q 1000 32 1036 47 q 842 0 924 0 l 433 0 q 275 32 351 0 q 146 118 203 63 q 60 247 92 174 q 28 406 28 324 l 28 546 q 60 703 28 626 q 146 832 90 775 q 275 919 201 888 m 1194 546 q 1167 683 1194 618 q 1091 794 1139 747 q 978 869 1043 842 q 842 897 914 897 l 433 897 q 296 869 360 897 q 184 794 232 842 q 108 683 136 747 q 81 546 81 618 l 81 406 q 108 268 81 332 q 184 156 136 204 q 296 81 232 108 q 433 53 360 53 l 842 53 q 978 81 914 53 q 1091 156 1043 108 q 1167 268 1139 204 q 1194 406 1194 332 l 1194 546 m 553 1057 l 514 1093 l 532 1113 q 606 1149 565 1149 q 679 1113 647 1149 q 694 1099 686 1106 q 714 1093 703 1093 q 733 1099 725 1093 q 749 1113 742 1106 l 765 1132 l 806 1096 l 788 1076 q 714 1040 754 1040 q 640 1076 672 1040 q 625 1090 633 1083 q 606 1096 617 1096 q 586 1090 594 1096 q 571 1076 578 1083 l 553 1057 z "},"Ŕ":{"ha":1397,"x_min":28,"x_max":1369,"o":"m 28 0 l 28 53 l 297 53 l 297 897 l 28 897 l 28 951 l 938 951 q 1031 933 986 951 q 1111 879 1075 914 q 1182 706 1182 808 l 1182 682 q 1111 508 1182 579 q 1031 455 1075 474 q 938 436 986 436 l 833 436 l 1100 53 l 1369 53 l 1369 0 l 779 0 l 779 53 l 1035 53 l 769 436 l 350 436 l 350 53 l 618 53 l 618 0 l 28 0 m 350 897 l 350 490 l 938 490 q 1012 505 976 490 q 1073 546 1047 519 q 1114 607 1099 572 q 1129 682 1129 642 l 1129 706 q 1114 781 1129 746 q 1073 842 1099 815 q 1012 883 1047 868 q 938 897 976 897 l 350 897 m 708 1204 l 588 1029 l 544 1060 l 664 1235 l 708 1204 z "},"Ř":{"ha":1397,"x_min":28,"x_max":1369,"o":"m 28 0 l 28 53 l 297 53 l 297 897 l 28 897 l 28 951 l 938 951 q 1031 933 986 951 q 1111 879 1075 914 q 1182 706 1182 808 l 1182 682 q 1111 508 1182 579 q 1031 455 1075 474 q 938 436 986 436 l 833 436 l 1100 53 l 1369 53 l 1369 0 l 779 0 l 779 53 l 1035 53 l 769 436 l 350 436 l 350 53 l 618 53 l 618 0 l 28 0 m 350 897 l 350 490 l 938 490 q 1012 505 976 490 q 1073 546 1047 519 q 1114 607 1099 572 q 1129 682 1129 642 l 1129 706 q 1114 781 1129 746 q 1073 842 1099 815 q 1012 883 1047 868 q 938 897 976 897 l 350 897 m 613 1014 l 493 1188 l 536 1218 l 635 1075 l 733 1218 l 776 1188 l 657 1014 l 613 1014 z "},"Ŗ":{"ha":1397,"x_min":28,"x_max":1369,"o":"m 28 0 l 28 53 l 297 53 l 297 897 l 28 897 l 28 951 l 938 951 q 1031 933 986 951 q 1111 879 1075 914 q 1182 706 1182 808 l 1182 682 q 1111 508 1182 579 q 1031 455 1075 474 q 938 436 986 436 l 833 436 l 1100 53 l 1369 53 l 1369 0 l 779 0 l 779 53 l 1035 53 l 769 436 l 350 436 l 350 53 l 618 53 l 618 0 l 28 0 m 350 897 l 350 490 l 938 490 q 1012 505 976 490 q 1073 546 1047 519 q 1114 607 1099 572 q 1129 682 1129 642 l 1129 706 q 1114 781 1129 746 q 1073 842 1099 815 q 1012 883 1047 868 q 938 897 976 897 l 350 897 m 699 -194 q 660 -179 675 -194 q 644 -140 644 -164 q 660 -103 644 -118 q 699 -87 676 -87 q 737 -103 721 -87 q 753 -140 753 -118 q 741 -193 753 -174 q 714 -222 729 -212 q 675 -237 697 -235 q 691 -217 686 -228 q 699 -194 696 -206 z "},"Ś":{"ha":1144,"x_min":28,"x_max":1117,"o":"m 872 53 q 947 68 911 53 q 1008 109 982 83 q 1049 169 1033 135 q 1064 244 1064 204 l 1064 269 q 1049 344 1064 308 q 1008 405 1033 379 q 947 446 982 431 q 872 461 911 461 l 794 461 l 400 461 l 272 461 q 179 480 224 461 q 100 533 135 499 q 46 613 64 568 q 28 706 28 657 q 46 800 28 756 q 100 879 64 844 q 179 933 135 914 q 272 951 224 951 l 850 951 q 931 934 893 951 q 996 886 968 917 l 996 951 l 1050 951 l 1050 751 l 996 751 q 984 808 996 782 q 953 854 972 835 q 907 885 933 874 q 850 897 881 897 l 272 897 q 197 883 232 897 q 137 842 163 868 q 96 781 111 815 q 81 706 81 746 q 96 631 81 665 q 137 570 111 596 q 197 529 163 544 q 272 514 232 514 l 400 514 l 794 514 l 872 514 q 1044 443 974 514 q 1099 363 1081 408 q 1117 269 1117 318 l 1117 244 q 1099 151 1117 196 q 1044 72 1081 107 q 965 18 1010 36 q 872 0 921 0 l 240 0 q 166 15 200 0 q 106 57 132 31 l 106 0 l 53 0 l 53 188 l 106 188 q 116 135 106 160 q 145 92 126 111 q 188 63 164 74 q 240 53 213 53 l 872 53 m 647 1214 l 526 1039 l 483 1069 l 603 1244 l 647 1214 z "},"Š":{"ha":1144,"x_min":28,"x_max":1117,"o":"m 872 53 q 947 68 911 53 q 1008 109 982 83 q 1049 169 1033 135 q 1064 244 1064 204 l 1064 269 q 1049 344 1064 308 q 1008 405 1033 379 q 947 446 982 431 q 872 461 911 461 l 794 461 l 400 461 l 272 461 q 179 480 224 461 q 100 533 135 499 q 46 613 64 568 q 28 706 28 657 q 46 800 28 756 q 100 879 64 844 q 179 933 135 914 q 272 951 224 951 l 850 951 q 931 934 893 951 q 996 886 968 917 l 996 951 l 1050 951 l 1050 751 l 996 751 q 984 808 996 782 q 953 854 972 835 q 907 885 933 874 q 850 897 881 897 l 272 897 q 197 883 232 897 q 137 842 163 868 q 96 781 111 815 q 81 706 81 746 q 96 631 81 665 q 137 570 111 596 q 197 529 163 544 q 272 514 232 514 l 400 514 l 794 514 l 872 514 q 1044 443 974 514 q 1099 363 1081 408 q 1117 269 1117 318 l 1117 244 q 1099 151 1117 196 q 1044 72 1081 107 q 965 18 1010 36 q 872 0 921 0 l 240 0 q 166 15 200 0 q 106 57 132 31 l 106 0 l 53 0 l 53 188 l 106 188 q 116 135 106 160 q 145 92 126 111 q 188 63 164 74 q 240 53 213 53 l 872 53 m 551 1024 l 432 1197 l 475 1228 l 574 1085 l 672 1228 l 715 1197 l 596 1024 l 551 1024 z "},"Ş":{"ha":1144,"x_min":28,"x_max":1117,"o":"m 601 -31 q 671 -59 642 -31 q 700 -128 700 -87 l 700 -154 q 672 -224 701 -192 q 604 -251 644 -251 l 542 -253 q 472 -225 503 -253 q 443 -156 446 -196 l 497 -156 q 510 -186 497 -174 q 542 -200 524 -200 l 603 -199 q 635 -186 622 -199 q 647 -154 647 -174 l 647 -128 q 635 -96 647 -108 q 603 -83 622 -83 l 485 -85 l 553 0 l 240 0 q 166 15 200 0 q 106 57 132 31 l 106 0 l 53 0 l 53 188 l 106 188 q 116 135 106 160 q 145 92 126 111 q 188 63 164 74 q 240 53 213 53 l 872 53 q 947 68 911 53 q 1008 109 982 83 q 1049 169 1033 135 q 1064 244 1064 204 l 1064 269 q 1049 344 1064 308 q 1008 405 1033 379 q 947 446 982 431 q 872 461 911 461 l 272 461 q 179 480 224 461 q 100 533 135 499 q 46 613 64 568 q 28 706 28 657 q 46 800 28 756 q 100 879 64 844 q 179 933 135 914 q 272 951 224 951 l 850 951 q 931 934 893 951 q 996 886 968 917 l 996 951 l 1050 951 l 1050 751 l 996 751 q 984 808 996 782 q 953 854 972 835 q 907 885 933 874 q 850 897 881 897 l 272 897 q 197 883 232 897 q 137 842 163 868 q 96 781 111 815 q 81 706 81 746 q 96 631 81 665 q 137 570 111 596 q 197 529 163 544 q 272 514 232 514 l 872 514 q 1044 443 974 514 q 1099 363 1081 408 q 1117 269 1117 318 l 1117 244 q 1099 151 1117 196 q 1044 72 1081 107 q 965 18 1010 36 q 872 0 921 0 l 621 0 l 597 -31 l 601 -31 z "},"Ŝ":{"ha":1144,"x_min":28,"x_max":1117,"o":"m 872 53 q 947 68 911 53 q 1008 109 982 83 q 1049 169 1033 135 q 1064 244 1064 204 l 1064 269 q 1049 344 1064 308 q 1008 405 1033 379 q 947 446 982 431 q 872 461 911 461 l 794 461 l 400 461 l 272 461 q 179 480 224 461 q 100 533 135 499 q 46 613 64 568 q 28 706 28 657 q 46 800 28 756 q 100 879 64 844 q 179 933 135 914 q 272 951 224 951 l 850 951 q 931 934 893 951 q 996 886 968 917 l 996 951 l 1050 951 l 1050 751 l 996 751 q 984 808 996 782 q 953 854 972 835 q 907 885 933 874 q 850 897 881 897 l 272 897 q 197 883 232 897 q 137 842 163 868 q 96 781 111 815 q 81 706 81 746 q 96 631 81 665 q 137 570 111 596 q 197 529 163 544 q 272 514 232 514 l 400 514 l 794 514 l 872 514 q 1044 443 974 514 q 1099 363 1081 408 q 1117 269 1117 318 l 1117 244 q 1099 151 1117 196 q 1044 72 1081 107 q 965 18 1010 36 q 872 0 921 0 l 240 0 q 166 15 200 0 q 106 57 132 31 l 106 0 l 53 0 l 53 188 l 106 188 q 116 135 106 160 q 145 92 126 111 q 188 63 164 74 q 240 53 213 53 l 872 53 m 599 1231 l 718 1056 l 675 1026 l 576 1168 l 478 1026 l 435 1056 l 554 1231 l 599 1231 z "},"Ș":{"ha":1144,"x_min":28,"x_max":1117,"o":"m 872 53 q 947 68 911 53 q 1008 109 982 83 q 1049 169 1033 135 q 1064 244 1064 204 l 1064 269 q 1049 344 1064 308 q 1008 405 1033 379 q 947 446 982 431 q 872 461 911 461 l 794 461 l 400 461 l 272 461 q 179 480 224 461 q 100 533 135 499 q 46 613 64 568 q 28 706 28 657 q 46 800 28 756 q 100 879 64 844 q 179 933 135 914 q 272 951 224 951 l 850 951 q 931 934 893 951 q 996 886 968 917 l 996 951 l 1050 951 l 1050 751 l 996 751 q 984 808 996 782 q 953 854 972 835 q 907 885 933 874 q 850 897 881 897 l 272 897 q 197 883 232 897 q 137 842 163 868 q 96 781 111 815 q 81 706 81 746 q 96 631 81 665 q 137 570 111 596 q 197 529 163 544 q 272 514 232 514 l 400 514 l 794 514 l 872 514 q 1044 443 974 514 q 1099 363 1081 408 q 1117 269 1117 318 l 1117 244 q 1099 151 1117 196 q 1044 72 1081 107 q 965 18 1010 36 q 872 0 921 0 l 240 0 q 166 15 200 0 q 106 57 132 31 l 106 0 l 53 0 l 53 188 l 106 188 q 116 135 106 160 q 145 92 126 111 q 188 63 164 74 q 240 53 213 53 l 872 53 m 574 -196 q 535 -181 550 -196 q 519 -142 519 -165 q 535 -104 519 -119 q 574 -89 551 -89 q 612 -104 596 -89 q 628 -142 628 -119 q 616 -194 628 -175 q 589 -224 604 -214 q 550 -239 572 -236 q 566 -218 561 -229 q 574 -196 571 -207 z "},"Ť":{"ha":1239,"x_min":28,"x_max":1211,"o":"m 28 751 l 28 951 l 1211 951 l 1211 751 l 1158 751 l 1158 897 l 646 897 l 646 53 l 915 53 l 915 0 l 324 0 l 324 53 l 593 53 l 593 897 l 81 897 l 81 751 l 28 751 m 606 1017 l 486 1190 l 529 1221 l 628 1078 l 726 1221 l 769 1190 l 650 1017 l 606 1017 z "},"Ţ":{"ha":1239,"x_min":28,"x_max":1211,"o":"m 28 951 l 1211 951 l 1211 751 l 1158 751 l 1158 897 l 646 897 l 646 53 l 915 53 l 915 0 l 324 0 l 324 53 l 593 53 l 593 897 l 81 897 l 81 751 l 28 751 l 28 951 m 619 -194 q 581 -179 596 -194 q 565 -140 565 -164 q 581 -103 565 -118 q 619 -87 597 -87 q 658 -103 642 -87 q 674 -140 674 -118 q 662 -193 674 -174 q 635 -222 650 -212 q 596 -237 618 -235 q 612 -217 607 -228 q 619 -194 617 -206 z "},"Ú":{"ha":1608,"x_min":28,"x_max":1581,"o":"m 329 247 q 297 404 297 319 l 297 897 l 28 897 l 28 950 l 618 950 l 618 897 l 350 897 l 350 404 q 378 267 350 331 q 453 156 406 203 q 565 81 501 108 q 703 53 629 53 l 906 53 q 1042 81 978 53 q 1155 156 1107 108 q 1231 267 1203 203 q 1258 404 1258 331 l 1258 897 l 990 897 l 990 950 l 1581 950 l 1581 897 l 1311 897 l 1311 404 q 1279 247 1311 319 q 1193 118 1250 175 q 1064 31 1136 61 q 906 -1 988 -1 l 703 -1 q 544 31 621 -1 q 415 118 471 61 q 329 247 358 175 m 885 1214 l 764 1039 l 721 1069 l 840 1244 l 885 1214 z "},"Û":{"ha":1608,"x_min":28,"x_max":1581,"o":"m 329 247 q 297 404 297 319 l 297 897 l 28 897 l 28 950 l 618 950 l 618 897 l 350 897 l 350 404 q 378 267 350 331 q 453 156 406 203 q 565 81 501 108 q 703 53 629 53 l 906 53 q 1042 81 978 53 q 1155 156 1107 108 q 1231 267 1203 203 q 1258 404 1258 331 l 1258 897 l 990 897 l 990 950 l 1581 950 l 1581 897 l 1311 897 l 1311 404 q 1279 247 1311 319 q 1193 118 1250 175 q 1064 31 1136 61 q 906 -1 988 -1 l 703 -1 q 544 31 621 -1 q 415 118 471 61 q 329 247 358 175 m 836 1231 l 956 1056 l 913 1026 l 814 1168 l 715 1026 l 672 1056 l 792 1231 l 836 1231 z "},"Ü":{"ha":1608,"x_min":28,"x_max":1581,"o":"m 329 247 q 297 404 297 319 l 297 897 l 28 897 l 28 950 l 618 950 l 618 897 l 350 897 l 350 404 q 378 267 350 331 q 453 156 406 203 q 565 81 501 108 q 703 53 629 53 l 906 53 q 1042 81 978 53 q 1155 156 1107 108 q 1231 267 1203 203 q 1258 404 1258 331 l 1258 897 l 990 897 l 990 950 l 1581 950 l 1581 897 l 1311 897 l 1311 404 q 1279 247 1311 319 q 1193 118 1250 175 q 1064 31 1136 61 q 906 -1 988 -1 l 703 -1 q 544 31 621 -1 q 415 118 471 61 q 329 247 358 175 m 701 1215 q 760 1191 736 1215 q 786 1131 785 1167 q 762 1072 786 1096 q 701 1046 738 1047 l 667 1046 q 607 1070 632 1046 q 582 1129 582 1094 q 606 1190 582 1165 q 665 1214 631 1214 l 701 1215 m 942 1215 q 1001 1191 976 1215 q 1026 1131 1026 1167 q 1002 1072 1026 1096 q 943 1046 978 1047 l 907 1046 q 848 1070 872 1046 q 822 1129 824 1094 q 847 1190 822 1165 q 906 1214 871 1214 l 942 1215 z "},"Ù":{"ha":1608,"x_min":28,"x_max":1581,"o":"m 329 247 q 297 404 297 319 l 297 897 l 28 897 l 28 950 l 618 950 l 618 897 l 350 897 l 350 404 q 378 267 350 331 q 453 156 406 203 q 565 81 501 108 q 703 53 629 53 l 906 53 q 1042 81 978 53 q 1155 156 1107 108 q 1231 267 1203 203 q 1258 404 1258 331 l 1258 897 l 990 897 l 990 950 l 1581 950 l 1581 897 l 1311 897 l 1311 404 q 1279 247 1311 319 q 1193 118 1250 175 q 1064 31 1136 61 q 906 -1 988 -1 l 703 -1 q 544 31 621 -1 q 415 118 471 61 q 329 247 358 175 m 893 1071 l 849 1040 l 729 1215 l 772 1246 l 893 1071 z "},"Ű":{"ha":1608,"x_min":28,"x_max":1581,"o":"m 329 247 q 297 404 297 319 l 297 897 l 28 897 l 28 950 l 618 950 l 618 897 l 350 897 l 350 404 q 378 267 350 331 q 453 156 406 203 q 565 81 501 108 q 703 53 629 53 l 906 53 q 1042 81 978 53 q 1155 156 1107 108 q 1231 267 1203 203 q 1258 404 1258 331 l 1258 897 l 990 897 l 990 950 l 1581 950 l 1581 897 l 1311 897 l 1311 404 q 1279 247 1311 319 q 1193 118 1250 175 q 1064 31 1136 61 q 906 -1 988 -1 l 703 -1 q 544 31 621 -1 q 415 118 471 61 q 329 247 358 175 m 844 1239 l 756 1035 l 707 1056 l 796 1260 l 844 1239 m 935 1239 l 844 1035 l 796 1056 l 886 1260 l 935 1239 z "},"Ū":{"ha":1608,"x_min":28,"x_max":1581,"o":"m 329 247 q 297 404 297 319 l 297 897 l 28 897 l 28 950 l 618 950 l 618 897 l 350 897 l 350 404 q 378 267 350 331 q 453 156 406 203 q 565 81 501 108 q 703 53 629 53 l 906 53 q 1042 81 978 53 q 1155 156 1107 108 q 1231 267 1203 203 q 1258 404 1258 331 l 1258 897 l 990 897 l 990 950 l 1581 950 l 1581 897 l 1311 897 l 1311 404 q 1279 247 1311 319 q 1193 118 1250 175 q 1064 31 1136 61 q 906 -1 988 -1 l 703 -1 q 544 31 621 -1 q 415 118 471 61 q 329 247 358 175 m 986 1036 l 629 1036 l 629 1090 l 986 1090 l 986 1036 z "},"Ų":{"ha":1608,"x_min":28,"x_max":1581,"o":"m 649 -229 q 619 -160 619 -200 l 618 -133 q 647 -64 618 -93 q 715 -35 674 -37 l 735 -35 l 761 -1 l 703 -1 q 544 31 621 -1 q 415 118 471 61 q 329 247 358 175 q 297 404 297 319 l 297 897 l 28 897 l 28 950 l 618 950 l 618 897 l 350 897 l 350 404 q 378 267 350 331 q 453 156 406 203 q 565 81 501 108 q 703 53 629 53 l 906 53 q 1042 81 978 53 q 1155 156 1107 108 q 1231 267 1203 203 q 1258 404 1258 331 l 1258 897 l 990 897 l 990 950 l 1581 950 l 1581 897 l 1311 897 l 1311 404 q 1279 247 1311 319 q 1193 118 1250 175 q 1064 31 1136 61 q 906 -1 988 -1 l 831 -1 l 760 -89 l 715 -89 q 685 -101 697 -89 q 672 -133 672 -114 l 672 -160 q 685 -190 672 -178 q 717 -204 699 -204 l 778 -203 q 810 -190 797 -203 q 822 -158 822 -178 l 875 -158 q 847 -228 876 -196 q 779 -256 819 -256 l 717 -257 q 649 -229 676 -257 z "},"Ů":{"ha":1608,"x_min":28,"x_max":1581,"o":"m 329 247 q 297 404 297 319 l 297 897 l 28 897 l 28 950 l 618 950 l 618 897 l 350 897 l 350 404 q 378 267 350 331 q 453 156 406 203 q 565 81 501 108 q 703 53 629 53 l 906 53 q 1042 81 978 53 q 1155 156 1107 108 q 1231 267 1203 203 q 1258 404 1258 331 l 1258 897 l 990 897 l 990 950 l 1581 950 l 1581 897 l 1311 897 l 1311 404 q 1279 247 1311 319 q 1193 118 1250 175 q 1064 31 1136 61 q 906 -1 988 -1 l 703 -1 q 544 31 621 -1 q 415 118 471 61 q 329 247 358 175 m 783 1043 q 715 1072 743 1043 q 686 1140 686 1100 l 685 1167 q 714 1235 685 1207 q 782 1264 740 1264 l 844 1265 q 913 1237 885 1265 q 942 1168 942 1208 l 942 1142 q 914 1072 943 1104 q 846 1043 885 1043 l 783 1043 m 751 1199 q 739 1167 739 1186 l 739 1140 q 751 1108 739 1121 q 783 1096 764 1096 l 844 1096 q 876 1110 865 1099 q 889 1142 889 1122 l 889 1168 q 876 1199 889 1186 q 844 1213 863 1213 l 782 1211 q 751 1199 764 1211 z "},"Ũ":{"ha":1608,"x_min":28,"x_max":1581,"o":"m 329 247 q 297 404 297 319 l 297 897 l 28 897 l 28 950 l 618 950 l 618 897 l 350 897 l 350 404 q 378 267 350 331 q 453 156 406 203 q 565 81 501 108 q 703 53 629 53 l 906 53 q 1042 81 978 53 q 1155 156 1107 108 q 1231 267 1203 203 q 1258 404 1258 331 l 1258 897 l 990 897 l 990 950 l 1581 950 l 1581 897 l 1311 897 l 1311 404 q 1279 247 1311 319 q 1193 118 1250 175 q 1064 31 1136 61 q 906 -1 988 -1 l 703 -1 q 544 31 621 -1 q 415 118 471 61 q 329 247 358 175 m 708 1064 l 669 1100 l 688 1119 q 761 1156 721 1156 q 835 1119 803 1156 q 850 1106 842 1113 q 869 1100 858 1100 q 889 1106 881 1100 q 904 1119 897 1113 l 921 1139 l 961 1103 l 943 1083 q 869 1047 910 1047 q 796 1083 828 1047 q 781 1097 789 1090 q 761 1103 772 1103 q 742 1097 750 1103 q 726 1083 733 1090 l 708 1064 z "},"Ẃ":{"ha":2392,"x_min":28,"x_max":2364,"o":"m 2364 897 l 2074 897 l 1660 0 l 1607 0 l 1196 888 l 785 0 l 732 0 l 318 897 l 28 897 l 28 950 l 618 950 l 618 897 l 376 897 l 758 69 l 1142 897 l 900 897 l 900 950 l 1490 950 l 1490 897 l 1250 897 l 1633 69 l 2015 897 l 1774 897 l 1774 950 l 2364 950 l 2364 897 m 1229 1242 l 1274 1211 l 1153 1036 l 1110 1067 l 1229 1242 z "},"Ŵ":{"ha":2392,"x_min":28,"x_max":2364,"o":"m 2364 897 l 2074 897 l 1660 0 l 1607 0 l 1196 888 l 785 0 l 732 0 l 318 897 l 28 897 l 28 950 l 618 950 l 618 897 l 376 897 l 758 69 l 1142 897 l 900 897 l 900 950 l 1490 950 l 1490 897 l 1250 897 l 1633 69 l 2015 897 l 1774 897 l 1774 950 l 2364 950 l 2364 897 m 1225 1228 l 1344 1053 l 1301 1024 l 1203 1165 l 1104 1024 l 1061 1053 l 1181 1228 l 1225 1228 z "},"Ẅ":{"ha":2392,"x_min":28,"x_max":2364,"o":"m 2074 897 l 1660 0 l 1607 0 l 1196 888 l 785 0 l 732 0 l 318 897 l 28 897 l 28 950 l 618 950 l 618 897 l 376 897 l 758 69 l 1142 897 l 900 897 l 900 950 l 1490 950 l 1490 897 l 1250 897 l 1633 69 l 2015 897 l 1774 897 l 1774 950 l 2364 950 l 2364 897 l 2074 897 m 1090 1213 q 1149 1188 1125 1213 q 1175 1128 1174 1164 q 1151 1069 1175 1093 q 1090 1043 1126 1044 l 1056 1043 q 996 1067 1021 1043 q 971 1126 971 1092 q 995 1187 971 1163 q 1054 1211 1019 1211 l 1090 1213 m 1331 1213 q 1390 1188 1365 1213 q 1415 1128 1415 1164 q 1391 1069 1415 1093 q 1332 1043 1367 1044 l 1296 1043 q 1237 1067 1261 1043 q 1211 1126 1213 1092 q 1235 1187 1211 1163 q 1294 1211 1260 1211 l 1331 1213 z "},"Ẁ":{"ha":2392,"x_min":28,"x_max":2364,"o":"m 2364 897 l 2074 897 l 1660 0 l 1607 0 l 1196 888 l 785 0 l 732 0 l 318 897 l 28 897 l 28 950 l 618 950 l 618 897 l 376 897 l 758 69 l 1142 897 l 900 897 l 900 950 l 1490 950 l 1490 897 l 1250 897 l 1633 69 l 2015 897 l 1774 897 l 1774 950 l 2364 950 l 2364 897 m 1161 1243 l 1282 1068 l 1238 1038 l 1118 1213 l 1161 1243 z "},"Ý":{"ha":1639,"x_min":28,"x_max":1611,"o":"m 1611 950 l 1611 896 l 1301 896 l 846 425 l 846 53 l 1115 53 l 1115 0 l 524 0 l 524 53 l 793 53 l 793 425 l 338 896 l 28 896 l 28 950 l 618 950 l 618 896 l 411 896 l 819 474 l 1228 896 l 1021 896 l 1021 950 l 1611 950 m 850 1249 l 894 1218 l 774 1043 l 731 1074 l 850 1249 z "},"Ŷ":{"ha":1639,"x_min":28,"x_max":1611,"o":"m 1611 950 l 1611 896 l 1301 896 l 846 425 l 846 53 l 1115 53 l 1115 0 l 524 0 l 524 53 l 793 53 l 793 425 l 338 896 l 28 896 l 28 950 l 618 950 l 618 896 l 411 896 l 819 474 l 1228 896 l 1021 896 l 1021 950 l 1611 950 m 846 1235 l 965 1060 l 922 1031 l 824 1172 l 725 1031 l 682 1060 l 801 1235 l 846 1235 z "},"Ÿ":{"ha":1639,"x_min":28,"x_max":1611,"o":"m 1611 896 l 1301 896 l 846 425 l 846 53 l 1115 53 l 1115 0 l 524 0 l 524 53 l 793 53 l 793 425 l 338 896 l 28 896 l 28 950 l 618 950 l 618 896 l 411 896 l 819 474 l 1228 896 l 1021 896 l 1021 950 l 1611 950 l 1611 896 m 711 1219 q 770 1195 746 1219 q 796 1135 794 1171 q 772 1076 796 1100 q 711 1050 747 1051 l 676 1050 q 617 1074 642 1050 q 592 1133 592 1099 q 616 1194 592 1169 q 675 1218 640 1218 l 711 1219 m 951 1219 q 1011 1195 986 1219 q 1036 1135 1036 1171 q 1012 1076 1036 1100 q 953 1050 988 1051 l 917 1050 q 858 1074 882 1050 q 832 1133 833 1099 q 856 1194 832 1169 q 915 1218 881 1218 l 951 1219 z "},"Ỳ":{"ha":1639,"x_min":28,"x_max":1611,"o":"m 1611 950 l 1611 896 l 1301 896 l 846 425 l 846 53 l 1115 53 l 1115 0 l 524 0 l 524 53 l 793 53 l 793 425 l 338 896 l 28 896 l 28 950 l 618 950 l 618 896 l 411 896 l 819 474 l 1228 896 l 1021 896 l 1021 950 l 1611 950 m 782 1250 l 903 1075 l 858 1044 l 739 1219 l 782 1250 z "},"Ź":{"ha":1175,"x_min":28,"x_max":1147,"o":"m 119 950 l 1147 950 l 164 54 l 1053 54 l 1053 200 l 1106 200 l 1106 0 l 28 0 l 1011 897 l 172 897 l 172 750 l 119 750 l 119 950 m 650 1242 l 694 1211 l 574 1036 l 531 1067 l 650 1242 z "},"Ž":{"ha":1175,"x_min":28,"x_max":1147,"o":"m 119 950 l 1147 950 l 164 54 l 1053 54 l 1053 200 l 1106 200 l 1106 0 l 28 0 l 1011 897 l 172 897 l 172 750 l 119 750 l 119 950 m 599 1021 l 479 1194 l 522 1225 l 621 1082 l 719 1225 l 763 1194 l 643 1021 l 599 1021 z "},"Ż":{"ha":1175,"x_min":28,"x_max":1147,"o":"m 1147 950 l 164 54 l 1053 54 l 1053 200 l 1106 200 l 1106 0 l 28 0 l 1011 897 l 172 897 l 172 750 l 119 750 l 119 950 l 1147 950 m 633 1214 q 692 1190 668 1214 q 718 1129 717 1165 q 694 1070 718 1094 q 633 1044 669 1046 l 599 1044 q 539 1069 564 1044 q 514 1128 514 1093 q 538 1188 514 1164 q 597 1213 563 1213 l 633 1214 z "},"á":{"ha":1186,"x_min":28,"x_max":1158,"o":"m 971 0 l 971 150 q 928 96 951 119 q 822 25 879 50 q 693 0 761 0 l 285 0 q 103 75 178 0 q 28 257 28 150 q 103 438 28 363 q 285 513 178 513 l 963 513 q 926 597 951 558 q 865 663 900 635 q 785 708 829 692 q 692 724 740 724 l 311 724 q 209 705 258 724 q 121 650 160 686 l 85 689 q 311 776 181 776 l 692 776 q 821 750 760 776 q 926 679 881 725 q 999 574 974 632 q 1018 510 1011 542 q 1025 443 1025 478 l 1025 438 l 1025 331 l 1025 54 l 1158 54 l 1158 0 l 971 0 m 693 53 q 802 75 751 53 q 890 135 853 97 q 949 223 928 172 q 971 331 971 274 l 971 438 l 971 443 l 971 460 l 285 460 q 206 444 243 460 q 140 400 168 428 q 97 335 113 372 q 81 257 81 299 q 97 178 81 215 q 140 113 113 140 q 206 69 168 85 q 285 53 243 53 l 693 53 m 593 1028 l 472 853 l 429 883 l 549 1058 l 593 1028 z "},"â":{"ha":1186,"x_min":28,"x_max":1158,"o":"m 971 0 l 971 150 q 928 96 951 119 q 822 25 879 50 q 693 0 761 0 l 285 0 q 103 75 178 0 q 28 257 28 150 q 103 438 28 363 q 285 513 178 513 l 963 513 q 926 597 951 558 q 865 663 900 635 q 785 708 829 692 q 692 724 740 724 l 311 724 q 209 705 258 724 q 121 650 160 686 l 85 689 q 311 776 181 776 l 692 776 q 821 750 760 776 q 926 679 881 725 q 999 574 974 632 q 1018 510 1011 542 q 1025 443 1025 478 l 1025 438 l 1025 331 l 1025 54 l 1158 54 l 1158 0 l 971 0 m 693 53 q 802 75 751 53 q 890 135 853 97 q 949 223 928 172 q 971 331 971 274 l 971 438 l 971 443 l 971 460 l 285 460 q 206 444 243 460 q 140 400 168 428 q 97 335 113 372 q 81 257 81 299 q 97 178 81 215 q 140 113 113 140 q 206 69 168 85 q 285 53 243 53 l 693 53 m 544 1044 l 664 869 l 621 840 l 522 982 l 424 840 l 381 869 l 500 1044 l 544 1044 z "},"ä":{"ha":1186,"x_min":28,"x_max":1158,"o":"m 971 0 l 971 150 q 928 96 951 119 q 822 25 879 50 q 693 0 761 0 l 285 0 q 103 75 178 0 q 28 257 28 150 q 103 438 28 363 q 285 513 178 513 l 963 513 q 926 597 951 558 q 865 663 900 635 q 785 708 829 692 q 692 724 740 724 l 311 724 q 209 705 258 724 q 121 650 160 686 l 85 689 q 311 776 181 776 l 692 776 q 821 750 760 776 q 926 679 881 725 q 999 574 974 632 q 1018 510 1011 542 q 1025 443 1025 478 l 1025 438 l 1025 331 l 1025 54 l 1158 54 l 1158 0 l 971 0 m 693 53 q 802 75 751 53 q 890 135 853 97 q 949 223 928 172 q 971 331 971 274 l 971 438 l 971 443 l 971 460 l 285 460 q 206 444 243 460 q 140 400 168 428 q 97 335 113 372 q 81 257 81 299 q 97 178 81 215 q 140 113 113 140 q 206 69 168 85 q 285 53 243 53 l 693 53 m 410 1029 q 469 1005 444 1029 q 494 944 493 981 q 470 885 494 910 q 410 860 446 861 l 375 860 q 315 884 340 860 q 290 943 290 908 q 315 1003 290 979 q 374 1028 339 1028 l 410 1029 m 650 1029 q 710 1005 685 1029 q 735 944 735 981 q 710 885 735 910 q 651 860 686 861 l 615 860 q 556 884 581 860 q 531 943 532 908 q 555 1003 531 979 q 614 1028 579 1028 l 650 1029 z "},"à":{"ha":1186,"x_min":28,"x_max":1158,"o":"m 971 0 l 971 150 q 928 96 951 119 q 822 25 879 50 q 693 0 761 0 l 285 0 q 103 75 178 0 q 28 257 28 150 q 103 438 28 363 q 285 513 178 513 l 963 513 q 926 597 951 558 q 865 663 900 635 q 785 708 829 692 q 692 724 740 724 l 311 724 q 209 705 258 724 q 121 650 160 686 l 85 689 q 311 776 181 776 l 692 776 q 821 750 760 776 q 926 679 881 725 q 999 574 974 632 q 1018 510 1011 542 q 1025 443 1025 478 l 1025 438 l 1025 331 l 1025 54 l 1158 54 l 1158 0 l 971 0 m 693 53 q 802 75 751 53 q 890 135 853 97 q 949 223 928 172 q 971 331 971 274 l 971 438 l 971 443 l 971 460 l 285 460 q 206 444 243 460 q 140 400 168 428 q 97 335 113 372 q 81 257 81 299 q 97 178 81 215 q 140 113 113 140 q 206 69 168 85 q 285 53 243 53 l 693 53 m 601 885 l 557 854 l 438 1029 l 481 1060 l 601 885 z "},"ā":{"ha":1186,"x_min":28,"x_max":1158,"o":"m 971 0 l 971 150 q 928 96 951 119 q 822 25 879 50 q 693 0 761 0 l 285 0 q 103 75 178 0 q 28 257 28 150 q 103 438 28 363 q 285 513 178 513 l 963 513 q 926 597 951 558 q 865 663 900 635 q 785 708 829 692 q 692 724 740 724 l 311 724 q 209 705 258 724 q 121 650 160 686 l 85 689 q 311 776 181 776 l 692 776 q 821 750 760 776 q 926 679 881 725 q 999 574 974 632 q 1018 510 1011 542 q 1025 443 1025 478 l 1025 438 l 1025 331 l 1025 54 l 1158 54 l 1158 0 l 971 0 m 693 53 q 802 75 751 53 q 890 135 853 97 q 949 223 928 172 q 971 331 971 274 l 971 438 l 971 443 l 971 460 l 285 460 q 206 444 243 460 q 140 400 168 428 q 97 335 113 372 q 81 257 81 299 q 97 178 81 215 q 140 113 113 140 q 206 69 168 85 q 285 53 243 53 l 693 53 m 694 850 l 338 850 l 338 904 l 694 904 l 694 850 z "},"ą":{"ha":1186,"x_min":28,"x_max":1158,"o":"m 931 -231 q 901 -161 901 -201 l 900 -135 q 929 -65 900 -94 q 997 -36 956 -39 l 1017 -36 l 1046 0 l 971 0 l 971 150 q 928 96 951 119 q 822 25 879 50 q 693 0 761 0 l 285 0 q 103 75 178 0 q 28 257 28 150 q 103 438 28 363 q 285 513 178 513 l 963 513 q 926 597 951 558 q 865 663 900 635 q 785 708 829 692 q 692 724 740 724 l 311 724 q 209 705 258 724 q 121 650 160 686 l 85 689 q 311 776 181 776 l 692 776 q 821 750 760 776 q 926 679 881 725 q 999 574 974 632 q 1018 510 1011 542 q 1025 443 1025 478 l 1025 54 l 1158 54 l 1158 0 l 1114 0 l 1042 -90 l 997 -90 q 967 -103 979 -90 q 954 -135 954 -115 l 954 -161 q 967 -192 954 -179 q 999 -206 981 -206 l 1060 -204 q 1092 -192 1079 -204 q 1104 -160 1104 -179 l 1157 -160 q 1129 -229 1158 -197 q 1061 -257 1101 -257 l 999 -258 q 931 -231 958 -258 m 693 53 q 802 75 751 53 q 890 135 853 97 q 949 223 928 172 q 971 331 971 274 l 971 460 l 285 460 q 206 444 243 460 q 140 400 168 428 q 97 335 113 372 q 81 257 81 299 q 97 178 81 215 q 140 113 113 140 q 206 69 168 85 q 285 53 243 53 l 693 53 z "},"å":{"ha":1186,"x_min":28,"x_max":1158,"o":"m 971 0 l 971 150 q 928 96 951 119 q 822 25 879 50 q 693 0 761 0 l 285 0 q 103 75 178 0 q 28 257 28 150 q 103 438 28 363 q 285 513 178 513 l 963 513 q 926 597 951 558 q 865 663 900 635 q 785 708 829 692 q 692 724 740 724 l 311 724 q 209 705 258 724 q 121 650 160 686 l 85 689 q 311 776 181 776 l 692 776 q 821 750 760 776 q 926 679 881 725 q 999 574 974 632 q 1018 510 1011 542 q 1025 443 1025 478 l 1025 438 l 1025 331 l 1025 54 l 1158 54 l 1158 0 l 971 0 m 693 53 q 802 75 751 53 q 890 135 853 97 q 949 223 928 172 q 971 331 971 274 l 971 438 l 971 443 l 971 460 l 285 460 q 206 444 243 460 q 140 400 168 428 q 97 335 113 372 q 81 257 81 299 q 97 178 81 215 q 140 113 113 140 q 206 69 168 85 q 285 53 243 53 l 693 53 m 492 857 q 423 885 451 857 q 394 954 394 914 l 393 981 q 422 1049 393 1021 q 490 1078 449 1078 l 553 1079 q 622 1051 593 1079 q 650 982 650 1022 l 650 956 q 622 886 651 918 q 554 857 593 857 l 492 857 m 460 1013 q 447 981 447 1000 l 447 954 q 460 922 447 935 q 492 910 472 910 l 553 910 q 585 924 574 913 q 597 956 597 936 l 597 982 q 584 1013 597 1000 q 553 1026 571 1026 l 490 1025 q 460 1013 472 1025 z "},"ã":{"ha":1186,"x_min":28,"x_max":1158,"o":"m 971 0 l 971 150 q 928 96 951 119 q 822 25 879 50 q 693 0 761 0 l 285 0 q 103 75 178 0 q 28 257 28 150 q 103 438 28 363 q 285 513 178 513 l 963 513 q 926 597 951 558 q 865 663 900 635 q 785 708 829 692 q 692 724 740 724 l 311 724 q 209 705 258 724 q 121 650 160 686 l 85 689 q 311 776 181 776 l 692 776 q 821 750 760 776 q 926 679 881 725 q 999 574 974 632 q 1018 510 1011 542 q 1025 443 1025 478 l 1025 438 l 1025 331 l 1025 54 l 1158 54 l 1158 0 l 971 0 m 693 53 q 802 75 751 53 q 890 135 853 97 q 949 223 928 172 q 971 331 971 274 l 971 438 l 971 443 l 971 460 l 285 460 q 206 444 243 460 q 140 400 168 428 q 97 335 113 372 q 81 257 81 299 q 97 178 81 215 q 140 113 113 140 q 206 69 168 85 q 285 53 243 53 l 693 53 m 417 878 l 378 914 l 396 933 q 469 969 429 969 q 543 933 511 969 q 558 920 550 926 q 578 914 567 914 q 597 920 589 914 q 613 933 606 926 l 629 953 l 669 917 l 651 897 q 578 861 618 861 q 504 897 536 861 q 489 910 497 904 q 469 917 481 917 q 450 910 458 917 q 435 897 442 904 l 417 878 z "},"ǽ":{"ha":1883,"x_min":28,"x_max":1856,"o":"m 1025 331 q 1025 322 1025 326 q 1024 313 1025 317 q 1051 210 1028 258 q 1113 127 1075 163 q 1199 72 1150 92 q 1304 51 1249 51 l 1800 51 l 1800 -1 l 1304 -1 q 1174 25 1239 -1 q 1118 56 1144 38 q 1068 97 1092 74 q 997 200 1022 140 q 928 96 972 143 q 878 56 904 74 q 822 25 853 38 q 693 0 761 0 l 285 0 q 103 75 178 0 q 28 257 28 150 q 103 438 28 363 q 185 494 139 474 q 285 514 232 514 l 963 514 q 926 598 951 560 q 865 664 900 636 q 785 708 829 692 q 692 724 740 724 l 311 724 q 209 705 258 724 q 121 650 160 686 l 85 689 q 189 754 131 732 q 311 776 247 776 l 692 776 q 821 751 758 776 q 926 679 881 724 q 997 575 972 633 q 1068 679 1022 633 q 1174 750 1113 724 q 1304 776 1235 776 l 1511 776 q 1804 649 1721 776 q 1847 540 1839 596 q 1856 444 1856 485 l 1856 361 l 1025 361 l 1025 331 m 693 53 q 797 73 749 53 q 883 128 846 93 q 944 211 921 164 q 971 313 967 258 l 971 332 l 971 443 l 971 460 l 285 460 q 206 444 243 460 q 140 401 168 428 q 97 336 113 374 q 81 257 81 299 q 97 178 81 215 q 140 113 113 140 q 206 69 168 85 q 285 53 243 53 l 693 53 m 1024 463 q 1025 443 1025 456 l 1025 414 l 1803 414 l 1803 444 q 1796 528 1803 481 q 1760 619 1789 576 q 1511 724 1693 724 l 1304 724 q 1199 703 1249 724 q 1112 648 1150 683 q 1051 565 1074 613 q 1024 463 1028 517 m 751 1064 l 631 889 l 588 919 l 707 1094 l 751 1064 z "},"ć":{"ha":911,"x_min":28,"x_max":883,"o":"m 361 724 q 252 701 303 724 q 163 641 201 679 q 103 552 125 603 q 81 443 81 501 l 81 332 q 103 223 81 274 q 163 135 125 172 q 252 75 201 97 q 361 53 303 53 l 857 53 l 857 -1 l 361 -1 q 232 25 296 -1 q 125 97 172 50 q 54 203 79 143 q 28 332 28 264 l 28 443 q 34 509 28 476 q 54 572 40 542 q 125 679 79 633 q 232 750 171 725 q 295 770 263 764 q 361 776 328 776 l 732 776 q 785 767 760 776 q 831 740 811 757 l 831 776 l 883 776 l 883 625 l 831 625 q 801 694 831 665 q 732 724 772 724 l 361 724 m 576 1024 l 456 849 l 413 879 l 532 1054 l 576 1024 z "},"č":{"ha":911,"x_min":28,"x_max":883,"o":"m 361 724 q 252 701 303 724 q 163 641 201 679 q 103 552 125 603 q 81 443 81 501 l 81 332 q 103 223 81 274 q 163 135 125 172 q 252 75 201 97 q 361 53 303 53 l 857 53 l 857 -1 l 361 -1 q 232 25 296 -1 q 125 97 172 50 q 54 203 79 143 q 28 332 28 264 l 28 443 q 34 509 28 476 q 54 572 40 542 q 125 679 79 633 q 232 750 171 725 q 295 770 263 764 q 361 776 328 776 l 732 776 q 785 767 760 776 q 831 740 811 757 l 831 776 l 883 776 l 883 625 l 831 625 q 801 694 831 665 q 732 724 772 724 l 361 724 m 481 833 l 361 1007 l 404 1038 l 503 894 l 601 1038 l 644 1007 l 525 833 l 481 833 z "},"ĉ":{"ha":911,"x_min":28,"x_max":883,"o":"m 361 724 q 252 701 303 724 q 163 641 201 679 q 103 552 125 603 q 81 443 81 501 l 81 332 q 103 223 81 274 q 163 135 125 172 q 252 75 201 97 q 361 53 303 53 l 857 53 l 857 -1 l 361 -1 q 232 25 296 -1 q 125 97 172 50 q 54 203 79 143 q 28 332 28 264 l 28 443 q 34 509 28 476 q 54 572 40 542 q 125 679 79 633 q 232 750 171 725 q 295 770 263 764 q 361 776 328 776 l 732 776 q 785 767 760 776 q 831 740 811 757 l 831 776 l 883 776 l 883 625 l 831 625 q 801 694 831 665 q 732 724 772 724 l 361 724 m 528 1040 l 647 865 l 604 836 l 506 978 l 407 836 l 364 865 l 483 1040 l 528 1040 z "},"ċ":{"ha":911,"x_min":28,"x_max":883,"o":"m 361 724 q 252 701 303 724 q 163 641 201 679 q 103 552 125 603 q 81 443 81 501 l 81 332 q 103 223 81 274 q 163 135 125 172 q 252 75 201 97 q 361 53 303 53 l 857 53 l 857 -1 l 361 -1 q 232 25 296 -1 q 125 97 172 50 q 54 203 79 143 q 28 332 28 264 l 28 443 q 34 509 28 476 q 54 572 40 542 q 125 679 79 633 q 232 750 171 725 q 295 770 263 764 q 361 776 328 776 l 732 776 q 785 767 760 776 q 831 740 811 757 l 831 776 l 883 776 l 883 625 l 831 625 q 801 694 831 665 q 732 724 772 724 l 361 724 m 515 1026 q 574 1002 550 1026 q 600 942 599 978 q 576 883 600 907 q 515 857 551 858 l 481 857 q 421 881 446 857 q 396 940 396 906 q 420 1001 396 976 q 479 1025 444 1025 l 515 1026 z "},"ď":{"ha":1189,"x_min":28,"x_max":1161,"o":"m 974 0 l 974 156 q 952 126 964 140 q 926 97 940 111 q 821 26 881 51 q 758 6 790 13 q 692 0 725 0 l 361 0 q 231 26 292 0 q 125 97 169 53 q 54 203 81 142 q 28 333 28 264 l 31 444 q 56 574 31 511 q 128 679 81 632 q 233 750 174 725 q 363 776 294 776 l 693 776 q 824 750 763 776 q 929 679 885 724 q 953 653 942 667 q 974 624 964 639 l 974 976 l 1161 976 l 1161 924 l 1026 924 l 1026 53 l 1161 53 l 1161 0 l 974 0 m 974 444 q 951 553 974 503 q 892 642 929 604 q 803 701 854 679 q 693 724 751 724 l 363 724 q 253 701 304 724 q 165 642 203 679 q 106 553 128 604 q 83 443 83 501 l 81 332 q 103 223 81 274 q 163 135 125 172 q 252 75 201 97 q 361 53 303 53 l 692 53 q 801 75 750 53 q 890 135 851 97 q 950 224 928 172 q 972 333 972 275 l 974 444 m 568 1064 l 449 1238 l 492 1268 l 590 1125 l 689 1268 l 732 1238 l 613 1064 l 568 1064 z "},"é":{"ha":942,"x_min":28,"x_max":914,"o":"m 857 0 l 361 0 q 295 6 328 0 q 232 26 263 13 q 125 97 174 50 q 54 203 81 142 q 28 333 28 268 l 28 443 q 35 510 28 478 q 54 574 42 542 q 125 679 81 635 q 232 750 174 726 q 295 770 263 764 q 361 776 328 776 l 569 776 q 863 650 778 776 q 906 541 897 597 q 914 444 914 485 l 914 361 l 81 361 l 81 333 q 103 224 81 275 q 163 135 125 172 q 252 75 201 97 q 361 53 303 53 l 857 53 l 857 0 m 81 415 l 860 415 l 860 444 q 853 528 860 481 q 818 621 846 576 q 569 724 749 724 l 361 724 q 252 701 303 724 q 163 642 201 679 q 103 553 125 604 q 81 443 81 501 l 81 415 m 546 1028 l 425 853 l 382 883 l 501 1058 l 546 1028 z "},"ě":{"ha":942,"x_min":28,"x_max":914,"o":"m 857 0 l 361 0 q 295 6 328 0 q 232 26 263 13 q 125 97 174 50 q 54 203 81 142 q 28 333 28 268 l 28 443 q 35 510 28 478 q 54 574 42 542 q 125 679 81 635 q 232 750 174 726 q 295 770 263 764 q 361 776 328 776 l 569 776 q 863 650 778 776 q 906 541 897 597 q 914 444 914 485 l 914 361 l 81 361 l 81 333 q 103 224 81 275 q 163 135 125 172 q 252 75 201 97 q 361 53 303 53 l 857 53 l 857 0 m 81 415 l 860 415 l 860 444 q 853 528 860 481 q 818 621 846 576 q 569 724 749 724 l 361 724 q 252 701 303 724 q 163 642 201 679 q 103 553 125 604 q 81 443 81 501 l 81 415 m 450 838 l 331 1011 l 374 1042 l 472 899 l 571 1042 l 614 1011 l 494 838 l 450 838 z "},"ê":{"ha":942,"x_min":28,"x_max":914,"o":"m 857 0 l 361 0 q 295 6 328 0 q 232 26 263 13 q 125 97 174 50 q 54 203 81 142 q 28 333 28 268 l 28 443 q 35 510 28 478 q 54 574 42 542 q 125 679 81 635 q 232 750 174 726 q 295 770 263 764 q 361 776 328 776 l 569 776 q 863 650 778 776 q 906 541 897 597 q 914 444 914 485 l 914 361 l 81 361 l 81 333 q 103 224 81 275 q 163 135 125 172 q 252 75 201 97 q 361 53 303 53 l 857 53 l 857 0 m 81 415 l 860 415 l 860 444 q 853 528 860 481 q 818 621 846 576 q 569 724 749 724 l 361 724 q 252 701 303 724 q 163 642 201 679 q 103 553 125 604 q 81 443 81 501 l 81 415 m 497 1044 l 617 869 l 574 840 l 475 982 l 376 840 l 333 869 l 453 1044 l 497 1044 z "},"ë":{"ha":942,"x_min":28,"x_max":914,"o":"m 857 0 l 361 0 q 295 6 328 0 q 232 26 263 13 q 125 97 174 50 q 54 203 81 142 q 28 333 28 268 l 28 443 q 35 510 28 478 q 54 574 42 542 q 125 679 81 635 q 232 750 174 726 q 295 770 263 764 q 361 776 328 776 l 569 776 q 863 650 778 776 q 906 541 897 597 q 914 444 914 485 l 914 361 l 81 361 l 81 333 q 103 224 81 275 q 163 135 125 172 q 252 75 201 97 q 361 53 303 53 l 857 53 l 857 0 m 81 415 l 860 415 l 860 444 q 853 528 860 481 q 818 621 846 576 q 569 724 749 724 l 361 724 q 252 701 303 724 q 163 642 201 679 q 103 553 125 604 q 81 443 81 501 l 81 415 m 363 1029 q 422 1005 397 1029 q 447 944 446 981 q 423 885 447 910 q 363 860 399 861 l 328 860 q 268 884 293 860 q 243 943 243 908 q 267 1003 243 979 q 326 1028 292 1028 l 363 1029 m 603 1029 q 663 1005 638 1029 q 688 944 688 981 q 663 885 688 910 q 604 860 639 861 l 568 860 q 509 884 533 860 q 483 943 485 908 q 508 1003 483 979 q 567 1028 532 1028 l 603 1029 z "},"ė":{"ha":942,"x_min":28,"x_max":914,"o":"m 857 0 l 361 0 q 295 6 328 0 q 232 26 263 13 q 125 97 174 50 q 54 203 81 142 q 28 333 28 268 l 28 443 q 35 510 28 478 q 54 574 42 542 q 125 679 81 635 q 232 750 174 726 q 295 770 263 764 q 361 776 328 776 l 569 776 q 863 650 778 776 q 906 541 897 597 q 914 444 914 485 l 914 361 l 81 361 l 81 333 q 103 224 81 275 q 163 135 125 172 q 252 75 201 97 q 361 53 303 53 l 857 53 l 857 0 m 81 415 l 860 415 l 860 444 q 853 528 860 481 q 818 621 846 576 q 569 724 749 724 l 361 724 q 252 701 303 724 q 163 642 201 679 q 103 553 125 604 q 81 443 81 501 l 81 415 m 485 1031 q 544 1006 519 1031 q 569 946 568 982 q 545 887 569 911 q 485 861 521 863 l 450 861 q 390 885 415 861 q 365 944 365 910 q 390 1005 365 981 q 449 1029 414 1029 l 485 1031 z "},"è":{"ha":942,"x_min":28,"x_max":914,"o":"m 857 0 l 361 0 q 295 6 328 0 q 232 26 263 13 q 125 97 174 50 q 54 203 81 142 q 28 333 28 268 l 28 443 q 35 510 28 478 q 54 574 42 542 q 125 679 81 635 q 232 750 174 726 q 295 770 263 764 q 361 776 328 776 l 569 776 q 863 650 778 776 q 906 541 897 597 q 914 444 914 485 l 914 361 l 81 361 l 81 333 q 103 224 81 275 q 163 135 125 172 q 252 75 201 97 q 361 53 303 53 l 857 53 l 857 0 m 81 415 l 860 415 l 860 444 q 853 528 860 481 q 818 621 846 576 q 569 724 749 724 l 361 724 q 252 701 303 724 q 163 642 201 679 q 103 553 125 604 q 81 443 81 501 l 81 415 m 554 885 l 510 854 l 390 1029 l 433 1060 l 554 885 z "},"ē":{"ha":942,"x_min":28,"x_max":914,"o":"m 857 0 l 361 0 q 295 6 328 0 q 232 26 263 13 q 125 97 174 50 q 54 203 81 142 q 28 333 28 268 l 28 443 q 35 510 28 478 q 54 574 42 542 q 125 679 81 635 q 232 750 174 726 q 295 770 263 764 q 361 776 328 776 l 569 776 q 863 650 778 776 q 906 541 897 597 q 914 444 914 485 l 914 361 l 81 361 l 81 333 q 103 224 81 275 q 163 135 125 172 q 252 75 201 97 q 361 53 303 53 l 857 53 l 857 0 m 81 415 l 860 415 l 860 444 q 853 528 860 481 q 818 621 846 576 q 569 724 749 724 l 361 724 q 252 701 303 724 q 163 642 201 679 q 103 553 125 604 q 81 443 81 501 l 81 415 m 647 850 l 290 850 l 290 904 l 647 904 l 647 850 z "},"ę":{"ha":942,"x_min":28,"x_max":914,"o":"m 361 -231 q 332 -161 332 -201 l 331 -135 q 360 -65 331 -94 q 428 -36 386 -39 l 447 -36 l 476 0 l 361 0 q 295 6 328 0 q 232 26 263 13 q 125 97 174 50 q 54 203 81 142 q 28 333 28 268 l 28 443 q 35 510 28 478 q 54 574 42 542 q 125 679 81 635 q 232 750 174 726 q 295 770 263 764 q 361 776 328 776 l 569 776 q 863 650 778 776 q 906 541 897 597 q 914 444 914 485 l 914 361 l 81 361 l 81 333 q 103 224 81 275 q 163 135 125 172 q 252 75 201 97 q 361 53 303 53 l 857 53 l 857 0 l 544 0 l 472 -90 l 428 -90 q 397 -103 410 -90 q 385 -135 385 -115 l 385 -161 q 397 -192 385 -179 q 429 -206 411 -206 l 490 -204 q 522 -192 510 -204 q 535 -160 535 -179 l 588 -160 q 560 -229 589 -197 q 492 -257 532 -257 l 429 -258 q 361 -231 389 -258 m 81 415 l 860 415 l 860 444 q 853 528 860 481 q 818 621 846 576 q 569 724 749 724 l 361 724 q 252 701 303 724 q 163 642 201 679 q 103 553 125 604 q 81 443 81 501 l 81 415 z "},"ĝ":{"ha":985,"x_min":28,"x_max":957,"o":"m 679 -408 q 767 -390 726 -408 q 839 -342 808 -372 q 887 -270 869 -311 q 904 -183 904 -229 l 904 156 q 883 126 894 140 q 858 97 871 111 q 751 26 813 51 q 688 6 721 13 q 622 0 656 0 l 361 0 q 232 26 293 0 q 126 97 172 51 q 54 203 79 144 q 28 333 28 268 l 31 444 q 57 574 31 513 q 128 679 83 635 q 235 750 174 725 q 298 770 265 764 q 364 776 331 776 l 625 776 q 754 750 693 776 q 860 679 815 724 q 883 653 872 667 q 904 624 894 639 l 904 776 l 957 776 l 957 -183 q 937 -290 957 -239 q 876 -381 917 -340 q 786 -440 836 -419 q 679 -461 736 -461 l 307 -461 q 200 -440 250 -461 q 110 -381 150 -419 q 49 -290 69 -340 q 28 -183 28 -239 l 82 -183 q 99 -270 82 -229 q 147 -342 117 -311 q 219 -390 178 -372 q 307 -408 260 -408 l 679 -408 m 904 444 q 882 553 904 503 q 822 642 860 604 q 734 701 785 679 q 625 724 683 724 l 364 724 q 255 701 306 724 q 166 642 204 679 q 106 553 128 604 q 83 443 83 501 l 82 332 q 104 223 82 274 q 164 135 126 172 q 252 75 201 97 q 361 53 303 53 l 622 53 q 731 75 681 53 q 820 135 782 97 q 881 224 858 172 q 903 333 903 275 l 904 444 m 500 1051 l 619 876 l 576 847 l 478 989 l 379 847 l 336 876 l 456 1051 l 500 1051 z "},"ģ":{"ha":985,"x_min":28,"x_max":957,"o":"m 679 -408 q 767 -390 726 -408 q 839 -342 808 -372 q 887 -270 869 -311 q 904 -183 904 -229 l 904 156 q 883 126 894 140 q 858 97 871 111 q 751 26 813 51 q 688 6 721 13 q 622 0 656 0 l 361 0 q 232 26 293 0 q 126 97 172 51 q 54 203 79 144 q 28 333 28 268 l 31 444 q 57 574 31 513 q 128 679 83 635 q 235 750 174 725 q 298 770 265 764 q 364 776 331 776 l 625 776 q 754 750 693 776 q 860 679 815 724 q 883 653 872 667 q 904 624 894 639 l 904 776 l 957 776 l 957 -183 q 937 -290 957 -239 q 876 -381 917 -340 q 786 -440 836 -419 q 679 -461 736 -461 l 307 -461 q 200 -440 250 -461 q 110 -381 150 -419 q 49 -290 69 -340 q 28 -183 28 -239 l 82 -183 q 99 -270 82 -229 q 147 -342 117 -311 q 219 -390 178 -372 q 307 -408 260 -408 l 679 -408 m 904 444 q 882 553 904 503 q 822 642 860 604 q 734 701 785 679 q 625 724 683 724 l 364 724 q 255 701 306 724 q 166 642 204 679 q 106 553 128 604 q 83 443 83 501 l 82 332 q 104 223 82 274 q 164 135 126 172 q 252 75 201 97 q 361 53 303 53 l 622 53 q 731 75 681 53 q 820 135 782 97 q 881 224 858 172 q 903 333 903 275 l 904 444 m 496 -635 q 457 -619 472 -635 q 442 -581 442 -604 q 458 -543 442 -558 q 496 -528 474 -528 q 534 -543 518 -528 q 550 -581 550 -558 q 538 -633 550 -614 q 511 -662 526 -653 q 472 -678 494 -675 q 488 -657 483 -668 q 496 -635 493 -646 z "},"ġ":{"ha":985,"x_min":28,"x_max":957,"o":"m 679 -408 q 767 -390 726 -408 q 839 -342 808 -372 q 887 -270 869 -311 q 904 -183 904 -229 l 904 156 q 883 126 894 140 q 858 97 871 111 q 751 26 813 51 q 688 6 721 13 q 622 0 656 0 l 361 0 q 232 26 293 0 q 126 97 172 51 q 54 203 79 144 q 28 333 28 268 l 31 444 q 57 574 31 513 q 128 679 83 635 q 235 750 174 725 q 298 770 265 764 q 364 776 331 776 l 625 776 q 754 750 693 776 q 860 679 815 724 q 883 653 872 667 q 904 624 894 639 l 904 776 l 957 776 l 957 -183 q 937 -290 957 -239 q 876 -381 917 -340 q 786 -440 836 -419 q 679 -461 736 -461 l 307 -461 q 200 -440 250 -461 q 110 -381 150 -419 q 49 -290 69 -340 q 28 -183 28 -239 l 82 -183 q 99 -270 82 -229 q 147 -342 117 -311 q 219 -390 178 -372 q 307 -408 260 -408 l 679 -408 m 904 444 q 882 553 904 503 q 822 642 860 604 q 734 701 785 679 q 625 724 683 724 l 364 724 q 255 701 306 724 q 166 642 204 679 q 106 553 128 604 q 83 443 83 501 l 82 332 q 104 223 82 274 q 164 135 126 172 q 252 75 201 97 q 361 53 303 53 l 622 53 q 731 75 681 53 q 820 135 782 97 q 881 224 858 172 q 903 333 903 275 l 904 444 m 488 1038 q 547 1013 522 1038 q 572 953 571 989 q 548 894 572 918 q 488 868 524 869 l 453 868 q 393 892 418 868 q 368 951 368 917 q 392 1012 368 988 q 451 1036 417 1036 l 488 1038 z "},"ĥ":{"ha":1313,"x_min":28,"x_max":1285,"o":"m 1103 53 l 1103 444 q 1081 553 1103 503 q 1021 642 1058 604 q 933 701 983 679 q 824 724 882 724 l 493 724 q 384 701 435 724 q 295 642 333 679 q 235 553 257 604 q 213 444 213 503 l 210 444 l 210 53 l 339 53 l 339 0 l 28 0 l 28 53 l 157 53 l 157 924 l 28 924 l 28 976 l 210 976 l 210 621 q 257 679 232 654 q 307 720 281 703 q 363 751 333 738 q 493 776 425 776 l 824 776 q 953 751 892 776 q 1058 679 1013 724 q 1131 574 1106 632 q 1150 510 1143 542 q 1157 444 1157 478 l 1157 53 l 1285 53 l 1285 0 l 975 0 l 975 53 l 1103 53 m 732 1251 l 851 1076 l 808 1047 l 710 1189 l 611 1047 l 568 1076 l 688 1251 l 732 1251 z "},"í":{"ha":367,"x_min":28,"x_max":339,"o":"m 210 53 l 339 53 l 339 0 l 28 0 l 28 53 l 157 53 l 157 724 l 28 724 l 28 776 l 210 776 l 210 53 m 221 1058 l 265 1028 l 144 853 l 101 883 l 221 1058 z "},"î":{"ha":367,"x_min":28,"x_max":339,"o":"m 210 53 l 339 53 l 339 0 l 28 0 l 28 53 l 157 53 l 157 724 l 28 724 l 28 776 l 210 776 l 210 53 m 217 1044 l 336 869 l 293 840 l 194 982 l 96 840 l 53 869 l 172 1044 l 217 1044 z "},"ï":{"ha":367,"x_min":-37,"x_max":407,"o":"m 339 53 l 339 0 l 28 0 l 28 53 l 157 53 l 157 724 l 28 724 l 28 776 l 210 776 l 210 53 l 339 53 m 82 1029 q 141 1005 117 1029 q 167 944 165 981 q 142 885 167 910 q 82 860 118 861 l 47 860 q -12 884 13 860 q -37 943 -37 908 q -13 1003 -37 979 q 46 1028 11 1028 l 82 1029 m 322 1029 q 382 1005 357 1029 q 407 944 407 981 q 383 885 407 910 q 324 860 358 861 l 288 860 q 228 884 253 860 q 203 943 204 908 q 227 1003 203 979 q 286 1028 251 1028 l 322 1029 z "},"ì":{"ha":367,"x_min":28,"x_max":339,"o":"m 210 53 l 339 53 l 339 0 l 28 0 l 28 53 l 157 53 l 157 724 l 28 724 l 28 776 l 210 776 l 210 53 m 153 1060 l 274 885 l 229 854 l 110 1029 l 153 1060 z "},"ī":{"ha":367,"x_min":10,"x_max":367,"o":"m 210 53 l 339 53 l 339 0 l 28 0 l 28 53 l 157 53 l 157 724 l 28 724 l 28 776 l 210 776 l 210 53 m 367 850 l 10 850 l 10 904 l 367 904 l 367 850 z "},"į":{"ha":367,"x_min":28,"x_max":339,"o":"m 85 -231 q 56 -161 56 -201 l 54 -135 q 83 -65 54 -94 q 151 -36 110 -39 l 171 -36 l 200 0 l 28 0 l 28 53 l 157 53 l 157 724 l 28 724 l 28 776 l 210 776 l 210 53 l 339 53 l 339 0 l 268 0 l 196 -90 l 151 -90 q 121 -103 133 -90 q 108 -135 108 -115 l 108 -161 q 121 -192 108 -179 q 153 -206 135 -206 l 214 -204 q 246 -192 233 -204 q 258 -160 258 -179 l 311 -160 q 283 -229 313 -197 q 215 -257 256 -257 l 153 -258 q 85 -231 113 -258 m 160 893 q 121 908 136 893 q 106 947 106 924 q 121 985 106 969 q 160 1000 136 1000 q 197 985 182 1000 q 213 947 213 969 q 197 908 213 924 q 160 893 182 893 z "},"ĩ":{"ha":367,"x_min":-21,"x_max":339,"o":"m 339 53 l 339 0 l 28 0 l 28 53 l 157 53 l 157 724 l 28 724 l 28 776 l 210 776 l 210 53 l 339 53 m 18 881 l -21 917 l -3 936 q 71 972 31 972 q 144 936 113 972 q 160 923 151 929 q 179 917 168 917 q 199 923 190 917 q 214 936 207 929 l 231 956 l 271 919 l 253 900 q 179 864 219 864 q 106 900 138 864 q 90 913 99 907 q 71 919 82 919 q 51 913 60 919 q 36 900 43 907 l 18 881 z "},"ĵ":{"ha":235,"x_min":-722,"x_max":257,"o":"m 207 776 l 207 -210 q 187 -317 207 -267 q 126 -407 167 -367 q 36 -467 86 -447 q -71 -487 -14 -487 l -443 -487 q -550 -467 -500 -487 q -640 -407 -600 -447 q -722 -210 -722 -325 l -668 -210 q -651 -297 -668 -256 q -603 -368 -633 -337 q -531 -417 -572 -399 q -443 -435 -490 -435 l -71 -435 q 17 -417 -24 -435 q 89 -368 58 -399 q 137 -297 119 -337 q 154 -210 154 -256 l 154 724 l 25 724 l 25 776 l 207 776 m 138 1086 l 257 911 l 214 882 l 115 1024 l 17 882 l -26 911 l 93 1086 l 138 1086 z "},"ķ":{"ha":1064,"x_min":28,"x_max":1036,"o":"m 725 53 l 828 53 l 276 485 l 210 457 l 210 53 l 339 53 l 339 0 l 28 0 l 28 53 l 157 53 l 157 924 l 28 924 l 28 976 l 210 976 l 210 515 l 714 724 l 656 724 l 656 776 l 965 776 l 965 724 l 853 724 l 333 508 l 913 53 l 1036 53 l 1036 0 l 725 0 l 725 53 m 532 -194 q 493 -179 508 -194 q 478 -140 478 -164 q 494 -103 478 -118 q 532 -87 510 -87 q 570 -103 554 -87 q 586 -140 586 -118 q 574 -193 586 -174 q 547 -222 563 -212 q 508 -237 531 -235 q 524 -217 519 -228 q 532 -194 529 -206 z "},"ĺ":{"ha":367,"x_min":28,"x_max":339,"o":"m 339 0 l 28 0 l 28 53 l 157 53 l 157 924 l 28 924 l 28 976 l 210 976 l 210 53 l 339 53 l 339 0 m 217 1258 l 261 1228 l 140 1053 l 97 1083 l 217 1258 z "},"ľ":{"ha":367,"x_min":8,"x_max":339,"o":"m 339 0 l 28 0 l 28 53 l 157 53 l 157 924 l 28 924 l 28 976 l 210 976 l 210 53 l 339 53 l 339 0 m 128 1079 l 8 1253 l 51 1283 l 150 1140 l 249 1283 l 292 1253 l 172 1079 l 128 1079 z "},"ļ":{"ha":367,"x_min":28,"x_max":339,"o":"m 28 0 l 28 53 l 157 53 l 157 924 l 28 924 l 28 976 l 210 976 l 210 53 l 339 53 l 339 0 l 28 0 m 183 -194 q 144 -179 160 -194 q 129 -140 129 -164 q 145 -103 129 -118 q 183 -87 161 -87 q 222 -103 206 -87 q 238 -140 238 -118 q 226 -193 238 -174 q 199 -222 214 -212 q 160 -237 182 -235 q 176 -217 171 -228 q 183 -194 181 -206 z "},"ń":{"ha":1313,"x_min":28,"x_max":1285,"o":"m 1103 53 l 1103 444 q 1081 553 1103 503 q 1021 642 1058 604 q 933 701 983 679 q 824 724 882 724 l 493 724 q 384 701 435 724 q 295 642 333 679 q 235 553 257 604 q 213 444 213 503 l 210 444 l 210 53 l 339 53 l 339 0 l 28 0 l 28 53 l 157 53 l 157 724 l 28 724 l 28 776 l 210 776 l 210 621 q 257 679 232 654 q 307 720 281 703 q 363 751 333 738 q 493 776 425 776 l 824 776 q 953 751 892 776 q 1058 679 1013 724 q 1131 574 1106 632 q 1150 510 1143 542 q 1157 444 1157 478 l 1157 53 l 1285 53 l 1285 0 l 975 0 l 975 53 l 1103 53 m 701 1031 l 581 856 l 538 886 l 657 1061 l 701 1031 z "},"ň":{"ha":1313,"x_min":28,"x_max":1285,"o":"m 1103 53 l 1103 444 q 1081 553 1103 503 q 1021 642 1058 604 q 933 701 983 679 q 824 724 882 724 l 493 724 q 384 701 435 724 q 295 642 333 679 q 235 553 257 604 q 213 444 213 503 l 210 444 l 210 53 l 339 53 l 339 0 l 28 0 l 28 53 l 157 53 l 157 724 l 28 724 l 28 776 l 210 776 l 210 621 q 257 679 232 654 q 307 720 281 703 q 363 751 333 738 q 493 776 425 776 l 824 776 q 953 751 892 776 q 1058 679 1013 724 q 1131 574 1106 632 q 1150 510 1143 542 q 1157 444 1157 478 l 1157 53 l 1285 53 l 1285 0 l 975 0 l 975 53 l 1103 53 m 606 840 l 486 1014 l 529 1044 l 628 901 l 726 1044 l 769 1014 l 650 840 l 606 840 z "},"ņ":{"ha":1313,"x_min":28,"x_max":1285,"o":"m 1103 53 l 1103 444 q 1081 553 1103 503 q 1021 642 1058 604 q 933 701 983 679 q 824 724 882 724 l 493 724 q 384 701 435 724 q 295 642 333 679 q 235 553 257 604 q 213 444 213 503 l 210 444 l 210 53 l 339 53 l 339 0 l 28 0 l 28 53 l 157 53 l 157 724 l 28 724 l 28 776 l 210 776 l 210 621 q 257 679 232 654 q 307 720 281 703 q 363 751 333 738 q 493 776 425 776 l 824 776 q 953 751 892 776 q 1058 679 1013 724 q 1131 574 1106 632 q 1150 510 1143 542 q 1157 444 1157 478 l 1157 53 l 1285 53 l 1285 0 l 975 0 l 975 53 l 1103 53 m 656 -194 q 617 -179 632 -194 q 601 -140 601 -164 q 617 -103 601 -118 q 656 -87 633 -87 q 694 -103 678 -87 q 710 -140 710 -118 q 698 -193 710 -174 q 671 -222 686 -212 q 632 -237 654 -235 q 648 -217 643 -228 q 656 -194 653 -206 z "},"ñ":{"ha":1313,"x_min":28,"x_max":1285,"o":"m 1103 53 l 1103 444 q 1081 553 1103 503 q 1021 642 1058 604 q 933 701 983 679 q 824 724 882 724 l 493 724 q 384 701 435 724 q 295 642 333 679 q 235 553 257 604 q 213 444 213 503 l 210 444 l 210 53 l 339 53 l 339 0 l 28 0 l 28 53 l 157 53 l 157 724 l 28 724 l 28 776 l 210 776 l 210 621 q 257 679 232 654 q 307 720 281 703 q 363 751 333 738 q 493 776 425 776 l 824 776 q 953 751 892 776 q 1058 679 1013 724 q 1131 574 1106 632 q 1150 510 1143 542 q 1157 444 1157 478 l 1157 53 l 1285 53 l 1285 0 l 975 0 l 975 53 l 1103 53 m 525 881 l 486 917 l 504 936 q 578 972 538 972 q 651 936 619 972 q 667 923 658 929 q 686 917 675 917 q 706 923 697 917 q 721 936 714 929 l 738 956 l 778 919 l 760 900 q 686 864 726 864 q 613 900 644 864 q 597 913 606 907 q 578 919 589 919 q 558 913 567 919 q 543 900 550 907 l 525 881 z "},"ó":{"ha":1056,"x_min":28,"x_max":1028,"o":"m 361 0 q 295 6 328 0 q 232 26 263 13 q 126 97 172 51 q 85 147 103 121 q 54 203 67 174 q 28 333 28 268 l 31 444 q 57 574 31 513 q 128 679 83 635 q 233 750 172 724 q 364 776 294 776 l 694 776 q 760 770 728 776 q 824 750 793 764 q 929 679 883 725 q 1001 574 976 632 q 1021 510 1014 542 q 1028 443 1028 478 l 1025 332 q 999 203 1025 264 q 928 97 972 142 q 822 26 883 53 q 692 0 761 0 l 361 0 m 81 332 q 103 223 81 274 q 163 135 125 172 q 252 75 201 97 q 361 53 303 53 l 692 53 q 801 75 750 53 q 890 135 851 97 q 950 224 928 172 q 972 333 972 275 l 974 444 q 951 553 974 503 q 892 642 929 604 q 803 701 854 679 q 694 724 753 724 l 364 724 q 255 701 306 724 q 166 642 204 679 q 106 553 128 604 q 83 443 83 501 l 81 332 m 597 1031 l 476 856 l 433 886 l 553 1061 l 597 1031 z "},"ô":{"ha":1056,"x_min":28,"x_max":1028,"o":"m 361 0 q 295 6 328 0 q 232 26 263 13 q 126 97 172 51 q 85 147 103 121 q 54 203 67 174 q 28 333 28 268 l 31 444 q 57 574 31 513 q 128 679 83 635 q 233 750 172 724 q 364 776 294 776 l 694 776 q 760 770 728 776 q 824 750 793 764 q 929 679 883 725 q 1001 574 976 632 q 1021 510 1014 542 q 1028 443 1028 478 l 1025 332 q 999 203 1025 264 q 928 97 972 142 q 822 26 883 53 q 692 0 761 0 l 361 0 m 81 332 q 103 223 81 274 q 163 135 125 172 q 252 75 201 97 q 361 53 303 53 l 692 53 q 801 75 750 53 q 890 135 851 97 q 950 224 928 172 q 972 333 972 275 l 974 444 q 951 553 974 503 q 892 642 929 604 q 803 701 854 679 q 694 724 753 724 l 364 724 q 255 701 306 724 q 166 642 204 679 q 106 553 128 604 q 83 443 83 501 l 81 332 m 549 1047 l 668 872 l 625 843 l 526 985 l 428 843 l 385 872 l 504 1047 l 549 1047 z "},"ö":{"ha":1056,"x_min":28,"x_max":1028,"o":"m 361 0 q 295 6 328 0 q 232 26 263 13 q 126 97 172 51 q 85 147 103 121 q 54 203 67 174 q 28 333 28 268 l 31 444 q 57 574 31 513 q 128 679 83 635 q 233 750 172 724 q 364 776 294 776 l 694 776 q 760 770 728 776 q 824 750 793 764 q 929 679 883 725 q 1001 574 976 632 q 1021 510 1014 542 q 1028 443 1028 478 l 1025 332 q 999 203 1025 264 q 928 97 972 142 q 822 26 883 53 q 692 0 761 0 l 361 0 m 81 332 q 103 223 81 274 q 163 135 125 172 q 252 75 201 97 q 361 53 303 53 l 692 53 q 801 75 750 53 q 890 135 851 97 q 950 224 928 172 q 972 333 972 275 l 974 444 q 951 553 974 503 q 892 642 929 604 q 803 701 854 679 q 694 724 753 724 l 364 724 q 255 701 306 724 q 166 642 204 679 q 106 553 128 604 q 83 443 83 501 l 81 332 m 414 1032 q 473 1008 449 1032 q 499 947 497 983 q 474 888 499 913 q 414 863 450 864 l 379 863 q 319 887 344 863 q 294 946 294 911 q 319 1006 294 982 q 378 1031 343 1031 l 414 1032 m 654 1032 q 714 1008 689 1032 q 739 947 739 983 q 715 888 739 913 q 656 863 690 864 l 619 863 q 560 887 585 863 q 535 946 536 911 q 559 1006 535 982 q 618 1031 583 1031 l 654 1032 z "},"ò":{"ha":1056,"x_min":28,"x_max":1028,"o":"m 361 0 q 295 6 328 0 q 232 26 263 13 q 126 97 172 51 q 85 147 103 121 q 54 203 67 174 q 28 333 28 268 l 31 444 q 57 574 31 513 q 128 679 83 635 q 233 750 172 724 q 364 776 294 776 l 694 776 q 760 770 728 776 q 824 750 793 764 q 929 679 883 725 q 1001 574 976 632 q 1021 510 1014 542 q 1028 443 1028 478 l 1025 332 q 999 203 1025 264 q 928 97 972 142 q 822 26 883 53 q 692 0 761 0 l 361 0 m 81 332 q 103 223 81 274 q 163 135 125 172 q 252 75 201 97 q 361 53 303 53 l 692 53 q 801 75 750 53 q 890 135 851 97 q 950 224 928 172 q 972 333 972 275 l 974 444 q 951 553 974 503 q 892 642 929 604 q 803 701 854 679 q 694 724 753 724 l 364 724 q 255 701 306 724 q 166 642 204 679 q 106 553 128 604 q 83 443 83 501 l 81 332 m 606 888 l 561 857 l 442 1032 l 485 1063 l 606 888 z "},"ő":{"ha":1056,"x_min":28,"x_max":1028,"o":"m 361 0 q 295 6 328 0 q 232 26 263 13 q 126 97 172 51 q 85 147 103 121 q 54 203 67 174 q 28 333 28 268 l 31 444 q 57 574 31 513 q 128 679 83 635 q 233 750 172 724 q 364 776 294 776 l 694 776 q 760 770 728 776 q 824 750 793 764 q 929 679 883 725 q 1001 574 976 632 q 1021 510 1014 542 q 1028 443 1028 478 l 1025 332 q 999 203 1025 264 q 928 97 972 142 q 822 26 883 53 q 692 0 761 0 l 361 0 m 81 332 q 103 223 81 274 q 163 135 125 172 q 252 75 201 97 q 361 53 303 53 l 692 53 q 801 75 750 53 q 890 135 851 97 q 950 224 928 172 q 972 333 972 275 l 974 444 q 951 553 974 503 q 892 642 929 604 q 803 701 854 679 q 694 724 753 724 l 364 724 q 255 701 306 724 q 166 642 204 679 q 106 553 128 604 q 83 443 83 501 l 81 332 m 557 1056 l 468 851 l 419 872 l 508 1076 l 557 1056 m 647 1056 l 557 851 l 508 872 l 599 1076 l 647 1056 z "},"ō":{"ha":1056,"x_min":28,"x_max":1028,"o":"m 361 0 q 295 6 328 0 q 232 26 263 13 q 126 97 172 51 q 85 147 103 121 q 54 203 67 174 q 28 333 28 268 l 31 444 q 57 574 31 513 q 128 679 83 635 q 233 750 172 724 q 364 776 294 776 l 694 776 q 760 770 728 776 q 824 750 793 764 q 929 679 883 725 q 1001 574 976 632 q 1021 510 1014 542 q 1028 443 1028 478 l 1025 332 q 999 203 1025 264 q 928 97 972 142 q 822 26 883 53 q 692 0 761 0 l 361 0 m 81 332 q 103 223 81 274 q 163 135 125 172 q 252 75 201 97 q 361 53 303 53 l 692 53 q 801 75 750 53 q 890 135 851 97 q 950 224 928 172 q 972 333 972 275 l 974 444 q 951 553 974 503 q 892 642 929 604 q 803 701 854 679 q 694 724 753 724 l 364 724 q 255 701 306 724 q 166 642 204 679 q 106 553 128 604 q 83 443 83 501 l 81 332 m 699 853 l 342 853 l 342 907 l 699 907 l 699 853 z "},"õ":{"ha":1056,"x_min":28,"x_max":1028,"o":"m 361 0 q 295 6 328 0 q 232 26 263 13 q 126 97 172 51 q 85 147 103 121 q 54 203 67 174 q 28 333 28 268 l 31 444 q 57 574 31 513 q 128 679 83 635 q 233 750 172 724 q 364 776 294 776 l 694 776 q 760 770 728 776 q 824 750 793 764 q 929 679 883 725 q 1001 574 976 632 q 1021 510 1014 542 q 1028 443 1028 478 l 1025 332 q 999 203 1025 264 q 928 97 972 142 q 822 26 883 53 q 692 0 761 0 l 361 0 m 81 332 q 103 223 81 274 q 163 135 125 172 q 252 75 201 97 q 361 53 303 53 l 692 53 q 801 75 750 53 q 890 135 851 97 q 950 224 928 172 q 972 333 972 275 l 974 444 q 951 553 974 503 q 892 642 929 604 q 803 701 854 679 q 694 724 753 724 l 364 724 q 255 701 306 724 q 166 642 204 679 q 106 553 128 604 q 83 443 83 501 l 81 332 m 421 881 l 382 917 l 400 936 q 474 972 433 972 q 547 936 515 972 q 563 923 554 929 q 582 917 571 917 q 601 923 593 917 q 617 936 610 929 l 633 956 l 674 919 l 656 900 q 582 864 622 864 q 508 900 540 864 q 493 913 501 907 q 474 919 485 919 q 454 913 463 919 q 439 900 446 907 l 421 881 z "},"ŕ":{"ha":744,"x_min":28,"x_max":717,"o":"m 210 444 l 210 53 l 339 53 l 339 0 l 28 0 l 28 53 l 157 53 l 157 724 l 28 724 l 28 776 l 210 776 l 210 621 q 257 679 232 654 q 363 751 301 724 q 492 776 425 776 l 717 776 l 717 724 l 492 724 q 383 701 433 724 q 294 642 332 679 q 235 553 257 604 q 213 444 213 503 l 210 444 m 532 1031 l 411 856 l 368 886 l 488 1061 l 532 1031 z "},"ř":{"ha":744,"x_min":28,"x_max":717,"o":"m 210 444 l 210 53 l 339 53 l 339 0 l 28 0 l 28 53 l 157 53 l 157 724 l 28 724 l 28 776 l 210 776 l 210 621 q 257 679 232 654 q 363 751 301 724 q 492 776 425 776 l 717 776 l 717 724 l 492 724 q 383 701 433 724 q 294 642 332 679 q 235 553 257 604 q 213 444 213 503 l 210 444 m 436 840 l 317 1014 l 360 1044 l 458 901 l 557 1044 l 600 1014 l 481 840 l 436 840 z "},"ŗ":{"ha":744,"x_min":28,"x_max":717,"o":"m 210 444 l 210 53 l 339 53 l 339 0 l 28 0 l 28 53 l 157 53 l 157 724 l 28 724 l 28 776 l 210 776 l 210 621 q 257 679 232 654 q 363 751 301 724 q 492 776 425 776 l 717 776 l 717 724 l 492 724 q 383 701 433 724 q 294 642 332 679 q 235 553 257 604 q 213 444 213 503 l 210 444 m 204 -194 q 165 -179 181 -194 q 150 -140 150 -164 q 166 -103 150 -118 q 204 -87 182 -87 q 242 -103 226 -87 q 258 -140 258 -118 q 247 -193 258 -174 q 219 -222 235 -212 q 181 -237 203 -235 q 197 -217 192 -228 q 204 -194 201 -206 z "},"ś":{"ha":947,"x_min":28,"x_max":919,"o":"m 717 47 q 775 59 747 47 q 823 92 803 71 q 855 140 843 113 q 867 199 867 167 l 867 218 q 855 276 867 249 q 823 324 843 304 q 775 356 803 344 q 717 368 747 368 l 231 368 q 151 384 189 368 q 87 428 114 400 q 44 493 60 456 q 28 572 28 531 q 44 651 28 614 q 87 716 60 689 q 151 759 114 743 q 231 775 189 775 l 681 775 q 743 763 714 775 q 794 731 772 751 l 794 771 l 847 771 l 847 608 l 794 608 q 761 689 794 656 q 681 722 728 722 l 231 722 q 172 710 199 722 q 124 678 144 699 q 92 631 104 658 q 81 572 81 603 q 92 513 81 540 q 124 466 104 486 q 172 434 144 446 q 231 422 199 422 l 717 422 q 796 406 758 422 q 860 363 833 390 q 903 297 888 335 q 919 218 919 260 l 919 199 q 903 119 919 157 q 860 54 888 82 q 796 10 833 26 q 717 -6 758 -6 l 204 -6 q 100 35 144 -6 l 100 0 l 47 0 l 47 151 l 100 151 q 131 78 100 108 q 204 47 161 47 l 717 47 m 543 1024 l 422 849 l 379 879 l 499 1054 l 543 1024 z "},"š":{"ha":947,"x_min":28,"x_max":919,"o":"m 717 47 q 775 59 747 47 q 823 92 803 71 q 855 140 843 113 q 867 199 867 167 l 867 218 q 855 276 867 249 q 823 324 843 304 q 775 356 803 344 q 717 368 747 368 l 231 368 q 151 384 189 368 q 87 428 114 400 q 44 493 60 456 q 28 572 28 531 q 44 651 28 614 q 87 716 60 689 q 151 759 114 743 q 231 775 189 775 l 681 775 q 743 763 714 775 q 794 731 772 751 l 794 771 l 847 771 l 847 608 l 794 608 q 761 689 794 656 q 681 722 728 722 l 231 722 q 172 710 199 722 q 124 678 144 699 q 92 631 104 658 q 81 572 81 603 q 92 513 81 540 q 124 466 104 486 q 172 434 144 446 q 231 422 199 422 l 717 422 q 796 406 758 422 q 860 363 833 390 q 903 297 888 335 q 919 218 919 260 l 919 199 q 903 119 919 157 q 860 54 888 82 q 796 10 833 26 q 717 -6 758 -6 l 204 -6 q 100 35 144 -6 l 100 0 l 47 0 l 47 151 l 100 151 q 131 78 100 108 q 204 47 161 47 l 717 47 m 447 833 l 328 1007 l 371 1038 l 469 894 l 568 1038 l 611 1007 l 492 833 l 447 833 z "},"ş":{"ha":947,"x_min":28,"x_max":919,"o":"m 503 -31 q 572 -59 543 -31 q 601 -128 601 -87 l 601 -154 q 574 -224 603 -192 q 506 -251 546 -251 l 443 -253 q 374 -225 404 -253 q 344 -156 347 -196 l 399 -156 q 411 -186 399 -174 q 443 -200 425 -200 l 504 -199 q 536 -186 524 -199 q 549 -154 549 -174 l 549 -128 q 536 -96 549 -108 q 504 -83 524 -83 l 386 -85 l 450 -6 l 204 -6 q 100 35 144 -6 l 100 0 l 47 0 l 47 151 l 100 151 q 131 78 100 108 q 204 47 161 47 l 492 47 l 494 50 l 497 47 l 717 47 q 775 59 747 47 q 823 92 803 71 q 855 140 843 113 q 867 199 867 167 l 867 218 q 855 276 867 249 q 823 324 843 304 q 775 356 803 344 q 717 368 747 368 l 231 368 q 151 384 189 368 q 87 428 114 400 q 44 493 60 456 q 28 572 28 531 q 44 651 28 614 q 87 716 60 689 q 151 759 114 743 q 231 775 189 775 l 681 775 q 743 763 714 775 q 794 731 772 751 l 794 771 l 847 771 l 847 608 l 794 608 q 761 689 794 656 q 681 722 728 722 l 231 722 q 172 710 199 722 q 124 678 144 699 q 92 631 104 658 q 81 572 81 603 q 92 513 81 540 q 124 466 104 486 q 172 434 144 446 q 231 422 199 422 l 717 422 q 796 406 758 422 q 860 363 833 390 q 903 297 888 335 q 919 218 919 260 l 919 199 q 903 119 919 157 q 860 54 888 82 q 796 10 833 26 q 717 -6 758 -6 l 518 -6 l 499 -31 l 503 -31 z "},"ŝ":{"ha":947,"x_min":28,"x_max":919,"o":"m 717 47 q 775 59 747 47 q 823 92 803 71 q 855 140 843 113 q 867 199 867 167 l 867 218 q 855 276 867 249 q 823 324 843 304 q 775 356 803 344 q 717 368 747 368 l 231 368 q 151 384 189 368 q 87 428 114 400 q 44 493 60 456 q 28 572 28 531 q 44 651 28 614 q 87 716 60 689 q 151 759 114 743 q 231 775 189 775 l 681 775 q 743 763 714 775 q 794 731 772 751 l 794 771 l 847 771 l 847 608 l 794 608 q 761 689 794 656 q 681 722 728 722 l 231 722 q 172 710 199 722 q 124 678 144 699 q 92 631 104 658 q 81 572 81 603 q 92 513 81 540 q 124 466 104 486 q 172 434 144 446 q 231 422 199 422 l 717 422 q 796 406 758 422 q 860 363 833 390 q 903 297 888 335 q 919 218 919 260 l 919 199 q 903 119 919 157 q 860 54 888 82 q 796 10 833 26 q 717 -6 758 -6 l 204 -6 q 100 35 144 -6 l 100 0 l 47 0 l 47 151 l 100 151 q 131 78 100 108 q 204 47 161 47 l 717 47 m 494 1040 l 614 865 l 571 836 l 472 978 l 374 836 l 331 865 l 450 1040 l 494 1040 z "},"ș":{"ha":947,"x_min":28,"x_max":919,"o":"m 717 47 q 775 59 747 47 q 823 92 803 71 q 855 140 843 113 q 867 199 867 167 l 867 218 q 855 276 867 249 q 823 324 843 304 q 775 356 803 344 q 717 368 747 368 l 231 368 q 151 384 189 368 q 87 428 114 400 q 44 493 60 456 q 28 572 28 531 q 44 651 28 614 q 87 716 60 689 q 151 759 114 743 q 231 775 189 775 l 681 775 q 743 763 714 775 q 794 731 772 751 l 794 771 l 847 771 l 847 608 l 794 608 q 761 689 794 656 q 681 722 728 722 l 231 722 q 172 710 199 722 q 124 678 144 699 q 92 631 104 658 q 81 572 81 603 q 92 513 81 540 q 124 466 104 486 q 172 434 144 446 q 231 422 199 422 l 717 422 q 796 406 758 422 q 860 363 833 390 q 903 297 888 335 q 919 218 919 260 l 919 199 q 903 119 919 157 q 860 54 888 82 q 796 10 833 26 q 717 -6 758 -6 l 204 -6 q 100 35 144 -6 l 100 0 l 47 0 l 47 151 l 100 151 q 131 78 100 108 q 204 47 161 47 l 717 47 m 474 -194 q 435 -179 450 -194 q 419 -140 419 -164 q 435 -103 419 -118 q 474 -87 451 -87 q 512 -103 496 -87 q 528 -140 528 -118 q 516 -193 528 -174 q 489 -222 504 -212 q 450 -237 472 -235 q 466 -217 461 -228 q 474 -194 471 -206 z "},"ť":{"ha":669,"x_min":28,"x_max":642,"o":"m 210 724 l 210 147 q 237 81 210 108 q 304 53 264 53 l 642 53 l 642 0 l 304 0 q 247 12 274 0 q 199 44 219 24 q 167 90 179 64 q 156 147 156 117 l 156 724 l 28 724 l 28 776 l 156 776 l 156 978 l 210 978 l 210 776 l 642 776 l 642 724 l 210 724 m 153 1061 l 33 1235 l 76 1265 l 175 1122 l 274 1265 l 317 1235 l 197 1061 l 153 1061 z "},"ţ":{"ha":669,"x_min":28,"x_max":642,"o":"m 210 724 l 210 147 q 237 81 210 108 q 304 53 264 53 l 642 53 l 642 0 l 304 0 q 247 12 274 0 q 199 44 219 24 q 167 90 179 64 q 156 147 156 117 l 156 724 l 28 724 l 28 776 l 156 776 l 156 978 l 210 978 l 210 776 l 642 776 l 642 724 l 210 724 m 335 -194 q 296 -179 311 -194 q 281 -140 281 -164 q 297 -103 281 -118 q 335 -87 313 -87 q 373 -103 357 -87 q 389 -140 389 -118 q 377 -193 389 -174 q 350 -222 365 -212 q 311 -237 333 -235 q 327 -217 322 -228 q 335 -194 332 -206 z "},"ú":{"ha":1313,"x_min":28,"x_max":1285,"o":"m 1157 776 l 1157 53 l 1285 53 l 1285 0 l 1103 0 l 1103 156 q 1057 97 1083 124 q 951 26 1013 53 q 821 0 890 0 l 490 0 q 424 6 457 0 q 361 26 392 13 q 256 97 301 51 q 183 203 208 144 q 157 333 157 268 l 157 724 l 28 724 l 28 776 l 210 776 l 210 333 q 232 224 210 275 q 292 135 254 172 q 381 75 331 97 q 490 53 432 53 l 821 53 q 930 75 879 53 q 1019 135 981 97 q 1079 224 1057 172 q 1101 333 1101 275 l 1103 333 l 1103 724 l 975 724 l 975 776 l 1157 776 m 713 1035 l 592 860 l 549 890 l 668 1065 l 713 1035 z "},"û":{"ha":1313,"x_min":28,"x_max":1285,"o":"m 1157 776 l 1157 53 l 1285 53 l 1285 0 l 1103 0 l 1103 156 q 1057 97 1083 124 q 951 26 1013 53 q 821 0 890 0 l 490 0 q 424 6 457 0 q 361 26 392 13 q 256 97 301 51 q 183 203 208 144 q 157 333 157 268 l 157 724 l 28 724 l 28 776 l 210 776 l 210 333 q 232 224 210 275 q 292 135 254 172 q 381 75 331 97 q 490 53 432 53 l 821 53 q 930 75 879 53 q 1019 135 981 97 q 1079 224 1057 172 q 1101 333 1101 275 l 1103 333 l 1103 724 l 975 724 l 975 776 l 1157 776 m 664 1051 l 783 876 l 740 847 l 642 989 l 543 847 l 500 876 l 619 1051 l 664 1051 z "},"ü":{"ha":1313,"x_min":28,"x_max":1285,"o":"m 1157 776 l 1157 53 l 1285 53 l 1285 0 l 1103 0 l 1103 156 q 1057 97 1083 124 q 951 26 1013 53 q 821 0 890 0 l 490 0 q 424 6 457 0 q 361 26 392 13 q 256 97 301 51 q 183 203 208 144 q 157 333 157 268 l 157 724 l 28 724 l 28 776 l 210 776 l 210 333 q 232 224 210 275 q 292 135 254 172 q 381 75 331 97 q 490 53 432 53 l 821 53 q 930 75 879 53 q 1019 135 981 97 q 1079 224 1057 172 q 1101 333 1101 275 l 1103 333 l 1103 724 l 975 724 l 975 776 l 1157 776 m 529 1036 q 588 1012 564 1036 q 614 951 613 988 q 590 892 614 917 q 529 867 565 868 l 494 867 q 435 891 460 867 q 410 950 410 915 q 434 1010 410 986 q 493 1035 458 1035 l 529 1036 m 769 1036 q 829 1012 804 1036 q 854 951 854 988 q 830 892 854 917 q 771 867 806 868 l 735 867 q 676 891 700 867 q 650 950 651 915 q 674 1010 650 986 q 733 1035 699 1035 l 769 1036 z "},"ű":{"ha":1313,"x_min":28,"x_max":1285,"o":"m 1157 776 l 1157 53 l 1285 53 l 1285 0 l 1103 0 l 1103 156 q 1057 97 1083 124 q 951 26 1013 53 q 821 0 890 0 l 490 0 q 424 6 457 0 q 361 26 392 13 q 256 97 301 51 q 183 203 208 144 q 157 333 157 268 l 157 724 l 28 724 l 28 776 l 210 776 l 210 333 q 232 224 210 275 q 292 135 254 172 q 381 75 331 97 q 490 53 432 53 l 821 53 q 930 75 879 53 q 1019 135 981 97 q 1079 224 1057 172 q 1101 333 1101 275 l 1103 333 l 1103 724 l 975 724 l 975 776 l 1157 776 m 672 1060 l 583 856 l 535 876 l 624 1081 l 672 1060 m 763 1060 l 672 856 l 624 876 l 714 1081 l 763 1060 z "},"ù":{"ha":1313,"x_min":28,"x_max":1285,"o":"m 1157 776 l 1157 53 l 1285 53 l 1285 0 l 1103 0 l 1103 156 q 1057 97 1083 124 q 951 26 1013 53 q 821 0 890 0 l 490 0 q 424 6 457 0 q 361 26 392 13 q 256 97 301 51 q 183 203 208 144 q 157 333 157 268 l 157 724 l 28 724 l 28 776 l 210 776 l 210 333 q 232 224 210 275 q 292 135 254 172 q 381 75 331 97 q 490 53 432 53 l 821 53 q 930 75 879 53 q 1019 135 981 97 q 1079 224 1057 172 q 1101 333 1101 275 l 1103 333 l 1103 724 l 975 724 l 975 776 l 1157 776 m 721 892 l 676 861 l 557 1036 l 600 1067 l 721 892 z "},"ū":{"ha":1313,"x_min":28,"x_max":1285,"o":"m 1157 776 l 1157 53 l 1285 53 l 1285 0 l 1103 0 l 1103 156 q 1057 97 1083 124 q 951 26 1013 53 q 821 0 890 0 l 490 0 q 424 6 457 0 q 361 26 392 13 q 256 97 301 51 q 183 203 208 144 q 157 333 157 268 l 157 724 l 28 724 l 28 776 l 210 776 l 210 333 q 232 224 210 275 q 292 135 254 172 q 381 75 331 97 q 490 53 432 53 l 821 53 q 930 75 879 53 q 1019 135 981 97 q 1079 224 1057 172 q 1101 333 1101 275 l 1103 333 l 1103 724 l 975 724 l 975 776 l 1157 776 m 814 857 l 457 857 l 457 911 l 814 911 l 814 857 z "},"ų":{"ha":1313,"x_min":28,"x_max":1285,"o":"m 1057 -231 q 1028 -161 1028 -201 l 1026 -135 q 1056 -65 1026 -94 q 1124 -36 1082 -39 l 1143 -36 l 1172 0 l 1103 0 l 1103 156 q 1057 97 1083 124 q 951 26 1013 53 q 821 0 890 0 l 490 0 q 424 6 457 0 q 361 26 392 13 q 256 97 301 51 q 183 203 208 144 q 157 333 157 268 l 157 724 l 28 724 l 28 776 l 210 776 l 210 333 q 232 224 210 275 q 292 135 254 172 q 381 75 331 97 q 490 53 432 53 l 821 53 q 930 75 879 53 q 1019 135 981 97 q 1079 224 1057 172 q 1101 333 1101 275 l 1103 333 l 1103 724 l 975 724 l 975 776 l 1157 776 l 1157 53 l 1285 53 l 1285 0 l 1240 0 l 1168 -90 l 1124 -90 q 1093 -103 1106 -90 q 1081 -135 1081 -115 l 1081 -161 q 1093 -192 1081 -179 q 1125 -206 1107 -206 l 1186 -204 q 1218 -192 1206 -204 q 1231 -160 1231 -179 l 1283 -160 q 1256 -229 1285 -197 q 1188 -257 1228 -257 l 1125 -258 q 1057 -231 1085 -258 z "},"ů":{"ha":1313,"x_min":28,"x_max":1285,"o":"m 1157 776 l 1157 53 l 1285 53 l 1285 0 l 1103 0 l 1103 156 q 1057 97 1083 124 q 951 26 1013 53 q 821 0 890 0 l 490 0 q 424 6 457 0 q 361 26 392 13 q 256 97 301 51 q 183 203 208 144 q 157 333 157 268 l 157 724 l 28 724 l 28 776 l 210 776 l 210 333 q 232 224 210 275 q 292 135 254 172 q 381 75 331 97 q 490 53 432 53 l 821 53 q 930 75 879 53 q 1019 135 981 97 q 1079 224 1057 172 q 1101 333 1101 275 l 1103 333 l 1103 724 l 975 724 l 975 776 l 1157 776 m 611 864 q 542 892 571 864 q 514 961 514 921 l 513 988 q 542 1056 513 1028 q 610 1085 568 1085 l 672 1086 q 741 1058 713 1086 q 769 989 769 1029 l 769 963 q 742 893 771 925 q 674 864 713 864 l 611 864 m 579 1019 q 567 988 567 1007 l 567 961 q 579 929 567 942 q 611 917 592 917 l 672 917 q 704 931 693 919 q 717 963 717 943 l 717 989 q 703 1020 717 1007 q 672 1033 690 1033 l 610 1032 q 579 1019 592 1032 z "},"ũ":{"ha":1313,"x_min":28,"x_max":1285,"o":"m 1157 776 l 1157 53 l 1285 53 l 1285 0 l 1103 0 l 1103 156 q 1057 97 1083 124 q 951 26 1013 53 q 821 0 890 0 l 490 0 q 424 6 457 0 q 361 26 392 13 q 256 97 301 51 q 183 203 208 144 q 157 333 157 268 l 157 724 l 28 724 l 28 776 l 210 776 l 210 333 q 232 224 210 275 q 292 135 254 172 q 381 75 331 97 q 490 53 432 53 l 821 53 q 930 75 879 53 q 1019 135 981 97 q 1079 224 1057 172 q 1101 333 1101 275 l 1103 333 l 1103 724 l 975 724 l 975 776 l 1157 776 m 536 885 l 497 921 l 515 940 q 589 976 549 976 q 663 940 631 976 q 678 927 669 933 q 697 921 686 921 q 717 927 708 921 q 732 940 725 933 l 749 960 l 789 924 l 771 904 q 697 868 738 868 q 624 904 656 868 q 608 917 617 911 q 589 924 600 924 q 569 917 578 924 q 554 904 561 911 l 536 885 z "},"ẃ":{"ha":1839,"x_min":28,"x_max":1811,"o":"m 1500 724 l 1500 776 l 1811 776 l 1811 724 l 1668 724 l 1314 0 l 1267 0 l 918 682 l 568 0 l 521 0 l 167 724 l 28 724 l 28 776 l 339 776 l 339 724 l 225 724 l 544 72 l 892 750 l 943 750 l 1290 72 l 1610 724 l 1500 724 m 949 1051 l 993 1021 l 872 846 l 829 876 l 949 1051 z "},"ŵ":{"ha":1839,"x_min":28,"x_max":1811,"o":"m 1500 724 l 1500 776 l 1811 776 l 1811 724 l 1668 724 l 1314 0 l 1267 0 l 918 682 l 568 0 l 521 0 l 167 724 l 28 724 l 28 776 l 339 776 l 339 724 l 225 724 l 544 72 l 892 750 l 943 750 l 1290 72 l 1610 724 l 1500 724 m 944 1038 l 1064 863 l 1021 833 l 922 975 l 824 833 l 781 863 l 900 1038 l 944 1038 z "},"ẅ":{"ha":1839,"x_min":28,"x_max":1811,"o":"m 1500 776 l 1811 776 l 1811 724 l 1668 724 l 1314 0 l 1267 0 l 918 682 l 568 0 l 521 0 l 167 724 l 28 724 l 28 776 l 339 776 l 339 724 l 225 724 l 544 72 l 892 750 l 943 750 l 1290 72 l 1610 724 l 1500 724 l 1500 776 m 810 1022 q 869 998 844 1022 q 894 938 893 974 q 870 878 894 903 q 810 853 846 854 l 775 853 q 715 877 740 853 q 690 936 690 901 q 715 997 690 972 q 774 1021 739 1021 l 810 1022 m 1050 1022 q 1110 998 1085 1022 q 1135 938 1135 974 q 1110 878 1135 903 q 1051 853 1086 854 l 1015 853 q 956 877 981 853 q 931 936 932 901 q 955 997 931 972 q 1014 1021 979 1021 l 1050 1022 z "},"ẁ":{"ha":1839,"x_min":28,"x_max":1811,"o":"m 1500 724 l 1500 776 l 1811 776 l 1811 724 l 1668 724 l 1314 0 l 1267 0 l 918 682 l 568 0 l 521 0 l 167 724 l 28 724 l 28 776 l 339 776 l 339 724 l 225 724 l 544 72 l 892 750 l 943 750 l 1290 72 l 1610 724 l 1500 724 m 881 1053 l 1001 878 l 957 847 l 838 1022 l 881 1053 z "},"ý":{"ha":1253,"x_min":28,"x_max":1225,"o":"m 179 -435 q 318 -398 254 -435 q 419 -297 382 -361 l 593 -1 l 168 724 l 28 724 l 28 776 l 339 776 l 339 724 l 229 724 l 625 51 l 1019 724 l 914 724 l 914 776 l 1225 776 l 1225 724 l 1081 724 l 465 -325 q 412 -392 443 -362 q 343 -444 381 -422 q 179 -489 267 -489 l 101 -489 l 101 -435 l 179 -435 m 699 1031 l 578 856 l 535 886 l 654 1061 l 699 1031 z "},"ŷ":{"ha":1253,"x_min":28,"x_max":1225,"o":"m 179 -435 q 318 -398 254 -435 q 419 -297 382 -361 l 593 -1 l 168 724 l 28 724 l 28 776 l 339 776 l 339 724 l 229 724 l 625 51 l 1019 724 l 914 724 l 914 776 l 1225 776 l 1225 724 l 1081 724 l 465 -325 q 412 -392 443 -362 q 343 -444 381 -422 q 179 -489 267 -489 l 101 -489 l 101 -435 l 179 -435 m 650 1047 l 769 872 l 726 843 l 628 985 l 529 843 l 486 872 l 606 1047 l 650 1047 z "},"ÿ":{"ha":1253,"x_min":28,"x_max":1225,"o":"m 179 -435 q 318 -398 254 -435 q 419 -297 382 -361 l 593 -1 l 168 724 l 28 724 l 28 776 l 339 776 l 339 724 l 229 724 l 625 51 l 1019 724 l 914 724 l 914 776 l 1225 776 l 1225 724 l 1081 724 l 465 -325 q 412 -392 443 -362 q 343 -444 381 -422 q 179 -489 267 -489 l 101 -489 l 101 -435 l 179 -435 m 515 1032 q 574 1008 550 1032 q 600 947 599 983 q 576 888 600 913 q 515 863 551 864 l 481 863 q 421 887 446 863 q 396 946 396 911 q 420 1006 396 982 q 479 1031 444 1031 l 515 1032 m 756 1032 q 815 1008 790 1032 q 840 947 840 983 q 816 888 840 913 q 757 863 792 864 l 721 863 q 662 887 686 863 q 636 946 638 911 q 660 1006 636 982 q 719 1031 685 1031 l 756 1032 z "},"ỳ":{"ha":1253,"x_min":28,"x_max":1225,"o":"m 179 -435 q 318 -398 254 -435 q 419 -297 382 -361 l 593 -1 l 168 724 l 28 724 l 28 776 l 339 776 l 339 724 l 229 724 l 625 51 l 1019 724 l 914 724 l 914 776 l 1225 776 l 1225 724 l 1081 724 l 465 -325 q 412 -392 443 -362 q 343 -444 381 -422 q 179 -489 267 -489 l 101 -489 l 101 -435 l 179 -435 m 707 888 l 663 857 l 543 1032 l 586 1063 l 707 888 z "},"ź":{"ha":989,"x_min":28,"x_max":961,"o":"m 111 778 l 961 778 l 165 53 l 865 53 l 865 167 l 918 167 l 918 0 l 28 0 l 824 725 l 164 725 l 164 611 l 111 611 l 111 778 m 542 1068 l 586 1038 l 465 863 l 422 893 l 542 1068 z "},"ž":{"ha":989,"x_min":28,"x_max":961,"o":"m 111 778 l 961 778 l 165 53 l 865 53 l 865 167 l 918 167 l 918 0 l 28 0 l 824 725 l 164 725 l 164 611 l 111 611 l 111 778 m 490 847 l 371 1021 l 414 1051 l 513 908 l 611 1051 l 654 1021 l 535 847 l 490 847 z "},"ż":{"ha":989,"x_min":28,"x_max":961,"o":"m 961 778 l 165 53 l 865 53 l 865 167 l 918 167 l 918 0 l 28 0 l 824 725 l 164 725 l 164 611 l 111 611 l 111 778 l 961 778 m 525 1040 q 584 1016 560 1040 q 610 956 608 992 q 585 897 610 921 q 525 871 561 872 l 490 871 q 431 895 456 871 q 406 954 406 919 q 430 1015 406 990 q 489 1039 454 1039 l 525 1040 z "},"Ǿ":{"ha":1275,"x_min":28,"x_max":1247,"o":"m 729 1207 l 608 1032 l 565 1063 l 685 1238 l 729 1207 m 1215 247 q 1128 118 1183 174 q 1068 69 1100 90 q 1000 32 1036 47 q 922 8 963 15 q 842 0 882 0 l 433 0 q 275 32 347 0 q 254 41 264 36 q 233 51 244 46 l 158 -19 l 122 19 l 188 82 q 167 99 176 90 q 146 118 157 108 q 60 247 90 175 q 28 406 28 324 l 28 544 q 60 703 28 626 q 146 832 90 775 q 206 881 174 860 q 275 918 239 903 q 433 950 351 950 l 842 950 q 1000 918 924 950 q 1024 907 1011 913 q 1047 894 1036 901 l 1126 969 l 1163 932 l 1092 864 q 1128 832 1110 849 q 1215 703 1183 775 q 1247 544 1247 626 l 1247 406 q 1215 247 1247 324 m 81 406 q 121 242 81 317 q 228 119 161 168 l 1006 857 q 928 887 969 876 q 842 897 886 897 l 433 897 q 296 869 360 897 q 184 794 232 842 q 108 681 136 746 q 81 544 81 617 l 81 406 m 842 53 q 978 81 914 53 q 1091 156 1043 108 q 1167 268 1139 204 q 1194 406 1194 332 l 1194 544 q 1156 705 1194 632 q 1053 826 1118 778 l 274 90 q 350 63 310 72 q 433 53 390 53 l 842 53 z "},"ǿ":{"ha":1056,"x_min":28,"x_max":1028,"o":"m 642 1097 l 521 922 l 478 953 l 597 1128 l 642 1097 m 1001 574 q 1021 510 1014 542 q 1028 443 1028 478 l 1025 332 q 999 203 1025 264 q 928 97 974 143 q 822 25 881 50 q 758 6 790 13 q 692 -1 726 -1 l 361 -1 q 354 0 357 -1 l 301 -99 l 256 -75 l 297 6 q 232 25 265 11 q 125 97 172 50 q 54 203 79 143 q 28 332 28 264 l 28 333 l 31 444 q 57 574 31 513 q 128 679 83 635 q 233 750 172 724 q 364 776 294 776 l 694 776 l 701 776 l 753 875 l 800 851 l 758 771 q 824 750 793 764 q 929 679 883 725 q 971 629 953 656 q 1001 574 989 603 m 674 724 l 364 724 q 254 701 306 724 q 165 642 203 679 q 106 553 128 604 q 83 443 83 501 l 81 332 q 99 232 81 279 q 151 148 118 185 q 228 87 183 111 q 324 56 272 63 l 674 724 m 975 444 q 956 544 975 497 q 905 628 938 592 q 828 690 872 665 q 732 721 783 714 l 382 53 l 692 53 q 801 75 750 53 q 890 135 851 97 q 950 223 928 172 q 972 332 972 274 l 972 333 l 975 444 z "}}}
